<svg width="343" height="296" viewBox="0 0 343 296" fill="none" xmlns="http://www.w3.org/2000/svg">
<rect x="0.5" y="0.5" width="342" height="295" rx="15.5" fill="white"/>
<rect x="0.5" y="0.5" width="342" height="295" rx="15.5" stroke="#E9EBF1"/>
<path d="M21.7229 42V26.3182H31.4474V28.355H24.0889V33.133H30.7506V35.1622H24.0889V42H21.7229ZM37.7942 42.2374C36.6916 42.2374 35.7293 41.9847 34.9074 41.4793C34.0856 40.9739 33.4475 40.2669 32.9932 39.3583C32.5388 38.4496 32.3117 37.3879 32.3117 36.1729C32.3117 34.9529 32.5388 33.886 32.9932 32.9722C33.4475 32.0585 34.0856 31.3489 34.9074 30.8436C35.7293 30.3382 36.6916 30.0855 37.7942 30.0855C38.8968 30.0855 39.8591 30.3382 40.6809 30.8436C41.5028 31.3489 42.1409 32.0585 42.5952 32.9722C43.0495 33.886 43.2767 34.9529 43.2767 36.1729C43.2767 37.3879 43.0495 38.4496 42.5952 39.3583C42.1409 40.2669 41.5028 40.9739 40.6809 41.4793C39.8591 41.9847 38.8968 42.2374 37.7942 42.2374ZM37.8018 40.3154C38.5165 40.3154 39.1087 40.1266 39.5783 39.7488C40.0479 39.371 40.3951 38.8682 40.6197 38.2403C40.8494 37.6125 40.9642 36.9208 40.9642 36.1653C40.9642 35.4149 40.8494 34.7257 40.6197 34.0978C40.3951 33.4648 40.0479 32.9569 39.5783 32.5741C39.1087 32.1912 38.5165 31.9998 37.8018 31.9998C37.0821 31.9998 36.4848 32.1912 36.0101 32.5741C35.5404 32.9569 35.1908 33.4648 34.961 34.0978C34.7364 34.7257 34.6241 35.4149 34.6241 36.1653C34.6241 36.9208 34.7364 37.6125 34.961 38.2403C35.1908 38.8682 35.5404 39.371 36.0101 39.7488C36.4848 40.1266 37.0821 40.3154 37.8018 40.3154ZM45.3623 42V30.2386H47.5752V32.107H47.6977C47.9121 31.474 48.2898 30.9763 48.831 30.6138C49.3772 30.2463 49.9948 30.0625 50.684 30.0625C50.8269 30.0625 50.9954 30.0676 51.1894 30.0778C51.3884 30.088 51.5441 30.1008 51.6564 30.1161V32.3061C51.5645 32.2805 51.4012 32.2525 51.1664 32.2218C50.9316 32.1861 50.6967 32.1682 50.4619 32.1682C49.9208 32.1682 49.4384 32.2831 49.0147 32.5128C48.5961 32.7374 48.2643 33.0514 48.0193 33.4546C47.7743 33.8528 47.6518 34.3071 47.6518 34.8176V42H45.3623ZM53.1677 42V30.2386H55.3653V32.1529H55.5108C55.7558 31.5046 56.1566 30.9992 56.713 30.6368C57.2694 30.2693 57.9356 30.0855 58.7115 30.0855C59.4976 30.0855 60.1561 30.2693 60.687 30.6368C61.223 31.0043 61.6186 31.5097 61.8739 32.1529H61.9964C62.2772 31.525 62.7238 31.0248 63.3364 30.6521C63.949 30.2744 64.679 30.0855 65.5263 30.0855C66.5932 30.0855 67.4636 30.4199 68.1374 31.0886C68.8164 31.7573 69.1558 32.7655 69.1558 34.1131V42H66.8663V34.3275C66.8663 33.5312 66.6494 32.9544 66.2155 32.597C65.7816 32.2397 65.2634 32.061 64.6611 32.061C63.9158 32.061 63.3364 32.2907 62.9229 32.7502C62.5094 33.2045 62.3027 33.789 62.3027 34.5037V42H60.0209V34.1821C60.0209 33.544 59.8218 33.0309 59.4236 32.643C59.0254 32.255 58.5073 32.061 57.8692 32.061C57.4353 32.061 57.0346 32.1759 56.667 32.4056C56.3046 32.6302 56.0111 32.9442 55.7865 33.3474C55.567 33.7507 55.4572 34.2178 55.4572 34.7487V42H53.1677ZM77.1747 42V26.3182H82.9175C84.0304 26.3182 84.9518 26.502 85.6818 26.8695C86.4117 27.2319 86.9579 27.7245 87.3204 28.3473C87.6828 28.965 87.864 29.6618 87.864 30.4377C87.864 31.0911 87.7441 31.6424 87.5042 32.0917C87.2642 32.5358 86.9426 32.8931 86.5394 33.1637C86.1412 33.4291 85.7022 33.6231 85.2223 33.7456V33.8987C85.743 33.9243 86.2509 34.0927 86.7461 34.4041C87.2464 34.7104 87.6599 35.1469 87.9866 35.7135C88.3133 36.2801 88.4766 36.9693 88.4766 37.7809C88.4766 38.5824 88.2877 39.3021 87.91 39.9402C87.5373 40.5732 86.9605 41.076 86.1795 41.4487C85.3984 41.8162 84.4005 42 83.1855 42H77.1747ZM79.5407 39.9709H82.9558C84.0891 39.9709 84.9007 39.7514 85.3908 39.3123C85.8808 38.8733 86.1259 38.3246 86.1259 37.6661C86.1259 37.1709 86.0008 36.7166 85.7507 36.3031C85.5005 35.8896 85.1432 35.5603 84.6787 35.3153C84.2192 35.0703 83.673 34.9478 83.04 34.9478H79.5407V39.9709ZM79.5407 33.1024H82.7108C83.2417 33.1024 83.719 33.0003 84.1427 32.7961C84.5715 32.5919 84.9109 32.3061 85.1611 31.9385C85.4163 31.5659 85.5439 31.1269 85.5439 30.6215C85.5439 29.9732 85.3168 29.4295 84.8624 28.9905C84.4081 28.5515 83.7113 28.332 82.772 28.332H79.5407V33.1024ZM98.0796 37.1224V30.2386H100.377V42H98.1255V39.9632H98.003C97.7325 40.5911 97.2985 41.1143 96.7013 41.5329C96.1091 41.9464 95.3715 42.1531 94.4884 42.1531C93.7329 42.1531 93.0642 41.9872 92.4822 41.6554C91.9054 41.3185 91.451 40.8208 91.1192 40.1623C90.7925 39.5038 90.6292 38.6896 90.6292 37.7197V30.2386H92.9187V37.444C92.9187 38.2454 93.1407 38.8835 93.5848 39.3583C94.0289 39.833 94.6058 40.0704 95.3153 40.0704C95.7441 40.0704 96.1704 39.9632 96.5941 39.7488C97.0229 39.5344 97.3777 39.2102 97.6584 38.7763C97.9443 38.3424 98.0847 37.7911 98.0796 37.1224ZM102.983 42V30.2386H105.272V42H102.983ZM104.139 28.4239C103.741 28.4239 103.399 28.2912 103.113 28.0257C102.832 27.7552 102.692 27.4336 102.692 27.0609C102.692 26.6832 102.832 26.3616 103.113 26.0961C103.399 25.8256 103.741 25.6903 104.139 25.6903C104.537 25.6903 104.877 25.8256 105.158 26.0961C105.443 26.3616 105.586 26.6832 105.586 27.0609C105.586 27.4336 105.443 27.7552 105.158 28.0257C104.877 28.2912 104.537 28.4239 104.139 28.4239ZM110.172 26.3182V42H107.883V26.3182H110.172ZM117.185 42.2297C116.235 42.2297 115.388 41.9872 114.643 41.5023C113.903 41.0122 113.321 40.3154 112.897 39.4119C112.478 38.5032 112.269 37.4134 112.269 36.1423C112.269 34.8712 112.481 33.7839 112.905 32.8803C113.333 31.9768 113.92 31.2851 114.666 30.8053C115.411 30.3254 116.256 30.0855 117.2 30.0855C117.93 30.0855 118.517 30.208 118.961 30.453C119.411 30.693 119.758 30.9737 120.003 31.2953C120.253 31.6169 120.447 31.9002 120.585 32.1453H120.723V26.3182H123.012V42H120.776V40.1699H120.585C120.447 40.4201 120.248 40.7059 119.987 41.0275C119.732 41.3491 119.38 41.6299 118.931 41.8698C118.482 42.1098 117.9 42.2297 117.185 42.2297ZM117.69 40.2771C118.349 40.2771 118.905 40.1036 119.36 39.7565C119.819 39.4042 120.166 38.9167 120.401 38.2939C120.641 37.6712 120.761 36.9463 120.761 36.1193C120.761 35.3026 120.643 34.5879 120.409 33.9753C120.174 33.3627 119.829 32.8855 119.375 32.5434C118.921 32.2014 118.359 32.0304 117.69 32.0304C117.001 32.0304 116.427 32.2091 115.967 32.5664C115.508 32.9237 115.161 33.4112 114.926 34.0289C114.696 34.6466 114.582 35.3434 114.582 36.1193C114.582 36.9055 114.699 37.6125 114.934 38.2403C115.169 38.8682 115.516 39.3659 115.975 39.7335C116.44 40.0959 117.011 40.2771 117.69 40.2771ZM130.879 42.2374C129.72 42.2374 128.722 41.9898 127.885 41.4946C127.053 40.9944 126.41 40.2925 125.955 39.3889C125.506 38.4803 125.281 37.4159 125.281 36.1959C125.281 34.9912 125.506 33.9294 125.955 33.0105C126.41 32.0917 127.043 31.3744 127.854 30.8589C128.671 30.3433 129.626 30.0855 130.718 30.0855C131.382 30.0855 132.025 30.1952 132.648 30.4148C133.27 30.6343 133.829 30.9788 134.324 31.4485C134.82 31.9181 135.21 32.5281 135.496 33.2785C135.782 34.0238 135.925 34.9299 135.925 35.9968V36.8085H126.575V35.0933H133.681C133.681 34.4909 133.559 33.9575 133.314 33.4929C133.069 33.0233 132.724 32.6532 132.28 32.3826C131.841 32.1121 131.325 31.9768 130.733 31.9768C130.09 31.9768 129.529 32.1351 129.049 32.4515C128.574 32.7629 128.206 33.1713 127.946 33.6767C127.691 34.177 127.563 34.7206 127.563 35.3077V36.6477C127.563 37.4338 127.701 38.1025 127.977 38.6538C128.257 39.2051 128.648 39.6263 129.148 39.9173C129.649 40.2031 130.233 40.3461 130.902 40.3461C131.336 40.3461 131.731 40.2848 132.089 40.1623C132.446 40.0347 132.755 39.8458 133.015 39.5957C133.275 39.3455 133.475 39.0367 133.612 38.6691L135.779 39.0597C135.606 39.6978 135.294 40.2567 134.845 40.7366C134.401 41.2113 133.842 41.5814 133.168 41.8469C132.5 42.1072 131.736 42.2374 130.879 42.2374ZM137.995 42V30.2386H140.208V32.107H140.33C140.545 31.474 140.923 30.9763 141.464 30.6138C142.01 30.2463 142.628 30.0625 143.317 30.0625C143.46 30.0625 143.628 30.0676 143.822 30.0778C144.021 30.088 144.177 30.1008 144.289 30.1161V32.3061C144.197 32.2805 144.034 32.2525 143.799 32.2218C143.564 32.1861 143.33 32.1682 143.095 32.1682C142.554 32.1682 142.071 32.2831 141.648 32.5128C141.229 32.7374 140.897 33.0514 140.652 33.4546C140.407 33.8528 140.285 34.3071 140.285 34.8176V42H137.995Z" fill="#060B13"/>
<path d="M302.531 27.6094C301.689 27.6094 301 28.2989 301 29.1406C301 29.9824 301.689 30.6719 302.531 30.6719C303.374 30.6719 304.062 29.9824 304.062 29.1406C304.062 28.2989 303.374 27.6094 302.531 27.6094ZM302.531 38.3281C301.689 38.3281 301 39.0176 301 39.8594C301 40.7011 301.689 41.3906 302.531 41.3906C303.374 41.3906 304.062 40.7011 304.062 39.8594C304.062 39.0176 303.374 38.3281 302.531 38.3281ZM302.531 32.9688C301.689 32.9688 301 33.6582 301 34.5C301 35.3418 301.689 36.0312 302.531 36.0312C303.374 36.0312 304.062 35.3418 304.062 34.5C304.062 33.6582 303.374 32.9688 302.531 32.9688Z" fill="#979FB4"/>
<path d="M20 57H307" stroke="#E9EBF1" stroke-width="0.875"/>
<path d="M24.2273 73.2727H25.3864L26.358 74.5511L26.6136 74.892L28.0625 76.8182H26.9034L25.9489 75.5398L25.7102 75.2159L24.2273 73.2727ZM28.4205 71.6364C28.4205 72.5568 28.2543 73.3523 27.9219 74.0227C27.5895 74.6932 27.1335 75.2102 26.554 75.5739C25.9744 75.9375 25.3125 76.1193 24.5682 76.1193C23.8239 76.1193 23.1619 75.9375 22.5824 75.5739C22.0028 75.2102 21.5469 74.6932 21.2145 74.0227C20.8821 73.3523 20.7159 72.5568 20.7159 71.6364C20.7159 70.7159 20.8821 69.9205 21.2145 69.25C21.5469 68.5795 22.0028 68.0625 22.5824 67.6989C23.1619 67.3352 23.8239 67.1534 24.5682 67.1534C25.3125 67.1534 25.9744 67.3352 26.554 67.6989C27.1335 68.0625 27.5895 68.5795 27.9219 69.25C28.2543 69.9205 28.4205 70.7159 28.4205 71.6364ZM27.3977 71.6364C27.3977 70.8807 27.2713 70.2429 27.0185 69.723C26.7685 69.2031 26.429 68.8097 26 68.5426C25.5739 68.2756 25.0966 68.142 24.5682 68.142C24.0398 68.142 23.5611 68.2756 23.1321 68.5426C22.706 68.8097 22.3665 69.2031 22.1136 69.723C21.8636 70.2429 21.7386 70.8807 21.7386 71.6364C21.7386 72.392 21.8636 73.0298 22.1136 73.5497C22.3665 74.0696 22.706 74.4631 23.1321 74.7301C23.5611 74.9972 24.0398 75.1307 24.5682 75.1307C25.0966 75.1307 25.5739 74.9972 26 74.7301C26.429 74.4631 26.7685 74.0696 27.0185 73.5497C27.2713 73.0298 27.3977 72.392 27.3977 71.6364ZM34.1861 73.3239V69.4545H35.1918V76H34.1861V74.892H34.1179C33.9645 75.2244 33.7259 75.5071 33.402 75.7401C33.0781 75.9702 32.669 76.0852 32.1747 76.0852C31.7656 76.0852 31.402 75.9957 31.0838 75.8168C30.7656 75.6349 30.5156 75.3622 30.3338 74.9986C30.152 74.6321 30.0611 74.1705 30.0611 73.6136V69.4545H31.0668V73.5455C31.0668 74.0227 31.2003 74.4034 31.4673 74.6875C31.7372 74.9716 32.081 75.1136 32.4986 75.1136C32.7486 75.1136 33.0028 75.0497 33.2614 74.9219C33.5227 74.794 33.7415 74.598 33.9176 74.3338C34.0966 74.0696 34.1861 73.733 34.1861 73.3239ZM39.7781 76.1364C39.1474 76.1364 38.6033 75.9972 38.146 75.7188C37.6914 75.4375 37.3406 75.0455 37.0934 74.5426C36.8491 74.0369 36.7269 73.4489 36.7269 72.7784C36.7269 72.108 36.8491 71.517 37.0934 71.0057C37.3406 70.4915 37.6843 70.0909 38.1246 69.804C38.5678 69.5142 39.0849 69.3693 39.6758 69.3693C40.0167 69.3693 40.3533 69.4261 40.6857 69.5398C41.0181 69.6534 41.3207 69.8381 41.5934 70.0938C41.8661 70.3466 42.0835 70.6818 42.2454 71.0994C42.4073 71.517 42.4883 72.0312 42.4883 72.642V73.0682H37.4428V72.1989H41.4656C41.4656 71.8295 41.3917 71.5 41.244 71.2102C41.0991 70.9205 40.8917 70.6918 40.6218 70.5241C40.3548 70.3565 40.0394 70.2727 39.6758 70.2727C39.2752 70.2727 38.9286 70.3722 38.636 70.571C38.3462 70.767 38.1232 71.0227 37.967 71.3381C37.8107 71.6534 37.7326 71.9915 37.7326 72.3523V72.9318C37.7326 73.4261 37.8178 73.8452 37.9883 74.1889C38.1616 74.5298 38.4016 74.7898 38.7085 74.9688C39.0153 75.1449 39.3718 75.233 39.7781 75.233C40.0423 75.233 40.2809 75.196 40.494 75.1222C40.7099 75.0455 40.896 74.9318 41.0522 74.7812C41.2085 74.6278 41.3292 74.4375 41.4144 74.2102L42.386 74.483C42.2837 74.8125 42.1119 75.1023 41.8704 75.3523C41.6289 75.5994 41.3306 75.7926 40.9755 75.9318C40.6204 76.0682 40.2212 76.1364 39.7781 76.1364ZM48.6545 70.9205L47.7511 71.1761C47.6942 71.0256 47.6104 70.8793 47.4996 70.7372C47.3917 70.5923 47.244 70.473 47.0565 70.3793C46.869 70.2855 46.6289 70.2386 46.3363 70.2386C45.9357 70.2386 45.6019 70.331 45.3349 70.5156C45.0707 70.6974 44.9386 70.929 44.9386 71.2102C44.9386 71.4602 45.0295 71.6577 45.2113 71.8026C45.3931 71.9474 45.6772 72.0682 46.0636 72.1648L47.0352 72.4034C47.6204 72.5455 48.0565 72.7628 48.3434 73.0554C48.6303 73.3452 48.7738 73.7187 48.7738 74.1761C48.7738 74.5511 48.6658 74.8864 48.4499 75.1818C48.2369 75.4773 47.9386 75.7102 47.555 75.8807C47.1715 76.0511 46.7255 76.1364 46.217 76.1364C45.5494 76.1364 44.9968 75.9915 44.5593 75.7017C44.1218 75.4119 43.8448 74.9886 43.7283 74.4318L44.6829 74.1932C44.7738 74.5455 44.9457 74.8097 45.1985 74.9858C45.4542 75.1619 45.788 75.25 46.1999 75.25C46.6687 75.25 47.0408 75.1506 47.3164 74.9517C47.5948 74.75 47.734 74.5085 47.734 74.2273C47.734 74 47.6545 73.8097 47.4954 73.6562C47.3363 73.5 47.092 73.3835 46.7624 73.3068L45.6715 73.0511C45.0721 72.9091 44.6317 72.6889 44.3505 72.3906C44.0721 72.0895 43.9329 71.7131 43.9329 71.2614C43.9329 70.892 44.0366 70.5653 44.244 70.2812C44.4542 69.9972 44.7397 69.7741 45.1005 69.6122C45.4641 69.4503 45.8761 69.3693 46.3363 69.3693C46.984 69.3693 47.4925 69.5114 47.8619 69.7955C48.234 70.0795 48.4982 70.4545 48.6545 70.9205ZM53.1342 69.4545V70.3068H49.7422V69.4545H53.1342ZM50.7308 67.8864H51.7365V74.125C51.7365 74.4091 51.7777 74.6222 51.8601 74.7642C51.9453 74.9034 52.0533 74.9972 52.1839 75.0455C52.3175 75.0909 52.4581 75.1136 52.6058 75.1136C52.7166 75.1136 52.8075 75.108 52.8786 75.0966C52.9496 75.0824 53.0064 75.071 53.049 75.0625L53.2536 75.9659C53.1854 75.9915 53.0902 76.017 52.968 76.0426C52.8459 76.071 52.6911 76.0852 52.5036 76.0852C52.2195 76.0852 51.9411 76.0241 51.6683 75.902C51.3984 75.7798 51.174 75.5938 50.995 75.3438C50.8189 75.0938 50.7308 74.7784 50.7308 74.3977V67.8864ZM54.647 76V69.4545H55.6527V76H54.647ZM55.1584 68.3636C54.9624 68.3636 54.7933 68.2969 54.6513 68.1634C54.5121 68.0298 54.4425 67.8693 54.4425 67.6818C54.4425 67.4943 54.5121 67.3338 54.6513 67.2003C54.7933 67.0668 54.9624 67 55.1584 67C55.3544 67 55.522 67.0668 55.6612 67.2003C55.8033 67.3338 55.8743 67.4943 55.8743 67.6818C55.8743 67.8693 55.8033 68.0298 55.6612 68.1634C55.522 68.2969 55.3544 68.3636 55.1584 68.3636ZM60.1538 76.1364C59.5629 76.1364 59.0444 75.9957 58.5984 75.7145C58.1552 75.4332 57.8086 75.0398 57.5586 74.5341C57.3114 74.0284 57.1879 73.4375 57.1879 72.7614C57.1879 72.0795 57.3114 71.4844 57.5586 70.9759C57.8086 70.4673 58.1552 70.0724 58.5984 69.7912C59.0444 69.5099 59.5629 69.3693 60.1538 69.3693C60.7447 69.3693 61.2617 69.5099 61.7049 69.7912C62.1509 70.0724 62.4975 70.4673 62.7447 70.9759C62.9947 71.4844 63.1197 72.0795 63.1197 72.7614C63.1197 73.4375 62.9947 74.0284 62.7447 74.5341C62.4975 75.0398 62.1509 75.4332 61.7049 75.7145C61.2617 75.9957 60.7447 76.1364 60.1538 76.1364ZM60.1538 75.233C60.6026 75.233 60.9719 75.1179 61.2617 74.8878C61.5515 74.6577 61.766 74.3551 61.9052 73.9801C62.0444 73.6051 62.114 73.1989 62.114 72.7614C62.114 72.3239 62.0444 71.9162 61.9052 71.5384C61.766 71.1605 61.5515 70.8551 61.2617 70.6222C60.9719 70.3892 60.6026 70.2727 60.1538 70.2727C59.7049 70.2727 59.3356 70.3892 59.0458 70.6222C58.756 70.8551 58.5415 71.1605 58.4023 71.5384C58.2631 71.9162 58.1935 72.3239 58.1935 72.7614C58.1935 73.1989 58.2631 73.6051 58.4023 73.9801C58.5415 74.3551 58.756 74.6577 59.0458 74.8878C59.3356 75.1179 59.7049 75.233 60.1538 75.233ZM65.6605 72.0625V76H64.6548V69.4545H65.6264V70.4773H65.7116C65.8651 70.1449 66.098 69.8778 66.4105 69.6761C66.723 69.4716 67.1264 69.3693 67.6207 69.3693C68.0639 69.3693 68.4517 69.4602 68.7841 69.642C69.1165 69.821 69.375 70.0938 69.5597 70.4602C69.7443 70.8239 69.8366 71.2841 69.8366 71.8409V76H68.831V71.9091C68.831 71.3949 68.6974 70.9943 68.4304 70.7074C68.1634 70.4176 67.7969 70.2727 67.331 70.2727C67.0099 70.2727 66.723 70.3423 66.4702 70.4815C66.2202 70.6207 66.0227 70.8239 65.8778 71.0909C65.733 71.358 65.6605 71.6818 65.6605 72.0625ZM76.3107 70.9205L75.4073 71.1761C75.3505 71.0256 75.2667 70.8793 75.1559 70.7372C75.0479 70.5923 74.9002 70.473 74.7127 70.3793C74.5252 70.2855 74.2852 70.2386 73.9925 70.2386C73.592 70.2386 73.2582 70.331 72.9911 70.5156C72.7269 70.6974 72.5948 70.929 72.5948 71.2102C72.5948 71.4602 72.6857 71.6577 72.8675 71.8026C73.0494 71.9474 73.3335 72.0682 73.7198 72.1648L74.6914 72.4034C75.2766 72.5455 75.7127 72.7628 75.9996 73.0554C76.2866 73.3452 76.43 73.7187 76.43 74.1761C76.43 74.5511 76.3221 74.8864 76.1062 75.1818C75.8931 75.4773 75.5948 75.7102 75.2113 75.8807C74.8278 76.0511 74.3817 76.1364 73.8732 76.1364C73.2056 76.1364 72.6531 75.9915 72.2156 75.7017C71.7781 75.4119 71.5011 74.9886 71.3846 74.4318L72.3391 74.1932C72.43 74.5455 72.6019 74.8097 72.8548 74.9858C73.1104 75.1619 73.4442 75.25 73.8562 75.25C74.3249 75.25 74.6971 75.1506 74.9727 74.9517C75.2511 74.75 75.3903 74.5085 75.3903 74.2273C75.3903 74 75.3107 73.8097 75.1516 73.6562C74.9925 73.5 74.7482 73.3835 74.4187 73.3068L73.3278 73.0511C72.7283 72.9091 72.288 72.6889 72.0067 72.3906C71.7283 72.0895 71.5891 71.7131 71.5891 71.2614C71.5891 70.892 71.6928 70.5653 71.9002 70.2812C72.1104 69.9972 72.396 69.7741 72.7567 69.6122C73.1204 69.4503 73.5323 69.3693 73.9925 69.3693C74.6403 69.3693 75.1488 69.5114 75.5181 69.7955C75.8903 70.0795 76.1545 70.4545 76.3107 70.9205Z" fill="black"/>
<path d="M139.057 76V67.2727H142.006C142.688 67.2727 143.247 67.3892 143.685 67.6222C144.122 67.8523 144.446 68.169 144.656 68.5724C144.866 68.9759 144.972 69.4347 144.972 69.9489C144.972 70.4631 144.866 70.919 144.656 71.3168C144.446 71.7145 144.124 72.027 143.689 72.2543C143.254 72.4787 142.699 72.5909 142.023 72.5909H139.636V71.6364H141.989C142.455 71.6364 142.83 71.5682 143.114 71.4318C143.401 71.2955 143.608 71.1023 143.736 70.8523C143.866 70.5994 143.932 70.2983 143.932 69.9489C143.932 69.5994 143.866 69.294 143.736 69.0327C143.605 68.7713 143.396 68.5696 143.109 68.4276C142.822 68.2827 142.443 68.2102 141.972 68.2102H140.114V76H139.057ZM143.165 72.0795L145.312 76H144.085L141.972 72.0795H143.165ZM149.27 76.1364C148.64 76.1364 148.096 75.9972 147.638 75.7188C147.184 75.4375 146.833 75.0455 146.586 74.5426C146.341 74.0369 146.219 73.4489 146.219 72.7784C146.219 72.108 146.341 71.517 146.586 71.0057C146.833 70.4915 147.176 70.0909 147.617 69.804C148.06 69.5142 148.577 69.3693 149.168 69.3693C149.509 69.3693 149.846 69.4261 150.178 69.5398C150.51 69.6534 150.813 69.8381 151.086 70.0938C151.358 70.3466 151.576 70.6818 151.738 71.0994C151.9 71.517 151.98 72.0312 151.98 72.642V73.0682H146.935V72.1989H150.958C150.958 71.8295 150.884 71.5 150.736 71.2102C150.591 70.9205 150.384 70.6918 150.114 70.5241C149.847 70.3565 149.532 70.2727 149.168 70.2727C148.767 70.2727 148.421 70.3722 148.128 70.571C147.838 70.767 147.615 71.0227 147.459 71.3381C147.303 71.6534 147.225 71.9915 147.225 72.3523V72.9318C147.225 73.4261 147.31 73.8452 147.48 74.1889C147.654 74.5298 147.894 74.7898 148.201 74.9688C148.507 75.1449 148.864 75.233 149.27 75.233C149.534 75.233 149.773 75.196 149.986 75.1222C150.202 75.0455 150.388 74.9318 150.544 74.7812C150.701 74.6278 150.821 74.4375 150.907 74.2102L151.878 74.483C151.776 74.8125 151.604 75.1023 151.363 75.3523C151.121 75.5994 150.823 75.7926 150.468 75.9318C150.113 76.0682 149.713 76.1364 149.27 76.1364ZM158.147 70.9205L157.243 71.1761C157.186 71.0256 157.103 70.8793 156.992 70.7372C156.884 70.5923 156.736 70.473 156.549 70.3793C156.361 70.2855 156.121 70.2386 155.828 70.2386C155.428 70.2386 155.094 70.331 154.827 70.5156C154.563 70.6974 154.431 70.929 154.431 71.2102C154.431 71.4602 154.522 71.6577 154.703 71.8026C154.885 71.9474 155.169 72.0682 155.556 72.1648L156.527 72.4034C157.113 72.5455 157.549 72.7628 157.836 73.0554C158.123 73.3452 158.266 73.7187 158.266 74.1761C158.266 74.5511 158.158 74.8864 157.942 75.1818C157.729 75.4773 157.431 75.7102 157.047 75.8807C156.664 76.0511 156.218 76.1364 155.709 76.1364C155.042 76.1364 154.489 75.9915 154.051 75.7017C153.614 75.4119 153.337 74.9886 153.221 74.4318L154.175 74.1932C154.266 74.5455 154.438 74.8097 154.691 74.9858C154.946 75.1619 155.28 75.25 155.692 75.25C156.161 75.25 156.533 75.1506 156.809 74.9517C157.087 74.75 157.226 74.5085 157.226 74.2273C157.226 74 157.147 73.8097 156.988 73.6562C156.828 73.5 156.584 73.3835 156.255 73.3068L155.164 73.0511C154.564 72.9091 154.124 72.6889 153.843 72.3906C153.564 72.0895 153.425 71.7131 153.425 71.2614C153.425 70.892 153.529 70.5653 153.736 70.2812C153.946 69.9972 154.232 69.7741 154.593 69.6122C154.956 69.4503 155.368 69.3693 155.828 69.3693C156.476 69.3693 156.985 69.5114 157.354 69.7955C157.726 70.0795 157.99 70.4545 158.147 70.9205ZM159.78 78.4545V69.4545H160.751V70.4943H160.871C160.945 70.3807 161.047 70.2358 161.178 70.0597C161.311 69.8807 161.501 69.7216 161.749 69.5824C161.999 69.4403 162.337 69.3693 162.763 69.3693C163.314 69.3693 163.8 69.5071 164.22 69.7827C164.641 70.0582 164.969 70.4489 165.205 70.9545C165.44 71.4602 165.558 72.0568 165.558 72.7443C165.558 73.4375 165.44 74.0384 165.205 74.5469C164.969 75.0526 164.642 75.4446 164.224 75.723C163.807 75.9986 163.325 76.1364 162.78 76.1364C162.359 76.1364 162.023 76.0668 161.77 75.9276C161.517 75.7855 161.322 75.625 161.186 75.446C161.05 75.2642 160.945 75.1136 160.871 74.9943H160.786V78.4545H159.78ZM160.768 72.7273C160.768 73.2216 160.841 73.6577 160.986 74.0355C161.131 74.4105 161.342 74.7045 161.621 74.9176C161.899 75.1278 162.24 75.233 162.643 75.233C163.064 75.233 163.415 75.1222 163.696 74.9006C163.98 74.6761 164.193 74.375 164.335 73.9972C164.48 73.6165 164.553 73.1932 164.553 72.7273C164.553 72.267 164.482 71.8523 164.339 71.483C164.2 71.1108 163.989 70.8168 163.705 70.6009C163.423 70.3821 163.07 70.2727 162.643 70.2727C162.234 70.2727 161.891 70.3764 161.612 70.5838C161.334 70.7884 161.124 71.0753 160.982 71.4446C160.839 71.8111 160.768 72.2386 160.768 72.7273ZM169.751 76.1364C169.161 76.1364 168.642 75.9957 168.196 75.7145C167.753 75.4332 167.406 75.0398 167.156 74.5341C166.909 74.0284 166.786 73.4375 166.786 72.7614C166.786 72.0795 166.909 71.4844 167.156 70.9759C167.406 70.4673 167.753 70.0724 168.196 69.7912C168.642 69.5099 169.161 69.3693 169.751 69.3693C170.342 69.3693 170.859 69.5099 171.303 69.7912C171.749 70.0724 172.095 70.4673 172.342 70.9759C172.592 71.4844 172.717 72.0795 172.717 72.7614C172.717 73.4375 172.592 74.0284 172.342 74.5341C172.095 75.0398 171.749 75.4332 171.303 75.7145C170.859 75.9957 170.342 76.1364 169.751 76.1364ZM169.751 75.233C170.2 75.233 170.57 75.1179 170.859 74.8878C171.149 74.6577 171.364 74.3551 171.503 73.9801C171.642 73.6051 171.712 73.1989 171.712 72.7614C171.712 72.3239 171.642 71.9162 171.503 71.5384C171.364 71.1605 171.149 70.8551 170.859 70.6222C170.57 70.3892 170.2 70.2727 169.751 70.2727C169.303 70.2727 168.933 70.3892 168.643 70.6222C168.354 70.8551 168.139 71.1605 168 71.5384C167.861 71.9162 167.791 72.3239 167.791 72.7614C167.791 73.1989 167.861 73.6051 168 73.9801C168.139 74.3551 168.354 74.6577 168.643 74.8878C168.933 75.1179 169.303 75.233 169.751 75.233ZM175.258 72.0625V76H174.252V69.4545H175.224V70.4773H175.309C175.463 70.1449 175.696 69.8778 176.008 69.6761C176.321 69.4716 176.724 69.3693 177.218 69.3693C177.662 69.3693 178.049 69.4602 178.382 69.642C178.714 69.821 178.973 70.0938 179.157 70.4602C179.342 70.8239 179.434 71.2841 179.434 71.8409V76H178.429V71.9091C178.429 71.3949 178.295 70.9943 178.028 70.7074C177.761 70.4176 177.395 70.2727 176.929 70.2727C176.608 70.2727 176.321 70.3423 176.068 70.4815C175.818 70.6207 175.62 70.8239 175.475 71.0909C175.331 71.358 175.258 71.6818 175.258 72.0625ZM185.908 70.9205L185.005 71.1761C184.948 71.0256 184.864 70.8793 184.754 70.7372C184.646 70.5923 184.498 70.473 184.31 70.3793C184.123 70.2855 183.883 70.2386 183.59 70.2386C183.19 70.2386 182.856 70.331 182.589 70.5156C182.325 70.6974 182.192 70.929 182.192 71.2102C182.192 71.4602 182.283 71.6577 182.465 71.8026C182.647 71.9474 182.931 72.0682 183.317 72.1648L184.289 72.4034C184.874 72.5455 185.31 72.7628 185.597 73.0554C185.884 73.3452 186.028 73.7187 186.028 74.1761C186.028 74.5511 185.92 74.8864 185.704 75.1818C185.491 75.4773 185.192 75.7102 184.809 75.8807C184.425 76.0511 183.979 76.1364 183.471 76.1364C182.803 76.1364 182.251 75.9915 181.813 75.7017C181.376 75.4119 181.099 74.9886 180.982 74.4318L181.937 74.1932C182.028 74.5455 182.2 74.8097 182.452 74.9858C182.708 75.1619 183.042 75.25 183.454 75.25C183.923 75.25 184.295 75.1506 184.57 74.9517C184.849 74.75 184.988 74.5085 184.988 74.2273C184.988 74 184.908 73.8097 184.749 73.6562C184.59 73.5 184.346 73.3835 184.016 73.3068L182.925 73.0511C182.326 72.9091 181.886 72.6889 181.604 72.3906C181.326 72.0895 181.187 71.7131 181.187 71.2614C181.187 70.892 181.29 70.5653 181.498 70.2812C181.708 69.9972 181.994 69.7741 182.354 69.6122C182.718 69.4503 183.13 69.3693 183.59 69.3693C184.238 69.3693 184.746 69.5114 185.116 69.7955C185.488 70.0795 185.752 70.4545 185.908 70.9205ZM190.286 76.1364C189.655 76.1364 189.111 75.9972 188.654 75.7188C188.199 75.4375 187.848 75.0455 187.601 74.5426C187.357 74.0369 187.235 73.4489 187.235 72.7784C187.235 72.108 187.357 71.517 187.601 71.0057C187.848 70.4915 188.192 70.0909 188.632 69.804C189.076 69.5142 189.593 69.3693 190.184 69.3693C190.525 69.3693 190.861 69.4261 191.194 69.5398C191.526 69.6534 191.828 69.8381 192.101 70.0938C192.374 70.3466 192.591 70.6818 192.753 71.0994C192.915 71.517 192.996 72.0312 192.996 72.642V73.0682H187.951V72.1989H191.973C191.973 71.8295 191.9 71.5 191.752 71.2102C191.607 70.9205 191.4 70.6918 191.13 70.5241C190.863 70.3565 190.547 70.2727 190.184 70.2727C189.783 70.2727 189.436 70.3722 189.144 70.571C188.854 70.767 188.631 71.0227 188.475 71.3381C188.319 71.6534 188.24 71.9915 188.24 72.3523V72.9318C188.24 73.4261 188.326 73.8452 188.496 74.1889C188.669 74.5298 188.909 74.7898 189.216 74.9688C189.523 75.1449 189.88 75.233 190.286 75.233C190.55 75.233 190.789 75.196 191.002 75.1222C191.218 75.0455 191.404 74.9318 191.56 74.7812C191.716 74.6278 191.837 74.4375 191.922 74.2102L192.894 74.483C192.792 74.8125 192.62 75.1023 192.378 75.3523C192.137 75.5994 191.838 75.7926 191.483 75.9318C191.128 76.0682 190.729 76.1364 190.286 76.1364ZM199.162 70.9205L198.259 71.1761C198.202 71.0256 198.118 70.8793 198.007 70.7372C197.9 70.5923 197.752 70.473 197.564 70.3793C197.377 70.2855 197.137 70.2386 196.844 70.2386C196.444 70.2386 196.11 70.331 195.843 70.5156C195.578 70.6974 195.446 70.929 195.446 71.2102C195.446 71.4602 195.537 71.6577 195.719 71.8026C195.901 71.9474 196.185 72.0682 196.571 72.1648L197.543 72.4034C198.128 72.5455 198.564 72.7628 198.851 73.0554C199.138 73.3452 199.282 73.7187 199.282 74.1761C199.282 74.5511 199.174 74.8864 198.958 75.1818C198.745 75.4773 198.446 75.7102 198.063 75.8807C197.679 76.0511 197.233 76.1364 196.725 76.1364C196.057 76.1364 195.505 75.9915 195.067 75.7017C194.63 75.4119 194.353 74.9886 194.236 74.4318L195.191 74.1932C195.282 74.5455 195.453 74.8097 195.706 74.9858C195.962 75.1619 196.296 75.25 196.708 75.25C197.176 75.25 197.549 75.1506 197.824 74.9517C198.103 74.75 198.242 74.5085 198.242 74.2273C198.242 74 198.162 73.8097 198.003 73.6562C197.844 73.5 197.6 73.3835 197.27 73.3068L196.179 73.0511C195.58 72.9091 195.14 72.6889 194.858 72.3906C194.58 72.0895 194.441 71.7131 194.441 71.2614C194.441 70.892 194.544 70.5653 194.752 70.2812C194.962 69.9972 195.248 69.7741 195.608 69.6122C195.972 69.4503 196.384 69.3693 196.844 69.3693C197.492 69.3693 198 69.5114 198.37 69.7955C198.742 70.0795 199.006 70.4545 199.162 70.9205Z" fill="black"/>
<path d="M265.83 69.4545C265.778 69.0227 265.571 68.6875 265.207 68.4489C264.844 68.2102 264.398 68.0909 263.869 68.0909C263.483 68.0909 263.145 68.1534 262.855 68.2784C262.568 68.4034 262.344 68.5753 262.182 68.794C262.023 69.0128 261.943 69.2614 261.943 69.5398C261.943 69.7727 261.999 69.973 262.109 70.1406C262.223 70.3054 262.368 70.4432 262.544 70.554C262.72 70.6619 262.905 70.7514 263.098 70.8224C263.291 70.8906 263.469 70.946 263.631 70.9886L264.517 71.2273C264.744 71.2869 264.997 71.3693 265.276 71.4744C265.557 71.5795 265.825 71.723 266.081 71.9048C266.339 72.0838 266.553 72.3139 266.72 72.5952C266.888 72.8764 266.972 73.2216 266.972 73.6307C266.972 74.1023 266.848 74.5284 266.601 74.9091C266.357 75.2898 265.999 75.5923 265.527 75.8168C265.058 76.0412 264.489 76.1534 263.818 76.1534C263.193 76.1534 262.652 76.0526 262.195 75.8509C261.74 75.6491 261.382 75.3679 261.121 75.0071C260.862 74.6463 260.716 74.2273 260.682 73.75H261.773C261.801 74.0795 261.912 74.3523 262.105 74.5682C262.301 74.7812 262.548 74.9403 262.847 75.0455C263.148 75.1477 263.472 75.1989 263.818 75.1989C264.222 75.1989 264.584 75.1335 264.905 75.0028C265.226 74.8693 265.48 74.6847 265.668 74.4489C265.855 74.2102 265.949 73.9318 265.949 73.6136C265.949 73.3239 265.868 73.0881 265.706 72.9062C265.544 72.7244 265.331 72.5767 265.067 72.4631C264.803 72.3494 264.517 72.25 264.21 72.1648L263.136 71.858C262.455 71.6619 261.915 71.3821 261.517 71.0185C261.119 70.6548 260.92 70.179 260.92 69.5909C260.92 69.1023 261.053 68.6761 261.317 68.3125C261.584 67.946 261.942 67.6619 262.391 67.4602C262.842 67.2557 263.347 67.1534 263.903 67.1534C264.466 67.1534 264.966 67.2543 265.403 67.456C265.841 67.6548 266.188 67.9276 266.443 68.2741C266.702 68.6207 266.838 69.0142 266.852 69.4545H265.83ZM271.317 76.1364C270.686 76.1364 270.142 75.9972 269.685 75.7188C269.23 75.4375 268.88 75.0455 268.632 74.5426C268.388 74.0369 268.266 73.4489 268.266 72.7784C268.266 72.108 268.388 71.517 268.632 71.0057C268.88 70.4915 269.223 70.0909 269.664 69.804C270.107 69.5142 270.624 69.3693 271.215 69.3693C271.556 69.3693 271.892 69.4261 272.225 69.5398C272.557 69.6534 272.86 69.8381 273.132 70.0938C273.405 70.3466 273.623 70.6818 273.784 71.0994C273.946 71.517 274.027 72.0312 274.027 72.642V73.0682H268.982V72.1989H273.005C273.005 71.8295 272.931 71.5 272.783 71.2102C272.638 70.9205 272.431 70.6918 272.161 70.5241C271.894 70.3565 271.578 70.2727 271.215 70.2727C270.814 70.2727 270.468 70.3722 270.175 70.571C269.885 70.767 269.662 71.0227 269.506 71.3381C269.35 71.6534 269.272 71.9915 269.272 72.3523V72.9318C269.272 73.4261 269.357 73.8452 269.527 74.1889C269.701 74.5298 269.941 74.7898 270.248 74.9688C270.554 75.1449 270.911 75.233 271.317 75.233C271.581 75.233 271.82 75.196 272.033 75.1222C272.249 75.0455 272.435 74.9318 272.591 74.7812C272.748 74.6278 272.868 74.4375 272.953 74.2102L273.925 74.483C273.823 74.8125 273.651 75.1023 273.409 75.3523C273.168 75.5994 272.87 75.7926 272.515 75.9318C272.159 76.0682 271.76 76.1364 271.317 76.1364ZM278.404 69.4545V70.3068H275.012V69.4545H278.404ZM276 67.8864H277.006V74.125C277.006 74.4091 277.047 74.6222 277.13 74.7642C277.215 74.9034 277.323 74.9972 277.453 75.0455C277.587 75.0909 277.728 75.1136 277.875 75.1136C277.986 75.1136 278.077 75.108 278.148 75.0966C278.219 75.0824 278.276 75.071 278.319 75.0625L278.523 75.9659C278.455 75.9915 278.36 76.017 278.238 76.0426C278.115 76.071 277.961 76.0852 277.773 76.0852C277.489 76.0852 277.211 76.0241 276.938 75.902C276.668 75.7798 276.444 75.5938 276.265 75.3438C276.088 75.0938 276 74.7784 276 74.3977V67.8864ZM282.763 69.4545V70.3068H279.371V69.4545H282.763ZM280.36 67.8864H281.365V74.125C281.365 74.4091 281.407 74.6222 281.489 74.7642C281.574 74.9034 281.682 74.9972 281.813 75.0455C281.946 75.0909 282.087 75.1136 282.235 75.1136C282.346 75.1136 282.436 75.108 282.507 75.0966C282.578 75.0824 282.635 75.071 282.678 75.0625L282.882 75.9659C282.814 75.9915 282.719 76.017 282.597 76.0426C282.475 76.071 282.32 76.0852 282.132 76.0852C281.848 76.0852 281.57 76.0241 281.297 75.902C281.027 75.7798 280.803 75.5938 280.624 75.3438C280.448 75.0938 280.36 74.7784 280.36 74.3977V67.8864ZM284.276 76V69.4545H285.282V76H284.276ZM284.787 68.3636C284.591 68.3636 284.422 68.2969 284.28 68.1634C284.141 68.0298 284.071 67.8693 284.071 67.6818C284.071 67.4943 284.141 67.3338 284.28 67.2003C284.422 67.0668 284.591 67 284.787 67C284.983 67 285.151 67.0668 285.29 67.2003C285.432 67.3338 285.503 67.4943 285.503 67.6818C285.503 67.8693 285.432 68.0298 285.29 68.1634C285.151 68.2969 284.983 68.3636 284.787 68.3636ZM288.129 72.0625V76H287.124V69.4545H288.095V70.4773H288.18C288.334 70.1449 288.567 69.8778 288.879 69.6761C289.192 69.4716 289.595 69.3693 290.089 69.3693C290.533 69.3693 290.92 69.4602 291.253 69.642C291.585 69.821 291.844 70.0938 292.028 70.4602C292.213 70.8239 292.305 71.2841 292.305 71.8409V76H291.3V71.9091C291.3 71.3949 291.166 70.9943 290.899 70.7074C290.632 70.4176 290.266 70.2727 289.8 70.2727C289.479 70.2727 289.192 70.3423 288.939 70.4815C288.689 70.6207 288.491 70.8239 288.347 71.0909C288.202 71.358 288.129 71.6818 288.129 72.0625ZM296.785 78.5909C296.299 78.5909 295.882 78.5284 295.532 78.4034C295.183 78.2812 294.892 78.1193 294.659 77.9176C294.429 77.7188 294.245 77.5057 294.109 77.2784L294.91 76.7159C295.001 76.8352 295.116 76.9716 295.255 77.125C295.395 77.2812 295.585 77.4162 295.826 77.5298C296.071 77.6463 296.39 77.7045 296.785 77.7045C297.314 77.7045 297.75 77.5767 298.093 77.321C298.437 77.0653 298.609 76.6648 298.609 76.1193V74.7898H298.524C298.45 74.9091 298.345 75.0568 298.208 75.233C298.075 75.4062 297.882 75.5611 297.629 75.6974C297.379 75.831 297.041 75.8977 296.615 75.8977C296.086 75.8977 295.612 75.7727 295.191 75.5227C294.774 75.2727 294.443 74.9091 294.199 74.4318C293.957 73.9545 293.836 73.375 293.836 72.6932C293.836 72.0227 293.954 71.4389 294.19 70.9418C294.426 70.4418 294.754 70.0554 295.174 69.7827C295.595 69.5071 296.081 69.3693 296.632 69.3693C297.058 69.3693 297.396 69.4403 297.646 69.5824C297.899 69.7216 298.092 69.8807 298.225 70.0597C298.362 70.2358 298.467 70.3807 298.541 70.4943H298.643V69.4545H299.615V76.1875C299.615 76.75 299.487 77.2074 299.231 77.5597C298.978 77.9148 298.637 78.1747 298.208 78.3395C297.782 78.5071 297.308 78.5909 296.785 78.5909ZM296.751 74.9943C297.154 74.9943 297.495 74.902 297.774 74.7173C298.052 74.5327 298.264 74.267 298.409 73.9205C298.554 73.5739 298.626 73.1591 298.626 72.6761C298.626 72.2045 298.555 71.7884 298.413 71.4276C298.271 71.0668 298.061 70.7841 297.782 70.5795C297.504 70.375 297.16 70.2727 296.751 70.2727C296.325 70.2727 295.97 70.3807 295.686 70.5966C295.404 70.8125 295.193 71.1023 295.051 71.4659C294.912 71.8295 294.842 72.233 294.842 72.6761C294.842 73.1307 294.913 73.5327 295.055 73.8821C295.2 74.2287 295.413 74.5014 295.694 74.7003C295.978 74.8963 296.331 74.9943 296.751 74.9943ZM306.092 70.9205L305.189 71.1761C305.132 71.0256 305.048 70.8793 304.937 70.7372C304.829 70.5923 304.681 70.473 304.494 70.3793C304.306 70.2855 304.066 70.2386 303.774 70.2386C303.373 70.2386 303.039 70.331 302.772 70.5156C302.508 70.6974 302.376 70.929 302.376 71.2102C302.376 71.4602 302.467 71.6577 302.649 71.8026C302.831 71.9474 303.115 72.0682 303.501 72.1648L304.473 72.4034C305.058 72.5455 305.494 72.7628 305.781 73.0554C306.068 73.3452 306.211 73.7187 306.211 74.1761C306.211 74.5511 306.103 74.8864 305.887 75.1818C305.674 75.4773 305.376 75.7102 304.993 75.8807C304.609 76.0511 304.163 76.1364 303.654 76.1364C302.987 76.1364 302.434 75.9915 301.997 75.7017C301.559 75.4119 301.282 74.9886 301.166 74.4318L302.12 74.1932C302.211 74.5455 302.383 74.8097 302.636 74.9858C302.892 75.1619 303.225 75.25 303.637 75.25C304.106 75.25 304.478 75.1506 304.754 74.9517C305.032 74.75 305.172 74.5085 305.172 74.2273C305.172 74 305.092 73.8097 304.933 73.6562C304.774 73.5 304.529 73.3835 304.2 73.3068L303.109 73.0511C302.51 72.9091 302.069 72.6889 301.788 72.3906C301.51 72.0895 301.37 71.7131 301.37 71.2614C301.37 70.892 301.474 70.5653 301.681 70.2812C301.892 69.9972 302.177 69.7741 302.538 69.6122C302.902 69.4503 303.314 69.3693 303.774 69.3693C304.422 69.3693 304.93 69.5114 305.299 69.7955C305.672 70.0795 305.936 70.4545 306.092 70.9205Z" fill="black"/>
<rect width="303" height="35" transform="translate(20 95)" fill="white"/>
<path d="M20.9588 106V97.2727H24.1548C24.7741 97.2727 25.2869 97.375 25.6932 97.5795C26.0994 97.7812 26.4034 98.0554 26.6051 98.402C26.8068 98.7457 26.9077 99.1335 26.9077 99.5653C26.9077 99.929 26.8409 100.236 26.7074 100.486C26.5739 100.733 26.3949 100.932 26.1705 101.082C25.9489 101.23 25.7045 101.338 25.4375 101.406V101.491C25.7273 101.506 26.0099 101.599 26.2855 101.773C26.5639 101.943 26.794 102.186 26.9759 102.501C27.1577 102.817 27.2486 103.2 27.2486 103.652C27.2486 104.098 27.1435 104.499 26.9332 104.854C26.7259 105.206 26.4048 105.486 25.9702 105.693C25.5355 105.898 24.9801 106 24.304 106H20.9588ZM22.2756 104.871H24.1761C24.8068 104.871 25.2585 104.749 25.5312 104.504C25.804 104.26 25.9403 103.955 25.9403 103.588C25.9403 103.312 25.8707 103.06 25.7315 102.83C25.5923 102.599 25.3935 102.416 25.1349 102.28C24.8793 102.143 24.5753 102.075 24.223 102.075H22.2756V104.871ZM22.2756 101.048H24.0398C24.3352 101.048 24.6009 100.991 24.8366 100.878C25.0753 100.764 25.2642 100.605 25.4034 100.401C25.5455 100.193 25.6165 99.9489 25.6165 99.6676C25.6165 99.3068 25.4901 99.0043 25.2372 98.7599C24.9844 98.5156 24.5966 98.3935 24.0739 98.3935H22.2756V101.048ZM32.8544 103.286V99.4545H34.1328V106H32.88V104.866H32.8118C32.6612 105.216 32.4197 105.507 32.0874 105.74C31.7578 105.97 31.3473 106.085 30.8558 106.085C30.4354 106.085 30.0632 105.993 29.7393 105.808C29.4183 105.621 29.1655 105.344 28.9808 104.977C28.799 104.611 28.7081 104.158 28.7081 103.618V99.4545H29.9822V103.464C29.9822 103.911 30.1058 104.266 30.353 104.53C30.6001 104.794 30.9212 104.926 31.3161 104.926C31.5547 104.926 31.7919 104.866 32.0277 104.747C32.2663 104.628 32.4638 104.447 32.62 104.206C32.7791 103.964 32.8572 103.658 32.8544 103.286ZM40.7496 101.053L39.5948 101.257C39.5465 101.109 39.4698 100.969 39.3647 100.835C39.2624 100.702 39.1232 100.592 38.9471 100.507C38.771 100.422 38.5508 100.379 38.2866 100.379C37.9258 100.379 37.6246 100.46 37.3832 100.622C37.1417 100.781 37.021 100.987 37.021 101.24C37.021 101.459 37.1019 101.635 37.2638 101.768C37.4258 101.902 37.6871 102.011 38.0479 102.097L39.0877 102.335C39.69 102.474 40.1388 102.689 40.4343 102.979C40.7298 103.268 40.8775 103.645 40.8775 104.108C40.8775 104.5 40.7638 104.849 40.5366 105.156C40.3121 105.46 39.9982 105.699 39.5948 105.872C39.1942 106.045 38.7298 106.132 38.2013 106.132C37.4684 106.132 36.8704 105.976 36.4073 105.663C35.9442 105.348 35.6602 104.901 35.555 104.321L36.7866 104.134C36.8633 104.455 37.021 104.697 37.2596 104.862C37.4982 105.024 37.8093 105.105 38.1928 105.105C38.6104 105.105 38.9442 105.018 39.1942 104.845C39.4442 104.669 39.5692 104.455 39.5692 104.202C39.5692 103.997 39.4925 103.825 39.3391 103.686C39.1886 103.547 38.957 103.442 38.6445 103.371L37.5366 103.128C36.9258 102.989 36.4741 102.767 36.1815 102.463C35.8917 102.159 35.7468 101.774 35.7468 101.308C35.7468 100.922 35.8548 100.584 36.0707 100.294C36.2866 100.004 36.5849 99.7784 36.9656 99.6165C37.3462 99.4517 37.7823 99.3693 38.2738 99.3693C38.9812 99.3693 39.538 99.5227 39.9442 99.8295C40.3505 100.134 40.619 100.541 40.7496 101.053ZM42.2784 106V99.4545H43.5526V106H42.2784ZM42.9219 98.4446C42.7003 98.4446 42.5099 98.3707 42.3509 98.223C42.1946 98.0724 42.1165 97.8935 42.1165 97.6861C42.1165 97.4759 42.1946 97.2969 42.3509 97.1491C42.5099 96.9986 42.7003 96.9233 42.9219 96.9233C43.1435 96.9233 43.3324 96.9986 43.4886 97.1491C43.6477 97.2969 43.7273 97.4759 43.7273 97.6861C43.7273 97.8935 43.6477 98.0724 43.4886 98.223C43.3324 98.3707 43.1435 98.4446 42.9219 98.4446ZM46.5408 102.114V106H45.2667V99.4545H46.4897V100.52H46.5707C46.7212 100.173 46.957 99.8949 47.2781 99.6847C47.6019 99.4744 48.0096 99.3693 48.5011 99.3693C48.9471 99.3693 49.3377 99.4631 49.6729 99.6506C50.0082 99.8352 50.2681 100.111 50.4528 100.477C50.6374 100.844 50.7298 101.297 50.7298 101.837V106H49.4556V101.99C49.4556 101.516 49.332 101.145 49.0849 100.878C48.8377 100.608 48.4982 100.473 48.0664 100.473C47.771 100.473 47.5082 100.537 47.2781 100.665C47.0508 100.793 46.8704 100.98 46.7369 101.227C46.6062 101.472 46.5408 101.767 46.5408 102.114ZM55.2596 106.132C54.6147 106.132 54.0593 105.994 53.5934 105.719C53.1303 105.44 52.7724 105.05 52.5195 104.547C52.2695 104.041 52.1445 103.449 52.1445 102.77C52.1445 102.099 52.2695 101.509 52.5195 100.997C52.7724 100.486 53.1246 100.087 53.5763 99.7997C54.0309 99.5128 54.5621 99.3693 55.1701 99.3693C55.5394 99.3693 55.8974 99.4304 56.244 99.5526C56.5906 99.6747 56.9016 99.8665 57.1772 100.128C57.4528 100.389 57.6701 100.729 57.8292 101.146C57.9883 101.561 58.0678 102.065 58.0678 102.659V103.111H52.8647V102.156H56.8192C56.8192 101.821 56.7511 101.524 56.6147 101.266C56.4783 101.004 56.2866 100.798 56.0394 100.648C55.7951 100.497 55.5082 100.422 55.1786 100.422C54.8207 100.422 54.5082 100.51 54.2411 100.686C53.9769 100.859 53.7724 101.087 53.6275 101.368C53.4854 101.646 53.4144 101.949 53.4144 102.276V103.021C53.4144 103.459 53.4911 103.831 53.6445 104.138C53.8008 104.445 54.0181 104.679 54.2965 104.841C54.5749 105 54.9002 105.08 55.2724 105.08C55.5138 105.08 55.734 105.045 55.9329 104.977C56.1317 104.906 56.3036 104.801 56.4485 104.662C56.5934 104.523 56.7042 104.351 56.7809 104.146L57.9869 104.364C57.8903 104.719 57.717 105.03 57.467 105.297C57.2198 105.561 56.9087 105.767 56.5337 105.915C56.1616 106.06 55.7369 106.132 55.2596 106.132ZM64.3864 101.053L63.2315 101.257C63.1832 101.109 63.1065 100.969 63.0014 100.835C62.8991 100.702 62.7599 100.592 62.5838 100.507C62.4077 100.422 62.1875 100.379 61.9233 100.379C61.5625 100.379 61.2614 100.46 61.0199 100.622C60.7784 100.781 60.6577 100.987 60.6577 101.24C60.6577 101.459 60.7386 101.635 60.9006 101.768C61.0625 101.902 61.3239 102.011 61.6847 102.097L62.7244 102.335C63.3267 102.474 63.7756 102.689 64.071 102.979C64.3665 103.268 64.5142 103.645 64.5142 104.108C64.5142 104.5 64.4006 104.849 64.1733 105.156C63.9489 105.46 63.6349 105.699 63.2315 105.872C62.831 106.045 62.3665 106.132 61.8381 106.132C61.1051 106.132 60.5071 105.976 60.044 105.663C59.581 105.348 59.2969 104.901 59.1918 104.321L60.4233 104.134C60.5 104.455 60.6577 104.697 60.8963 104.862C61.1349 105.024 61.446 105.105 61.8295 105.105C62.2472 105.105 62.581 105.018 62.831 104.845C63.081 104.669 63.206 104.455 63.206 104.202C63.206 103.997 63.1293 103.825 62.9759 103.686C62.8253 103.547 62.5938 103.442 62.2812 103.371L61.1733 103.128C60.5625 102.989 60.1108 102.767 59.8182 102.463C59.5284 102.159 59.3835 101.774 59.3835 101.308C59.3835 100.922 59.4915 100.584 59.7074 100.294C59.9233 100.004 60.2216 99.7784 60.6023 99.6165C60.983 99.4517 61.419 99.3693 61.9105 99.3693C62.6179 99.3693 63.1747 99.5227 63.581 99.8295C63.9872 100.134 64.2557 100.541 64.3864 101.053ZM70.82 101.053L69.6651 101.257C69.6168 101.109 69.5401 100.969 69.435 100.835C69.3327 100.702 69.1935 100.592 69.0174 100.507C68.8413 100.422 68.6211 100.379 68.3569 100.379C67.9961 100.379 67.695 100.46 67.4535 100.622C67.212 100.781 67.0913 100.987 67.0913 101.24C67.0913 101.459 67.1722 101.635 67.3342 101.768C67.4961 101.902 67.7575 102.011 68.1183 102.097L69.158 102.335C69.7603 102.474 70.2092 102.689 70.5046 102.979C70.8001 103.268 70.9478 103.645 70.9478 104.108C70.9478 104.5 70.8342 104.849 70.6069 105.156C70.3825 105.46 70.0685 105.699 69.6651 105.872C69.2646 106.045 68.8001 106.132 68.2717 106.132C67.5387 106.132 66.9407 105.976 66.4776 105.663C66.0146 105.348 65.7305 104.901 65.6254 104.321L66.8569 104.134C66.9336 104.455 67.0913 104.697 67.3299 104.862C67.5685 105.024 67.8796 105.105 68.2631 105.105C68.6808 105.105 69.0146 105.018 69.2646 104.845C69.5146 104.669 69.6396 104.455 69.6396 104.202C69.6396 103.997 69.5629 103.825 69.4094 103.686C69.2589 103.547 69.0273 103.442 68.7148 103.371L67.6069 103.128C66.9961 102.989 66.5444 102.767 66.2518 102.463C65.962 102.159 65.8171 101.774 65.8171 101.308C65.8171 100.922 65.9251 100.584 66.141 100.294C66.3569 100.004 66.6552 99.7784 67.0359 99.6165C67.4165 99.4517 67.8526 99.3693 68.3441 99.3693C69.0515 99.3693 69.6083 99.5227 70.0146 99.8295C70.4208 100.134 70.6893 100.541 70.82 101.053ZM80.4293 101.053L79.2745 101.257C79.2262 101.109 79.1495 100.969 79.0444 100.835C78.9421 100.702 78.8029 100.592 78.6268 100.507C78.4506 100.422 78.2305 100.379 77.9663 100.379C77.6055 100.379 77.3043 100.46 77.0629 100.622C76.8214 100.781 76.7006 100.987 76.7006 101.24C76.7006 101.459 76.7816 101.635 76.9435 101.768C77.1055 101.902 77.3668 102.011 77.7276 102.097L78.7674 102.335C79.3697 102.474 79.8185 102.689 80.114 102.979C80.4094 103.268 80.5572 103.645 80.5572 104.108C80.5572 104.5 80.4435 104.849 80.2163 105.156C79.9918 105.46 79.6779 105.699 79.2745 105.872C78.8739 106.045 78.4094 106.132 77.881 106.132C77.1481 106.132 76.5501 105.976 76.087 105.663C75.6239 105.348 75.3398 104.901 75.2347 104.321L76.4663 104.134C76.543 104.455 76.7006 104.697 76.9393 104.862C77.1779 105.024 77.489 105.105 77.8725 105.105C78.2901 105.105 78.6239 105.018 78.8739 104.845C79.1239 104.669 79.2489 104.455 79.2489 104.202C79.2489 103.997 79.1722 103.825 79.0188 103.686C78.8683 103.547 78.6367 103.442 78.3242 103.371L77.2163 103.128C76.6055 102.989 76.1538 102.767 75.8612 102.463C75.5714 102.159 75.4265 101.774 75.4265 101.308C75.4265 100.922 75.5344 100.584 75.7504 100.294C75.9663 100.004 76.2646 99.7784 76.6452 99.6165C77.0259 99.4517 77.462 99.3693 77.9535 99.3693C78.6609 99.3693 79.2177 99.5227 79.6239 99.8295C80.0302 100.134 80.2987 100.541 80.4293 101.053ZM86.1044 103.286V99.4545H87.3828V106H86.13V104.866H86.0618C85.9112 105.216 85.6697 105.507 85.3374 105.74C85.0078 105.97 84.5973 106.085 84.1058 106.085C83.6854 106.085 83.3132 105.993 82.9893 105.808C82.6683 105.621 82.4155 105.344 82.2308 104.977C82.049 104.611 81.9581 104.158 81.9581 103.618V99.4545H83.2322V103.464C83.2322 103.911 83.3558 104.266 83.603 104.53C83.8501 104.794 84.1712 104.926 84.5661 104.926C84.8047 104.926 85.0419 104.866 85.2777 104.747C85.5163 104.628 85.7138 104.447 85.87 104.206C86.0291 103.964 86.1072 103.658 86.1044 103.286ZM89.0948 106V99.4545H90.3263V100.494H90.3945C90.5138 100.142 90.7241 99.8651 91.0252 99.6634C91.3292 99.4588 91.6729 99.3565 92.0565 99.3565C92.136 99.3565 92.2298 99.3594 92.3377 99.3651C92.4485 99.3707 92.5352 99.3778 92.5977 99.3864V100.605C92.5465 100.591 92.4556 100.575 92.3249 100.558C92.1942 100.538 92.0636 100.528 91.9329 100.528C91.6317 100.528 91.3633 100.592 91.1275 100.72C90.8945 100.845 90.7099 101.02 90.5735 101.244C90.4371 101.466 90.369 101.719 90.369 102.003V106H89.0948ZM99.4989 99.4545L97.1254 106H95.7617L93.3839 99.4545H94.7518L96.4094 104.491H96.4776L98.131 99.4545H99.4989ZM103.295 106.132C102.65 106.132 102.094 105.994 101.629 105.719C101.165 105.44 100.808 105.05 100.555 104.547C100.305 104.041 100.18 103.449 100.18 102.77C100.18 102.099 100.305 101.509 100.555 100.997C100.808 100.486 101.16 100.087 101.612 99.7997C102.066 99.5128 102.597 99.3693 103.205 99.3693C103.575 99.3693 103.933 99.4304 104.279 99.5526C104.626 99.6747 104.937 99.8665 105.212 100.128C105.488 100.389 105.705 100.729 105.864 101.146C106.023 101.561 106.103 102.065 106.103 102.659V103.111H100.9V102.156H104.854C104.854 101.821 104.786 101.524 104.65 101.266C104.513 101.004 104.322 100.798 104.075 100.648C103.83 100.497 103.543 100.422 103.214 100.422C102.856 100.422 102.543 100.51 102.276 100.686C102.012 100.859 101.808 101.087 101.663 101.368C101.521 101.646 101.45 101.949 101.45 102.276V103.021C101.45 103.459 101.526 103.831 101.68 104.138C101.836 104.445 102.053 104.679 102.332 104.841C102.61 105 102.935 105.08 103.308 105.08C103.549 105.08 103.769 105.045 103.968 104.977C104.167 104.906 104.339 104.801 104.484 104.662C104.629 104.523 104.739 104.351 104.816 104.146L106.022 104.364C105.925 104.719 105.752 105.03 105.502 105.297C105.255 105.561 104.944 105.767 104.569 105.915C104.197 106.06 103.772 106.132 103.295 106.132ZM108.135 108.455C107.944 108.455 107.771 108.439 107.615 108.408C107.458 108.379 107.342 108.348 107.265 108.314L107.572 107.27C107.805 107.332 108.012 107.359 108.194 107.351C108.376 107.342 108.537 107.274 108.676 107.146C108.818 107.018 108.943 106.81 109.051 106.52L109.208 106.085L106.814 99.4545H108.177L109.835 104.534H109.903L111.561 99.4545H112.929L110.231 106.874C110.106 107.214 109.947 107.503 109.754 107.739C109.561 107.977 109.331 108.156 109.064 108.276C108.797 108.395 108.487 108.455 108.135 108.455Z" fill="black"/>
<path d="M302.176 98.2489L305.425 95L306.353 95.9284L303.105 99.1764L306.353 102.425L305.425 103.353L302.176 100.105L298.928 103.353L298 102.425L301.249 99.1764L298 95.9284L298.928 95L302.176 98.2489Z" fill="#979FB4"/>
<path d="M20.8807 127V119.727H25.2415V120.509H21.7614V122.966H24.9148V123.747H21.7614V127H20.8807ZM28.4517 127.114C27.9593 127.114 27.5272 126.996 27.1555 126.762C26.7862 126.528 26.4974 126.2 26.2891 125.778C26.0831 125.357 25.9801 124.865 25.9801 124.301C25.9801 123.733 26.0831 123.237 26.2891 122.813C26.4974 122.389 26.7862 122.06 27.1555 121.826C27.5272 121.592 27.9593 121.474 28.4517 121.474C28.9441 121.474 29.375 121.592 29.7443 121.826C30.116 122.06 30.4048 122.389 30.6108 122.813C30.8191 123.237 30.9233 123.733 30.9233 124.301C30.9233 124.865 30.8191 125.357 30.6108 125.778C30.4048 126.2 30.116 126.528 29.7443 126.762C29.375 126.996 28.9441 127.114 28.4517 127.114ZM28.4517 126.361C28.8258 126.361 29.1335 126.265 29.375 126.073C29.6165 125.881 29.7952 125.629 29.9112 125.317C30.0272 125.004 30.0852 124.666 30.0852 124.301C30.0852 123.937 30.0272 123.597 29.9112 123.282C29.7952 122.967 29.6165 122.713 29.375 122.518C29.1335 122.324 28.8258 122.227 28.4517 122.227C28.0777 122.227 27.7699 122.324 27.5284 122.518C27.2869 122.713 27.1082 122.967 26.9922 123.282C26.8762 123.597 26.8182 123.937 26.8182 124.301C26.8182 124.666 26.8762 125.004 26.9922 125.317C27.1082 125.629 27.2869 125.881 27.5284 126.073C27.7699 126.265 28.0777 126.361 28.4517 126.361ZM32.2026 127V121.545H33.0123V122.369H33.0691C33.1685 122.099 33.3484 121.88 33.6088 121.712C33.8693 121.544 34.1628 121.46 34.4895 121.46C34.5511 121.46 34.628 121.461 34.7203 121.464C34.8127 121.466 34.8825 121.47 34.9299 121.474V122.327C34.9015 122.32 34.8364 122.309 34.7346 122.295C34.6351 122.278 34.5298 122.27 34.4185 122.27C34.1534 122.27 33.9166 122.326 33.7083 122.437C33.5023 122.546 33.339 122.697 33.2182 122.891C33.0998 123.083 33.0407 123.302 33.0407 123.548V127H32.2026ZM35.9233 127V121.545H36.733V122.398H36.804C36.9176 122.107 37.1011 121.88 37.3544 121.719C37.6077 121.556 37.9119 121.474 38.267 121.474C38.6269 121.474 38.9264 121.556 39.1655 121.719C39.407 121.88 39.5952 122.107 39.7301 122.398H39.7869C39.9266 122.116 40.1361 121.892 40.4155 121.727C40.6948 121.558 41.0298 121.474 41.4205 121.474C41.9081 121.474 42.3071 121.627 42.6172 121.933C42.9273 122.236 43.0824 122.708 43.0824 123.349V127H42.2443V123.349C42.2443 122.947 42.1342 122.659 41.9141 122.487C41.6939 122.314 41.4347 122.227 41.1364 122.227C40.7528 122.227 40.4557 122.343 40.245 122.575C40.0343 122.805 39.929 123.096 39.929 123.449V127H39.0767V123.264C39.0767 122.954 38.9761 122.704 38.7749 122.515C38.5736 122.323 38.3144 122.227 37.9972 122.227C37.7794 122.227 37.5758 122.285 37.3864 122.401C37.1993 122.517 37.0478 122.678 36.9318 122.884C36.8182 123.088 36.7614 123.323 36.7614 123.591V127H35.9233ZM49.7852 127H47.5408V119.727H49.8846C50.5901 119.727 51.1938 119.873 51.6957 120.164C52.1976 120.453 52.5823 120.868 52.8498 121.411C53.1173 121.95 53.2511 122.597 53.2511 123.349C53.2511 124.107 53.1161 124.759 52.8462 125.306C52.5763 125.851 52.1834 126.27 51.6673 126.563C51.1512 126.854 50.5238 127 49.7852 127ZM48.4215 126.219H49.7283C50.3297 126.219 50.828 126.103 51.2234 125.871C51.6187 125.639 51.9135 125.308 52.1076 124.88C52.3017 124.451 52.3988 123.941 52.3988 123.349C52.3988 122.762 52.3029 122.257 52.1112 121.833C51.9194 121.407 51.6329 121.08 51.2518 120.853C50.8706 120.623 50.396 120.509 49.8278 120.509H48.4215V126.219ZM56.9016 127.114C56.3761 127.114 55.9227 126.998 55.5415 126.766C55.1628 126.531 54.8704 126.205 54.6644 125.786C54.4608 125.364 54.359 124.874 54.359 124.315C54.359 123.757 54.4608 123.264 54.6644 122.838C54.8704 122.41 55.1568 122.076 55.5238 121.837C55.8931 121.595 56.324 121.474 56.8164 121.474C57.1005 121.474 57.381 121.522 57.658 121.616C57.935 121.711 58.1871 121.865 58.4144 122.078C58.6417 122.289 58.8228 122.568 58.9577 122.916C59.0927 123.264 59.1602 123.693 59.1602 124.202V124.557H54.9556V123.832H58.3079C58.3079 123.525 58.2463 123.25 58.1232 123.009C58.0025 122.767 57.8297 122.576 57.6048 122.437C57.3822 122.297 57.1194 122.227 56.8164 122.227C56.4826 122.227 56.1938 122.31 55.9499 122.476C55.7085 122.639 55.5226 122.852 55.3924 123.115C55.2622 123.378 55.1971 123.66 55.1971 123.96V124.443C55.1971 124.855 55.2681 125.204 55.4102 125.491C55.5546 125.775 55.7546 125.991 56.0103 126.141C56.266 126.287 56.5631 126.361 56.9016 126.361C57.1218 126.361 57.3207 126.33 57.4982 126.268C57.6781 126.205 57.8332 126.11 57.9634 125.984C58.0936 125.857 58.1942 125.698 58.2653 125.509L59.0749 125.736C58.9897 126.01 58.8465 126.252 58.6452 126.46C58.444 126.666 58.1954 126.827 57.8995 126.943C57.6036 127.057 57.271 127.114 56.9016 127.114ZM64.2987 122.767L63.5458 122.98C63.4985 122.855 63.4286 122.733 63.3363 122.614C63.2463 122.494 63.1232 122.394 62.967 122.316C62.8107 122.238 62.6107 122.199 62.3668 122.199C62.033 122.199 61.7549 122.276 61.5323 122.43C61.3121 122.581 61.2021 122.774 61.2021 123.009C61.2021 123.217 61.2778 123.381 61.4293 123.502C61.5808 123.623 61.8176 123.723 62.1396 123.804L62.9492 124.003C63.4369 124.121 63.8003 124.302 64.0394 124.546C64.2785 124.788 64.3981 125.099 64.3981 125.48C64.3981 125.793 64.3081 126.072 64.1282 126.318C63.9506 126.564 63.7021 126.759 63.3825 126.901C63.0629 127.043 62.6912 127.114 62.2674 127.114C61.7111 127.114 61.2506 126.993 60.886 126.751C60.5214 126.51 60.2906 126.157 60.1935 125.693L60.989 125.494C61.0647 125.788 61.208 126.008 61.4187 126.155C61.6317 126.302 61.9099 126.375 62.2532 126.375C62.6438 126.375 62.954 126.292 63.1836 126.126C63.4156 125.958 63.5316 125.757 63.5316 125.523C63.5316 125.333 63.4653 125.175 63.3327 125.047C63.2002 124.917 62.9966 124.82 62.7219 124.756L61.8129 124.543C61.3133 124.424 60.9464 124.241 60.712 123.992C60.48 123.741 60.364 123.428 60.364 123.051C60.364 122.743 60.4504 122.471 60.6232 122.234C60.7984 121.998 61.0363 121.812 61.337 121.677C61.64 121.542 61.9833 121.474 62.3668 121.474C62.9066 121.474 63.3304 121.593 63.6381 121.83C63.9483 122.066 64.1684 122.379 64.2987 122.767ZM67.8755 127.114C67.3642 127.114 66.9238 126.993 66.5545 126.751C66.1852 126.51 65.9011 126.177 65.7022 125.754C65.5034 125.33 65.4039 124.846 65.4039 124.301C65.4039 123.747 65.5057 123.258 65.7093 122.835C65.9153 122.408 66.2018 122.076 66.5687 121.837C66.938 121.595 67.3689 121.474 67.8613 121.474C68.2449 121.474 68.5905 121.545 68.8983 121.688C69.206 121.83 69.4582 122.028 69.6547 122.284C69.8511 122.54 69.9731 122.838 70.0204 123.179H69.1824C69.1184 122.93 68.9764 122.71 68.7562 122.518C68.5384 122.324 68.2449 122.227 67.8755 122.227C67.5488 122.227 67.2624 122.312 67.0162 122.483C66.7723 122.651 66.5817 122.889 66.4444 123.197C66.3095 123.502 66.242 123.861 66.242 124.273C66.242 124.694 66.3083 125.061 66.4409 125.374C66.5758 125.686 66.7652 125.929 67.0091 126.102C67.2553 126.274 67.5441 126.361 67.8755 126.361C68.0933 126.361 68.291 126.323 68.4686 126.247C68.6461 126.171 68.7965 126.062 68.9196 125.92C69.0427 125.778 69.1303 125.608 69.1824 125.409H70.0204C69.9731 125.731 69.8559 126.021 69.6689 126.279C69.4842 126.535 69.2392 126.738 68.9338 126.89C68.6307 127.039 68.278 127.114 67.8755 127.114ZM71.2456 127V121.545H72.0552V122.369H72.112C72.2115 122.099 72.3914 121.88 72.6518 121.712C72.9122 121.544 73.2058 121.46 73.5325 121.46C73.594 121.46 73.671 121.461 73.7633 121.464C73.8556 121.466 73.9255 121.47 73.9728 121.474V122.327C73.9444 122.32 73.8793 122.309 73.7775 122.295C73.6781 122.278 73.5727 122.27 73.4615 122.27C73.1963 122.27 72.9596 122.326 72.7512 122.437C72.5453 122.546 72.3819 122.697 72.2612 122.891C72.1428 123.083 72.0836 123.302 72.0836 123.548V127H71.2456ZM74.9663 127V121.545H75.8043V127H74.9663ZM75.3924 120.636C75.229 120.636 75.0882 120.581 74.9698 120.469C74.8538 120.358 74.7958 120.224 74.7958 120.068C74.7958 119.912 74.8538 119.778 74.9698 119.667C75.0882 119.556 75.229 119.5 75.3924 119.5C75.5558 119.5 75.6954 119.556 75.8114 119.667C75.9298 119.778 75.989 119.912 75.989 120.068C75.989 120.224 75.9298 120.358 75.8114 120.469C75.6954 120.581 75.5558 120.636 75.3924 120.636ZM77.3393 129.045V121.545H78.149V122.412H78.2484C78.31 122.317 78.3952 122.196 78.5041 122.05C78.6154 121.901 78.774 121.768 78.9799 121.652C79.1883 121.534 79.47 121.474 79.8251 121.474C80.2844 121.474 80.6892 121.589 81.0396 121.819C81.39 122.049 81.6634 122.374 81.8599 122.795C82.0564 123.217 82.1547 123.714 82.1547 124.287C82.1547 124.865 82.0564 125.365 81.8599 125.789C81.6634 126.21 81.3912 126.537 81.0431 126.769C80.6951 126.999 80.2939 127.114 79.8393 127.114C79.4889 127.114 79.2084 127.056 78.9977 126.94C78.787 126.821 78.6248 126.687 78.5112 126.538C78.3975 126.387 78.31 126.261 78.2484 126.162H78.1774V129.045H77.3393ZM78.1632 124.273C78.1632 124.685 78.2235 125.048 78.3443 125.363C78.465 125.675 78.6414 125.92 78.8734 126.098C79.1054 126.273 79.3895 126.361 79.7257 126.361C80.0761 126.361 80.3684 126.268 80.6028 126.084C80.8395 125.897 81.0171 125.646 81.1355 125.331C81.2562 125.014 81.3166 124.661 81.3166 124.273C81.3166 123.889 81.2574 123.544 81.139 123.236C81.023 122.926 80.8467 122.681 80.6099 122.501C80.3755 122.318 80.0808 122.227 79.7257 122.227C79.3848 122.227 79.0983 122.314 78.8663 122.487C78.6343 122.657 78.4591 122.896 78.3407 123.204C78.2224 123.509 78.1632 123.866 78.1632 124.273ZM85.8052 121.545V122.256H82.9785V121.545H85.8052ZM83.8024 120.239H84.6404V125.438C84.6404 125.674 84.6748 125.852 84.7434 125.97C84.8145 126.086 84.9044 126.164 85.0133 126.205C85.1246 126.242 85.2418 126.261 85.3649 126.261C85.4572 126.261 85.533 126.257 85.5922 126.247C85.6513 126.235 85.6987 126.226 85.7342 126.219L85.9047 126.972C85.8478 126.993 85.7685 127.014 85.6667 127.036C85.5649 127.059 85.4359 127.071 85.2797 127.071C85.0429 127.071 84.8109 127.02 84.5836 126.918C84.3587 126.817 84.1717 126.661 84.0225 126.453C83.8758 126.245 83.8024 125.982 83.8024 125.665V120.239ZM87.0659 127V121.545H87.9039V127H87.0659ZM87.492 120.636C87.3287 120.636 87.1878 120.581 87.0694 120.469C86.9534 120.358 86.8954 120.224 86.8954 120.068C86.8954 119.912 86.9534 119.778 87.0694 119.667C87.1878 119.556 87.3287 119.5 87.492 119.5C87.6554 119.5 87.795 119.556 87.911 119.667C88.0294 119.778 88.0886 119.912 88.0886 120.068C88.0886 120.224 88.0294 120.358 87.911 120.469C87.795 120.581 87.6554 120.636 87.492 120.636ZM91.6548 127.114C91.1624 127.114 90.7304 126.996 90.3587 126.762C89.9893 126.528 89.7005 126.2 89.4922 125.778C89.2862 125.357 89.1832 124.865 89.1832 124.301C89.1832 123.733 89.2862 123.237 89.4922 122.813C89.7005 122.389 89.9893 122.06 90.3587 121.826C90.7304 121.592 91.1624 121.474 91.6548 121.474C92.1473 121.474 92.5781 121.592 92.9474 121.826C93.3191 122.06 93.608 122.389 93.8139 122.813C94.0223 123.237 94.1264 123.733 94.1264 124.301C94.1264 124.865 94.0223 125.357 93.8139 125.778C93.608 126.2 93.3191 126.528 92.9474 126.762C92.5781 126.996 92.1473 127.114 91.6548 127.114ZM91.6548 126.361C92.0289 126.361 92.3366 126.265 92.5781 126.073C92.8196 125.881 92.9983 125.629 93.1143 125.317C93.2304 125.004 93.2884 124.666 93.2884 124.301C93.2884 123.937 93.2304 123.597 93.1143 123.282C92.9983 122.967 92.8196 122.713 92.5781 122.518C92.3366 122.324 92.0289 122.227 91.6548 122.227C91.2808 122.227 90.973 122.324 90.7315 122.518C90.4901 122.713 90.3113 122.967 90.1953 123.282C90.0793 123.597 90.0213 123.937 90.0213 124.301C90.0213 124.666 90.0793 125.004 90.1953 125.317C90.3113 125.629 90.4901 125.881 90.7315 126.073C90.973 126.265 91.2808 126.361 91.6548 126.361ZM96.2438 123.719V127H95.4057V121.545H96.2154V122.398H96.2864C96.4142 122.121 96.6084 121.898 96.8688 121.73C97.1292 121.56 97.4654 121.474 97.8773 121.474C98.2466 121.474 98.5698 121.55 98.8468 121.702C99.1238 121.851 99.3392 122.078 99.4931 122.384C99.647 122.687 99.7239 123.07 99.7239 123.534V127H98.8858V123.591C98.8858 123.162 98.7746 122.829 98.552 122.589C98.3295 122.348 98.0241 122.227 97.6358 122.227C97.3683 122.227 97.1292 122.285 96.9185 122.401C96.7102 122.517 96.5456 122.687 96.4249 122.909C96.3042 123.132 96.2438 123.402 96.2438 123.719Z" fill="black"/>
<mask id="path-11-inside-1_8_7205" fill="white">
<path d="M20 146H196V170H20V146Z"/>
</mask>
<path d="M20 146H196V170H20V146Z" fill="#F2F4F5"/>
<path d="M196 170V169H20V170V171H196V170Z" fill="#DDE2E5" mask="url(#path-11-inside-1_8_7205)"/>
<path d="M32.642 162L30.2557 153.273H31.3295L33.1534 160.381H33.2386L35.0966 153.273H36.2898L38.1477 160.381H38.233L40.0568 153.273H41.1307L38.7443 162H37.6534L35.7273 155.045H35.6591L33.733 162H32.642ZM44.3608 162.136C43.7699 162.136 43.2514 161.996 42.8054 161.714C42.3622 161.433 42.0156 161.04 41.7656 160.534C41.5185 160.028 41.3949 159.437 41.3949 158.761C41.3949 158.08 41.5185 157.484 41.7656 156.976C42.0156 156.467 42.3622 156.072 42.8054 155.791C43.2514 155.51 43.7699 155.369 44.3608 155.369C44.9517 155.369 45.4688 155.51 45.9119 155.791C46.358 156.072 46.7045 156.467 46.9517 156.976C47.2017 157.484 47.3267 158.08 47.3267 158.761C47.3267 159.437 47.2017 160.028 46.9517 160.534C46.7045 161.04 46.358 161.433 45.9119 161.714C45.4688 161.996 44.9517 162.136 44.3608 162.136ZM44.3608 161.233C44.8097 161.233 45.179 161.118 45.4688 160.888C45.7585 160.658 45.973 160.355 46.1122 159.98C46.2514 159.605 46.321 159.199 46.321 158.761C46.321 158.324 46.2514 157.916 46.1122 157.538C45.973 157.161 45.7585 156.855 45.4688 156.622C45.179 156.389 44.8097 156.273 44.3608 156.273C43.9119 156.273 43.5426 156.389 43.2528 156.622C42.9631 156.855 42.7486 157.161 42.6094 157.538C42.4702 157.916 42.4006 158.324 42.4006 158.761C42.4006 159.199 42.4702 159.605 42.6094 159.98C42.7486 160.355 42.9631 160.658 43.2528 160.888C43.5426 161.118 43.9119 161.233 44.3608 161.233ZM52.9869 159.324V155.455H53.9925V162H52.9869V160.892H52.9187C52.7653 161.224 52.5266 161.507 52.2028 161.74C51.8789 161.97 51.4698 162.085 50.9755 162.085C50.5664 162.085 50.2028 161.996 49.8846 161.817C49.5664 161.635 49.3164 161.362 49.1346 160.999C48.9528 160.632 48.8619 160.17 48.8619 159.614V155.455H49.8675V159.545C49.8675 160.023 50.0011 160.403 50.2681 160.688C50.538 160.972 50.8817 161.114 51.2994 161.114C51.5494 161.114 51.8036 161.05 52.0621 160.922C52.3235 160.794 52.5423 160.598 52.7184 160.334C52.8974 160.07 52.9869 159.733 52.9869 159.324ZM56.8402 153.273V162H55.8345V153.273H56.8402ZM61.1538 162.136C60.6083 162.136 60.1268 161.999 59.7092 161.723C59.2915 161.445 58.9648 161.053 58.729 160.547C58.4933 160.038 58.3754 159.438 58.3754 158.744C58.3754 158.057 58.4933 157.46 58.729 156.955C58.9648 156.449 59.293 156.058 59.7134 155.783C60.1339 155.507 60.6197 155.369 61.1708 155.369C61.5969 155.369 61.9336 155.44 62.1808 155.582C62.4308 155.722 62.6211 155.881 62.7518 156.06C62.8853 156.236 62.989 156.381 63.0629 156.494H63.1481V153.273H64.1538V162H63.1822V160.994H63.0629C62.989 161.114 62.8839 161.264 62.7475 161.446C62.6112 161.625 62.4165 161.786 62.1637 161.928C61.9109 162.067 61.5742 162.136 61.1538 162.136ZM61.2901 161.233C61.6935 161.233 62.0344 161.128 62.3129 160.918C62.5913 160.705 62.8029 160.411 62.9478 160.036C63.0927 159.658 63.1651 159.222 63.1651 158.727C63.1651 158.239 63.0941 157.811 62.9521 157.445C62.81 157.075 62.5998 156.788 62.3214 156.584C62.043 156.376 61.6992 156.273 61.2901 156.273C60.864 156.273 60.5089 156.382 60.2248 156.601C59.9435 156.817 59.7319 157.111 59.5898 157.483C59.4506 157.852 59.381 158.267 59.381 158.727C59.381 159.193 59.4521 159.616 59.5941 159.997C59.739 160.375 59.9521 160.676 60.2333 160.901C60.5174 161.122 60.8697 161.233 61.2901 161.233ZM70.158 164.455C69.9876 164.455 69.8356 164.44 69.7021 164.412C69.5685 164.386 69.4762 164.361 69.4251 164.335L69.6808 163.449C69.9251 163.511 70.141 163.534 70.3285 163.517C70.516 163.5 70.6822 163.416 70.8271 163.266C70.9748 163.118 71.1097 162.878 71.2319 162.545L71.4194 162.034L68.9989 155.455H70.0898L71.8967 160.67H71.9648L73.7717 155.455H74.8626L72.0842 162.955C71.9592 163.293 71.8043 163.572 71.6197 163.794C71.435 164.018 71.2205 164.185 70.9762 164.293C70.7347 164.401 70.462 164.455 70.158 164.455ZM78.6147 162.136C78.0238 162.136 77.5053 161.996 77.0593 161.714C76.6161 161.433 76.2695 161.04 76.0195 160.534C75.7724 160.028 75.6488 159.437 75.6488 158.761C75.6488 158.08 75.7724 157.484 76.0195 156.976C76.2695 156.467 76.6161 156.072 77.0593 155.791C77.5053 155.51 78.0238 155.369 78.6147 155.369C79.2056 155.369 79.7227 155.51 80.1658 155.791C80.6119 156.072 80.9585 156.467 81.2056 156.976C81.4556 157.484 81.5806 158.08 81.5806 158.761C81.5806 159.437 81.4556 160.028 81.2056 160.534C80.9585 161.04 80.6119 161.433 80.1658 161.714C79.7227 161.996 79.2056 162.136 78.6147 162.136ZM78.6147 161.233C79.0636 161.233 79.4329 161.118 79.7227 160.888C80.0124 160.658 80.2269 160.355 80.3661 159.98C80.5053 159.605 80.5749 159.199 80.5749 158.761C80.5749 158.324 80.5053 157.916 80.3661 157.538C80.2269 157.161 80.0124 156.855 79.7227 156.622C79.4329 156.389 79.0636 156.273 78.6147 156.273C78.1658 156.273 77.7965 156.389 77.5067 156.622C77.217 156.855 77.0025 157.161 76.8633 157.538C76.7241 157.916 76.6545 158.324 76.6545 158.761C76.6545 159.199 76.7241 159.605 76.8633 159.98C77.0025 160.355 77.217 160.658 77.5067 160.888C77.7965 161.118 78.1658 161.233 78.6147 161.233ZM87.2408 159.324V155.455H88.2464V162H87.2408V160.892H87.1726C87.0192 161.224 86.7805 161.507 86.4567 161.74C86.1328 161.97 85.7237 162.085 85.2294 162.085C84.8203 162.085 84.4567 161.996 84.1385 161.817C83.8203 161.635 83.5703 161.362 83.3885 160.999C83.2067 160.632 83.1158 160.17 83.1158 159.614V155.455H84.1214V159.545C84.1214 160.023 84.255 160.403 84.522 160.688C84.7919 160.972 85.1357 161.114 85.5533 161.114C85.8033 161.114 86.0575 161.05 86.3161 160.922C86.5774 160.794 86.7962 160.598 86.9723 160.334C87.1513 160.07 87.2408 159.733 87.2408 159.324ZM93.5998 162V153.273H94.6055V156.494H94.6907C94.7646 156.381 94.8668 156.236 94.9975 156.06C95.131 155.881 95.3214 155.722 95.5685 155.582C95.8185 155.44 96.1566 155.369 96.5827 155.369C97.1339 155.369 97.6197 155.507 98.0401 155.783C98.4606 156.058 98.7887 156.449 99.0245 156.955C99.2603 157.46 99.3782 158.057 99.3782 158.744C99.3782 159.438 99.2603 160.038 99.0245 160.547C98.7887 161.053 98.462 161.445 98.0444 161.723C97.6268 161.999 97.1452 162.136 96.5998 162.136C96.1793 162.136 95.8427 162.067 95.5898 161.928C95.337 161.786 95.1424 161.625 95.006 161.446C94.8697 161.264 94.7646 161.114 94.6907 160.994H94.5714V162H93.5998ZM94.5884 158.727C94.5884 159.222 94.6609 159.658 94.8058 160.036C94.9506 160.411 95.1623 160.705 95.4407 160.918C95.7191 161.128 96.06 161.233 96.4634 161.233C96.8839 161.233 97.2347 161.122 97.516 160.901C97.8001 160.676 98.0131 160.375 98.1552 159.997C98.3001 159.616 98.3725 159.193 98.3725 158.727C98.3725 158.267 98.3015 157.852 98.1594 157.483C98.0202 157.111 97.8086 156.817 97.5245 156.601C97.2433 156.382 96.8896 156.273 96.4634 156.273C96.0543 156.273 95.7106 156.376 95.4322 156.584C95.1538 156.788 94.9435 157.075 94.8015 157.445C94.6594 157.811 94.5884 158.239 94.5884 158.727ZM105.042 159.324V155.455H106.047V162H105.042V160.892H104.973C104.82 161.224 104.581 161.507 104.257 161.74C103.934 161.97 103.525 162.085 103.03 162.085C102.621 162.085 102.257 161.996 101.939 161.817C101.621 161.635 101.371 161.362 101.189 160.999C101.007 160.632 100.917 160.17 100.917 159.614V155.455H101.922V159.545C101.922 160.023 102.056 160.403 102.323 160.688C102.593 160.972 102.936 161.114 103.354 161.114C103.604 161.114 103.858 161.05 104.117 160.922C104.378 160.794 104.597 160.598 104.773 160.334C104.952 160.07 105.042 159.733 105.042 159.324ZM108.537 164.455C108.366 164.455 108.214 164.44 108.081 164.412C107.947 164.386 107.855 164.361 107.804 164.335L108.06 163.449C108.304 163.511 108.52 163.534 108.707 163.517C108.895 163.5 109.061 163.416 109.206 163.266C109.354 163.118 109.489 162.878 109.611 162.545L109.798 162.034L107.378 155.455H108.469L110.276 160.67H110.344L112.151 155.455H113.241L110.463 162.955C110.338 163.293 110.183 163.572 109.999 163.794C109.814 164.018 109.599 164.185 109.355 164.293C109.114 164.401 108.841 164.455 108.537 164.455ZM119.87 162.153C119.455 162.153 119.079 162.075 118.741 161.919C118.403 161.76 118.134 161.531 117.935 161.233C117.737 160.932 117.637 160.568 117.637 160.142C117.637 159.767 117.711 159.463 117.859 159.23C118.006 158.994 118.204 158.81 118.451 158.676C118.698 158.543 118.971 158.443 119.269 158.378C119.57 158.31 119.873 158.256 120.177 158.216C120.575 158.165 120.897 158.126 121.144 158.101C121.394 158.072 121.576 158.026 121.69 157.96C121.806 157.895 121.864 157.781 121.864 157.619V157.585C121.864 157.165 121.749 156.838 121.519 156.605C121.292 156.372 120.947 156.256 120.484 156.256C120.004 156.256 119.627 156.361 119.354 156.571C119.082 156.781 118.89 157.006 118.779 157.244L117.825 156.903C117.995 156.506 118.222 156.196 118.506 155.974C118.793 155.75 119.106 155.594 119.444 155.506C119.785 155.415 120.12 155.369 120.45 155.369C120.66 155.369 120.901 155.395 121.174 155.446C121.45 155.494 121.715 155.595 121.971 155.749C122.229 155.902 122.444 156.134 122.614 156.443C122.785 156.753 122.87 157.168 122.87 157.688V162H121.864V161.114H121.813C121.745 161.256 121.631 161.408 121.472 161.57C121.313 161.732 121.102 161.869 120.837 161.983C120.573 162.097 120.251 162.153 119.87 162.153ZM120.023 161.25C120.421 161.25 120.756 161.172 121.029 161.016C121.305 160.859 121.512 160.658 121.651 160.411C121.793 160.163 121.864 159.903 121.864 159.631V158.71C121.822 158.761 121.728 158.808 121.583 158.851C121.441 158.891 121.276 158.926 121.089 158.957C120.904 158.986 120.724 159.011 120.548 159.034C120.374 159.054 120.234 159.071 120.126 159.085C119.864 159.119 119.62 159.175 119.393 159.251C119.168 159.325 118.987 159.437 118.847 159.588C118.711 159.736 118.643 159.937 118.643 160.193C118.643 160.543 118.772 160.807 119.031 160.986C119.292 161.162 119.623 161.25 120.023 161.25ZM130.995 155.455V156.307H127.467V155.455H130.995ZM128.524 162V154.551C128.524 154.176 128.612 153.864 128.788 153.614C128.964 153.364 129.193 153.176 129.474 153.051C129.755 152.926 130.052 152.864 130.365 152.864C130.612 152.864 130.814 152.884 130.97 152.923C131.126 152.963 131.243 153 131.319 153.034L131.029 153.903C130.978 153.886 130.907 153.865 130.816 153.839C130.728 153.814 130.612 153.801 130.467 153.801C130.135 153.801 129.895 153.885 129.747 154.053C129.602 154.22 129.529 154.466 129.529 154.79V162H128.524ZM133.411 153.273V162H132.405V153.273H133.411ZM135.9 164.455C135.73 164.455 135.578 164.44 135.444 164.412C135.311 164.386 135.218 164.361 135.167 164.335L135.423 163.449C135.667 163.511 135.883 163.534 136.071 163.517C136.258 163.5 136.424 163.416 136.569 163.266C136.717 163.118 136.852 162.878 136.974 162.545L137.162 162.034L134.741 155.455H135.832L137.639 160.67H137.707L139.514 155.455H140.605L137.826 162.955C137.701 163.293 137.547 163.572 137.362 163.794C137.177 164.018 136.963 164.185 136.718 164.293C136.477 164.401 136.204 164.455 135.9 164.455ZM141.932 162V155.455H142.938V162H141.932ZM142.444 154.364C142.248 154.364 142.078 154.297 141.936 154.163C141.797 154.03 141.728 153.869 141.728 153.682C141.728 153.494 141.797 153.334 141.936 153.2C142.078 153.067 142.248 153 142.444 153C142.64 153 142.807 153.067 142.946 153.2C143.088 153.334 143.159 153.494 143.159 153.682C143.159 153.869 143.088 154.03 142.946 154.163C142.807 154.297 142.64 154.364 142.444 154.364ZM145.786 158.062V162H144.78V155.455H145.751V156.477H145.837C145.99 156.145 146.223 155.878 146.536 155.676C146.848 155.472 147.251 155.369 147.746 155.369C148.189 155.369 148.577 155.46 148.909 155.642C149.241 155.821 149.5 156.094 149.685 156.46C149.869 156.824 149.962 157.284 149.962 157.841V162H148.956V157.909C148.956 157.395 148.822 156.994 148.555 156.707C148.288 156.418 147.922 156.273 147.456 156.273C147.135 156.273 146.848 156.342 146.595 156.482C146.345 156.621 146.148 156.824 146.003 157.091C145.858 157.358 145.786 157.682 145.786 158.062ZM154.441 164.591C153.956 164.591 153.538 164.528 153.189 164.403C152.839 164.281 152.548 164.119 152.315 163.918C152.085 163.719 151.902 163.506 151.765 163.278L152.566 162.716C152.657 162.835 152.772 162.972 152.912 163.125C153.051 163.281 153.241 163.416 153.483 163.53C153.727 163.646 154.047 163.705 154.441 163.705C154.97 163.705 155.406 163.577 155.75 163.321C156.093 163.065 156.265 162.665 156.265 162.119V160.79H156.18C156.106 160.909 156.001 161.057 155.865 161.233C155.731 161.406 155.538 161.561 155.285 161.697C155.035 161.831 154.697 161.898 154.271 161.898C153.743 161.898 153.268 161.773 152.848 161.523C152.43 161.273 152.099 160.909 151.855 160.432C151.613 159.955 151.493 159.375 151.493 158.693C151.493 158.023 151.61 157.439 151.846 156.942C152.082 156.442 152.41 156.055 152.831 155.783C153.251 155.507 153.737 155.369 154.288 155.369C154.714 155.369 155.052 155.44 155.302 155.582C155.555 155.722 155.748 155.881 155.882 156.06C156.018 156.236 156.123 156.381 156.197 156.494H156.299V155.455H157.271V162.188C157.271 162.75 157.143 163.207 156.887 163.56C156.635 163.915 156.294 164.175 155.865 164.339C155.439 164.507 154.964 164.591 154.441 164.591ZM154.407 160.994C154.811 160.994 155.152 160.902 155.43 160.717C155.708 160.533 155.92 160.267 156.065 159.92C156.21 159.574 156.282 159.159 156.282 158.676C156.282 158.205 156.211 157.788 156.069 157.428C155.927 157.067 155.717 156.784 155.439 156.58C155.16 156.375 154.816 156.273 154.407 156.273C153.981 156.273 153.626 156.381 153.342 156.597C153.061 156.812 152.849 157.102 152.707 157.466C152.568 157.83 152.498 158.233 152.498 158.676C152.498 159.131 152.569 159.533 152.711 159.882C152.856 160.229 153.069 160.501 153.35 160.7C153.635 160.896 153.987 160.994 154.407 160.994ZM165.146 162.136C164.532 162.136 164.004 161.991 163.561 161.702C163.118 161.412 162.777 161.013 162.538 160.504C162.299 159.996 162.18 159.415 162.18 158.761C162.18 158.097 162.302 157.51 162.547 157.001C162.794 156.49 163.137 156.091 163.578 155.804C164.021 155.514 164.538 155.369 165.129 155.369C165.589 155.369 166.004 155.455 166.373 155.625C166.743 155.795 167.045 156.034 167.281 156.341C167.517 156.648 167.663 157.006 167.72 157.415H166.714C166.637 157.116 166.467 156.852 166.203 156.622C165.941 156.389 165.589 156.273 165.146 156.273C164.754 156.273 164.41 156.375 164.115 156.58C163.822 156.781 163.593 157.067 163.429 157.436C163.267 157.803 163.186 158.233 163.186 158.727C163.186 159.233 163.265 159.673 163.424 160.048C163.586 160.423 163.814 160.714 164.106 160.922C164.402 161.129 164.748 161.233 165.146 161.233C165.407 161.233 165.645 161.188 165.858 161.097C166.071 161.006 166.251 160.875 166.399 160.705C166.547 160.534 166.652 160.33 166.714 160.091H167.72C167.663 160.477 167.522 160.825 167.298 161.135C167.076 161.442 166.782 161.686 166.416 161.868C166.052 162.047 165.629 162.136 165.146 162.136ZM171.116 162.153C170.701 162.153 170.325 162.075 169.987 161.919C169.649 161.76 169.38 161.531 169.181 161.233C168.983 160.932 168.883 160.568 168.883 160.142C168.883 159.767 168.957 159.463 169.105 159.23C169.252 158.994 169.45 158.81 169.697 158.676C169.944 158.543 170.217 158.443 170.515 158.378C170.816 158.31 171.119 158.256 171.423 158.216C171.821 158.165 172.143 158.126 172.39 158.101C172.64 158.072 172.822 158.026 172.936 157.96C173.052 157.895 173.11 157.781 173.11 157.619V157.585C173.11 157.165 172.995 156.838 172.765 156.605C172.538 156.372 172.193 156.256 171.73 156.256C171.25 156.256 170.873 156.361 170.6 156.571C170.328 156.781 170.136 157.006 170.025 157.244L169.071 156.903C169.241 156.506 169.468 156.196 169.752 155.974C170.039 155.75 170.352 155.594 170.69 155.506C171.031 155.415 171.366 155.369 171.696 155.369C171.906 155.369 172.147 155.395 172.42 155.446C172.696 155.494 172.961 155.595 173.217 155.749C173.475 155.902 173.69 156.134 173.86 156.443C174.031 156.753 174.116 157.168 174.116 157.688V162H173.11V161.114H173.059C172.991 161.256 172.877 161.408 172.718 161.57C172.559 161.732 172.348 161.869 172.083 161.983C171.819 162.097 171.497 162.153 171.116 162.153ZM171.27 161.25C171.667 161.25 172.002 161.172 172.275 161.016C172.551 160.859 172.758 160.658 172.897 160.411C173.039 160.163 173.11 159.903 173.11 159.631V158.71C173.068 158.761 172.974 158.808 172.829 158.851C172.687 158.891 172.522 158.926 172.335 158.957C172.15 158.986 171.97 159.011 171.794 159.034C171.62 159.054 171.48 159.071 171.372 159.085C171.11 159.119 170.866 159.175 170.639 159.251C170.414 159.325 170.233 159.437 170.093 159.588C169.957 159.736 169.889 159.937 169.889 160.193C169.889 160.543 170.018 160.807 170.277 160.986C170.538 161.162 170.869 161.25 171.27 161.25ZM175.952 162V155.455H176.923V156.443H176.991C177.111 156.119 177.327 155.857 177.639 155.655C177.952 155.453 178.304 155.352 178.696 155.352C178.77 155.352 178.862 155.354 178.973 155.357C179.084 155.359 179.168 155.364 179.224 155.369V156.392C179.19 156.384 179.112 156.371 178.99 156.354C178.871 156.334 178.744 156.324 178.611 156.324C178.293 156.324 178.009 156.391 177.759 156.524C177.511 156.655 177.315 156.837 177.17 157.07C177.028 157.3 176.957 157.562 176.957 157.858V162H175.952ZM181.729 159.545V159.494C181.735 158.952 181.792 158.52 181.9 158.199C182.007 157.878 182.161 157.618 182.36 157.419C182.559 157.22 182.797 157.037 183.076 156.869C183.243 156.767 183.394 156.646 183.527 156.507C183.661 156.365 183.766 156.202 183.843 156.017C183.922 155.832 183.962 155.628 183.962 155.403C183.962 155.125 183.897 154.884 183.766 154.679C183.635 154.474 183.461 154.317 183.242 154.206C183.023 154.095 182.78 154.04 182.513 154.04C182.28 154.04 182.056 154.088 181.84 154.185C181.624 154.281 181.444 154.433 181.299 154.641C181.154 154.848 181.07 155.119 181.047 155.455H179.973C179.996 154.972 180.121 154.558 180.348 154.214C180.578 153.871 180.881 153.608 181.256 153.426C181.634 153.244 182.053 153.153 182.513 153.153C183.013 153.153 183.448 153.253 183.817 153.452C184.189 153.651 184.476 153.923 184.678 154.27C184.882 154.616 184.985 155.011 184.985 155.455C184.985 155.767 184.936 156.05 184.84 156.303C184.746 156.555 184.61 156.781 184.431 156.98C184.255 157.179 184.042 157.355 183.792 157.509C183.542 157.665 183.341 157.83 183.191 158.003C183.04 158.173 182.931 158.376 182.863 158.612C182.794 158.848 182.757 159.142 182.752 159.494V159.545H181.729ZM182.275 162.068C182.064 162.068 181.884 161.993 181.733 161.842C181.583 161.692 181.507 161.511 181.507 161.301C181.507 161.091 181.583 160.911 181.733 160.76C181.884 160.609 182.064 160.534 182.275 160.534C182.485 160.534 182.665 160.609 182.816 160.76C182.966 160.911 183.042 161.091 183.042 161.301C183.042 161.44 183.006 161.568 182.935 161.685C182.867 161.801 182.775 161.895 182.658 161.966C182.544 162.034 182.417 162.068 182.275 162.068Z" fill="black"/>
<rect x="212.25" y="146.25" width="110.5" height="23.5" rx="3.75" fill="#F2F4F5"/>
<rect x="212.25" y="146.25" width="110.5" height="23.5" rx="3.75" stroke="#DDE2E6" stroke-width="0.5"/>
<g opacity="0.7">
<path d="M227.705 155.182H228.545L230.523 160.011H230.591L232.568 155.182H233.409V161H232.75V156.58H232.693L230.875 161H230.239L228.42 156.58H228.364V161H227.705V155.182ZM237.481 159.216V156.636H238.151V161H237.481V160.261H237.435C237.333 160.483 237.174 160.671 236.958 160.827C236.742 160.98 236.469 161.057 236.14 161.057C235.867 161.057 235.625 160.997 235.413 160.878C235.201 160.757 235.034 160.575 234.913 160.332C234.791 160.088 234.731 159.78 234.731 159.409V156.636H235.401V159.364C235.401 159.682 235.49 159.936 235.668 160.125C235.848 160.314 236.077 160.409 236.356 160.409C236.522 160.409 236.692 160.366 236.864 160.281C237.039 160.196 237.184 160.065 237.302 159.889C237.421 159.713 237.481 159.489 237.481 159.216ZM240.05 155.182V161H239.379V155.182H240.05ZM243.175 156.636V157.205H240.914V156.636H243.175ZM241.573 155.591H242.244V159.75C242.244 159.939 242.271 160.081 242.326 160.176C242.383 160.269 242.455 160.331 242.542 160.364C242.631 160.394 242.725 160.409 242.823 160.409C242.897 160.409 242.958 160.405 243.005 160.398C243.052 160.388 243.09 160.381 243.119 160.375L243.255 160.977C243.21 160.994 243.146 161.011 243.065 161.028C242.983 161.047 242.88 161.057 242.755 161.057C242.566 161.057 242.38 161.016 242.198 160.935C242.018 160.853 241.869 160.729 241.749 160.562C241.632 160.396 241.573 160.186 241.573 159.932V155.591ZM244.184 161V156.636H244.854V161H244.184ZM244.525 155.909C244.394 155.909 244.281 155.865 244.187 155.776C244.094 155.687 244.048 155.58 244.048 155.455C244.048 155.33 244.094 155.223 244.187 155.134C244.281 155.045 244.394 155 244.525 155C244.656 155 244.767 155.045 244.86 155.134C244.955 155.223 245.002 155.33 245.002 155.455C245.002 155.58 244.955 155.687 244.86 155.776C244.767 155.865 244.656 155.909 244.525 155.909ZM246.082 162.636V156.636H246.73V157.33H246.81C246.859 157.254 246.927 157.157 247.014 157.04C247.103 156.92 247.23 156.814 247.395 156.722C247.562 156.627 247.787 156.58 248.071 156.58C248.438 156.58 248.762 156.671 249.043 156.855C249.323 157.039 249.542 157.299 249.699 157.636C249.856 157.973 249.935 158.371 249.935 158.83C249.935 159.292 249.856 159.692 249.699 160.031C249.542 160.368 249.324 160.63 249.045 160.815C248.767 160.999 248.446 161.091 248.082 161.091C247.802 161.091 247.578 161.045 247.409 160.952C247.241 160.857 247.111 160.75 247.02 160.631C246.929 160.509 246.859 160.409 246.81 160.33H246.753V162.636H246.082ZM246.741 158.818C246.741 159.148 246.79 159.438 246.886 159.69C246.983 159.94 247.124 160.136 247.31 160.278C247.495 160.419 247.723 160.489 247.991 160.489C248.272 160.489 248.506 160.415 248.693 160.267C248.883 160.117 249.025 159.917 249.119 159.665C249.216 159.411 249.264 159.129 249.264 158.818C249.264 158.511 249.217 158.235 249.122 157.989C249.029 157.741 248.888 157.545 248.699 157.401C248.511 157.255 248.276 157.182 247.991 157.182C247.719 157.182 247.49 157.251 247.304 157.389C247.118 157.526 246.978 157.717 246.884 157.963C246.789 158.207 246.741 158.492 246.741 158.818ZM251.628 155.182V161H250.957V155.182H251.628ZM254.685 161.091C254.265 161.091 253.902 160.998 253.597 160.812C253.294 160.625 253.06 160.364 252.896 160.028C252.733 159.691 252.651 159.299 252.651 158.852C252.651 158.405 252.733 158.011 252.896 157.67C253.06 157.328 253.29 157.061 253.583 156.869C253.879 156.676 254.223 156.58 254.617 156.58C254.844 156.58 255.069 156.617 255.29 156.693C255.512 156.769 255.714 156.892 255.896 157.062C256.077 157.231 256.222 157.455 256.33 157.733C256.438 158.011 256.492 158.354 256.492 158.761V159.045H253.129V158.466H255.81C255.81 158.22 255.761 158 255.663 157.807C255.566 157.614 255.428 157.461 255.248 157.349C255.07 157.238 254.86 157.182 254.617 157.182C254.35 157.182 254.119 157.248 253.924 157.381C253.731 157.511 253.582 157.682 253.478 157.892C253.374 158.102 253.322 158.328 253.322 158.568V158.955C253.322 159.284 253.379 159.563 253.492 159.793C253.608 160.02 253.768 160.193 253.972 160.312C254.177 160.43 254.415 160.489 254.685 160.489C254.862 160.489 255.021 160.464 255.163 160.415C255.307 160.364 255.431 160.288 255.535 160.188C255.639 160.085 255.719 159.958 255.776 159.807L256.424 159.989C256.356 160.208 256.241 160.402 256.08 160.568C255.919 160.733 255.72 160.862 255.484 160.955C255.247 161.045 254.981 161.091 254.685 161.091ZM261.535 161.091C261.126 161.091 260.773 160.994 260.478 160.801C260.183 160.608 259.955 160.342 259.796 160.003C259.637 159.664 259.558 159.277 259.558 158.841C259.558 158.398 259.639 158.007 259.802 157.668C259.967 157.327 260.196 157.061 260.489 156.869C260.785 156.676 261.129 156.58 261.523 156.58C261.83 156.58 262.107 156.636 262.353 156.75C262.599 156.864 262.801 157.023 262.958 157.227C263.115 157.432 263.213 157.67 263.251 157.943H262.58C262.529 157.744 262.415 157.568 262.239 157.415C262.065 157.259 261.83 157.182 261.535 157.182C261.273 157.182 261.044 157.25 260.847 157.386C260.652 157.521 260.5 157.711 260.39 157.957C260.282 158.202 260.228 158.489 260.228 158.818C260.228 159.155 260.281 159.449 260.387 159.699C260.495 159.949 260.647 160.143 260.842 160.281C261.039 160.42 261.27 160.489 261.535 160.489C261.709 160.489 261.867 160.458 262.009 160.398C262.151 160.337 262.272 160.25 262.37 160.136C262.469 160.023 262.539 159.886 262.58 159.727H263.251C263.213 159.985 263.119 160.217 262.969 160.423C262.822 160.628 262.626 160.791 262.381 160.912C262.139 161.031 261.857 161.091 261.535 161.091ZM264.901 158.375V161H264.231V155.182H264.901V157.318H264.958C265.06 157.093 265.214 156.914 265.418 156.781C265.625 156.647 265.899 156.58 266.242 156.58C266.54 156.58 266.8 156.639 267.023 156.759C267.247 156.876 267.42 157.057 267.543 157.301C267.668 157.544 267.731 157.852 267.731 158.227V161H267.06V158.273C267.06 157.926 266.97 157.658 266.79 157.469C266.612 157.277 266.365 157.182 266.049 157.182C265.829 157.182 265.632 157.228 265.458 157.321C265.286 157.414 265.149 157.549 265.049 157.727C264.951 157.905 264.901 158.121 264.901 158.375ZM270.73 161.091C270.336 161.091 269.991 160.997 269.693 160.81C269.398 160.622 269.167 160.36 269 160.023C268.835 159.686 268.753 159.292 268.753 158.841C268.753 158.386 268.835 157.99 269 157.651C269.167 157.312 269.398 157.048 269.693 156.861C269.991 156.673 270.336 156.58 270.73 156.58C271.124 156.58 271.469 156.673 271.764 156.861C272.062 157.048 272.293 157.312 272.457 157.651C272.624 157.99 272.707 158.386 272.707 158.841C272.707 159.292 272.624 159.686 272.457 160.023C272.293 160.36 272.062 160.622 271.764 160.81C271.469 160.997 271.124 161.091 270.73 161.091ZM270.73 160.489C271.029 160.489 271.276 160.412 271.469 160.259C271.662 160.105 271.805 159.903 271.898 159.653C271.991 159.403 272.037 159.133 272.037 158.841C272.037 158.549 271.991 158.277 271.898 158.026C271.805 157.774 271.662 157.57 271.469 157.415C271.276 157.259 271.029 157.182 270.73 157.182C270.431 157.182 270.185 157.259 269.991 157.415C269.798 157.57 269.655 157.774 269.562 158.026C269.47 158.277 269.423 158.549 269.423 158.841C269.423 159.133 269.47 159.403 269.562 159.653C269.655 159.903 269.798 160.105 269.991 160.259C270.185 160.412 270.431 160.489 270.73 160.489ZM273.731 161V156.636H274.401V161H273.731ZM274.072 155.909C273.941 155.909 273.828 155.865 273.734 155.776C273.641 155.687 273.594 155.58 273.594 155.455C273.594 155.33 273.641 155.223 273.734 155.134C273.828 155.045 273.941 155 274.072 155C274.202 155 274.314 155.045 274.407 155.134C274.502 155.223 274.549 155.33 274.549 155.455C274.549 155.58 274.502 155.687 274.407 155.776C274.314 155.865 274.202 155.909 274.072 155.909ZM277.402 161.091C276.993 161.091 276.641 160.994 276.345 160.801C276.05 160.608 275.822 160.342 275.663 160.003C275.504 159.664 275.425 159.277 275.425 158.841C275.425 158.398 275.506 158.007 275.669 157.668C275.834 157.327 276.063 157.061 276.357 156.869C276.652 156.676 276.997 156.58 277.391 156.58C277.697 156.58 277.974 156.636 278.22 156.75C278.466 156.864 278.668 157.023 278.825 157.227C278.982 157.432 279.08 157.67 279.118 157.943H278.447C278.396 157.744 278.283 157.568 278.107 157.415C277.932 157.259 277.697 157.182 277.402 157.182C277.141 157.182 276.911 157.25 276.714 157.386C276.519 157.521 276.367 157.711 276.257 157.957C276.149 158.202 276.095 158.489 276.095 158.818C276.095 159.155 276.148 159.449 276.254 159.699C276.362 159.949 276.514 160.143 276.709 160.281C276.906 160.42 277.137 160.489 277.402 160.489C277.576 160.489 277.734 160.458 277.876 160.398C278.018 160.337 278.139 160.25 278.237 160.136C278.336 160.023 278.406 159.886 278.447 159.727H279.118C279.08 159.985 278.986 160.217 278.837 160.423C278.689 160.628 278.493 160.791 278.249 160.912C278.006 161.031 277.724 161.091 277.402 161.091ZM281.928 161.091C281.507 161.091 281.144 160.998 280.839 160.812C280.536 160.625 280.303 160.364 280.138 160.028C279.975 159.691 279.893 159.299 279.893 158.852C279.893 158.405 279.975 158.011 280.138 157.67C280.303 157.328 280.532 157.061 280.825 156.869C281.121 156.676 281.465 156.58 281.859 156.58C282.087 156.58 282.311 156.617 282.533 156.693C282.754 156.769 282.956 156.892 283.138 157.062C283.32 157.231 283.464 157.455 283.572 157.733C283.68 158.011 283.734 158.354 283.734 158.761V159.045H280.371V158.466H283.053C283.053 158.22 283.003 158 282.905 157.807C282.808 157.614 282.67 157.461 282.49 157.349C282.312 157.238 282.102 157.182 281.859 157.182C281.592 157.182 281.361 157.248 281.166 157.381C280.973 157.511 280.824 157.682 280.72 157.892C280.616 158.102 280.564 158.328 280.564 158.568V158.955C280.564 159.284 280.621 159.563 280.734 159.793C280.85 160.02 281.01 160.193 281.214 160.312C281.419 160.43 281.657 160.489 281.928 160.489C282.104 160.489 282.263 160.464 282.405 160.415C282.549 160.364 282.673 160.288 282.777 160.188C282.881 160.085 282.962 159.958 283.018 159.807L283.666 159.989C283.598 160.208 283.483 160.402 283.322 160.568C283.161 160.733 282.963 160.862 282.726 160.955C282.489 161.045 282.223 161.091 281.928 161.091Z" fill="#5E6366"/>
<path d="M299 156.5L302 159.5L305 156.5" stroke="#5E6366" stroke-linecap="round" stroke-linejoin="round"/>
</g>
<rect x="215" y="154" width="8" height="8" rx="4" fill="#8B8F91"/>
<circle cx="219" cy="158" r="3" fill="white"/>
<rect x="20" y="189" width="8" height="8" rx="4" fill="#D9D9D9"/>
<circle cx="24" cy="193" r="3" fill="white"/>
<path d="M31.2557 189.727H32.2642L34.2812 193.122H34.3665L36.3835 189.727H37.392L34.7642 194.003V197H33.8835V194.003L31.2557 189.727ZM39.9329 197.114C39.4073 197.114 38.954 196.998 38.5728 196.766C38.194 196.531 37.9016 196.205 37.6957 195.786C37.4921 195.364 37.3903 194.874 37.3903 194.315C37.3903 193.757 37.4921 193.264 37.6957 192.838C37.9016 192.41 38.1881 192.076 38.555 191.837C38.9244 191.595 39.3552 191.474 39.8477 191.474C40.1317 191.474 40.4123 191.522 40.6893 191.616C40.9663 191.711 41.2184 191.865 41.4457 192.078C41.6729 192.289 41.854 192.568 41.989 192.916C42.1239 193.264 42.1914 193.693 42.1914 194.202V194.557H37.9869V193.832H41.3391C41.3391 193.525 41.2776 193.25 41.1545 193.009C41.0337 192.767 40.8609 192.576 40.636 192.437C40.4135 192.297 40.1507 192.227 39.8477 192.227C39.5138 192.227 39.225 192.31 38.9812 192.476C38.7397 192.639 38.5539 192.852 38.4237 193.115C38.2934 193.378 38.2283 193.66 38.2283 193.96V194.443C38.2283 194.855 38.2994 195.204 38.4414 195.491C38.5858 195.775 38.7859 195.991 39.0415 196.141C39.2972 196.287 39.5943 196.361 39.9329 196.361C40.1531 196.361 40.3519 196.33 40.5295 196.268C40.7094 196.205 40.8645 196.11 40.9947 195.984C41.1249 195.857 41.2255 195.698 41.2965 195.509L42.1062 195.736C42.021 196.01 41.8777 196.252 41.6765 196.46C41.4753 196.666 41.2267 196.827 40.9308 196.943C40.6348 197.057 40.3022 197.114 39.9329 197.114ZM47.3299 192.767L46.5771 192.98C46.5297 192.855 46.4599 192.733 46.3675 192.614C46.2776 192.494 46.1545 192.394 45.9982 192.316C45.842 192.238 45.6419 192.199 45.3981 192.199C45.0643 192.199 44.7861 192.276 44.5636 192.43C44.3434 192.581 44.2333 192.774 44.2333 193.009C44.2333 193.217 44.3091 193.381 44.4606 193.502C44.6121 193.623 44.8488 193.723 45.1708 193.804L45.9805 194.003C46.4682 194.121 46.8316 194.302 47.0707 194.546C47.3098 194.788 47.4293 195.099 47.4293 195.48C47.4293 195.793 47.3394 196.072 47.1594 196.318C46.9819 196.564 46.7333 196.759 46.4137 196.901C46.0941 197.043 45.7224 197.114 45.2987 197.114C44.7423 197.114 44.2818 196.993 43.9173 196.751C43.5527 196.51 43.3219 196.157 43.2248 195.693L44.0202 195.494C44.096 195.788 44.2392 196.008 44.4499 196.155C44.663 196.302 44.9412 196.375 45.2844 196.375C45.6751 196.375 45.9852 196.292 46.2148 196.126C46.4469 195.958 46.5629 195.757 46.5629 195.523C46.5629 195.333 46.4966 195.175 46.364 195.047C46.2314 194.917 46.0278 194.82 45.7532 194.756L44.8441 194.543C44.3446 194.424 43.9776 194.241 43.7433 193.992C43.5112 193.741 43.3952 193.428 43.3952 193.051C43.3952 192.743 43.4817 192.471 43.6545 192.234C43.8297 191.998 44.0676 191.812 44.3683 191.677C44.6713 191.542 45.0146 191.474 45.3981 191.474C45.9379 191.474 46.3616 191.593 46.6694 191.83C46.9795 192.066 47.1997 192.379 47.3299 192.767Z" fill="black"/>
<rect x="20" y="219" width="8" height="8" rx="4" fill="#D9D9D9"/>
<circle cx="24" cy="223" r="3" fill="white"/>
<path d="M37.6477 219.727V227H36.7955L32.8324 221.29H32.7614V227H31.8807V219.727H32.733L36.7102 225.452H36.7812V219.727H37.6477ZM41.5123 227.114C41.0198 227.114 40.5878 226.996 40.2161 226.762C39.8468 226.528 39.5579 226.2 39.3496 225.778C39.1436 225.357 39.0407 224.865 39.0407 224.301C39.0407 223.733 39.1436 223.237 39.3496 222.813C39.5579 222.389 39.8468 222.06 40.2161 221.826C40.5878 221.592 41.0198 221.474 41.5123 221.474C42.0047 221.474 42.4355 221.592 42.8049 221.826C43.1766 222.06 43.4654 222.389 43.6713 222.813C43.8797 223.237 43.9838 223.733 43.9838 224.301C43.9838 224.865 43.8797 225.357 43.6713 225.778C43.4654 226.2 43.1766 226.528 42.8049 226.762C42.4355 226.996 42.0047 227.114 41.5123 227.114ZM41.5123 226.361C41.8863 226.361 42.1941 226.265 42.4355 226.073C42.677 225.881 42.8558 225.629 42.9718 225.317C43.0878 225.004 43.1458 224.666 43.1458 224.301C43.1458 223.937 43.0878 223.597 42.9718 223.282C42.8558 222.967 42.677 222.713 42.4355 222.518C42.1941 222.324 41.8863 222.227 41.5123 222.227C41.1382 222.227 40.8304 222.324 40.589 222.518C40.3475 222.713 40.1687 222.967 40.0527 223.282C39.9367 223.597 39.8787 223.937 39.8787 224.301C39.8787 224.666 39.9367 225.004 40.0527 225.317C40.1687 225.629 40.3475 225.881 40.589 226.073C40.8304 226.265 41.1382 226.361 41.5123 226.361Z" fill="black"/>
<path d="M20 246H307" stroke="#E9EBF1" stroke-width="0.875"/>
<path fill-rule="evenodd" clip-rule="evenodd" d="M278.755 256.127C278.824 255.989 278.93 255.873 279.062 255.791C279.194 255.71 279.345 255.667 279.5 255.667H284.5C284.655 255.667 284.806 255.71 284.938 255.791C285.07 255.873 285.176 255.989 285.245 256.127L286.682 259H288.667C288.888 259 289.1 259.088 289.256 259.244C289.412 259.4 289.5 259.612 289.5 259.833C289.5 260.054 289.412 260.266 289.256 260.423C289.1 260.579 288.888 260.667 288.667 260.667H287.833V269.833C287.833 270.496 287.57 271.132 287.101 271.601C286.632 272.07 285.996 272.333 285.333 272.333H278.667C278.004 272.333 277.368 272.07 276.899 271.601C276.43 271.132 276.167 270.496 276.167 269.833V260.667H275.333C275.112 260.667 274.9 260.579 274.744 260.423C274.588 260.266 274.5 260.054 274.5 259.833C274.5 259.612 274.588 259.4 274.744 259.244C274.9 259.088 275.112 259 275.333 259H277.318L278.755 256.127ZM283.985 257.333L284.818 259H279.182L280.015 257.333H283.985ZM281.167 263.167C281.167 262.946 281.079 262.734 280.923 262.577C280.766 262.421 280.554 262.333 280.333 262.333C280.112 262.333 279.9 262.421 279.744 262.577C279.588 262.734 279.5 262.946 279.5 263.167V268.167C279.5 268.388 279.588 268.6 279.744 268.756C279.9 268.912 280.112 269 280.333 269C280.554 269 280.766 268.912 280.923 268.756C281.079 268.6 281.167 268.388 281.167 268.167V263.167ZM284.5 263.167C284.5 262.946 284.412 262.734 284.256 262.577C284.1 262.421 283.888 262.333 283.667 262.333C283.446 262.333 283.234 262.421 283.077 262.577C282.921 262.734 282.833 262.946 282.833 263.167V268.167C282.833 268.388 282.921 268.6 283.077 268.756C283.234 268.912 283.446 269 283.667 269C283.888 269 284.1 268.912 284.256 268.756C284.412 268.6 284.5 268.388 284.5 268.167V263.167Z" fill="#545454"/>
<path fill-rule="evenodd" clip-rule="evenodd" d="M256.5 255.042H253.12C251.588 255.042 250.375 255.042 249.426 255.169C248.449 255.301 247.658 255.577 247.034 256.201C246.411 256.825 246.134 257.616 246.003 258.592C245.875 259.542 245.875 260.755 245.875 262.287V267.333C245.875 268.078 246.141 268.798 246.624 269.364C247.108 269.93 247.778 270.305 248.513 270.421C248.627 271.057 248.848 271.601 249.29 272.043C249.792 272.545 250.423 272.76 251.173 272.862C251.896 272.958 252.815 272.958 253.954 272.958H256.546C257.685 272.958 258.604 272.958 259.327 272.862C260.077 272.76 260.708 272.545 261.21 272.043C261.712 271.542 261.927 270.91 262.028 270.16C262.125 269.437 262.125 268.518 262.125 267.379V263.121C262.125 261.982 262.125 261.062 262.028 260.34C261.927 259.59 261.712 258.958 261.21 258.457C260.767 258.015 260.224 257.794 259.587 257.68C259.472 256.944 259.097 256.275 258.531 255.791C257.965 255.307 257.245 255.041 256.5 255.042ZM258.275 257.559C258.148 257.189 257.909 256.868 257.591 256.641C257.272 256.413 256.891 256.291 256.5 256.292H253.167C251.577 256.292 250.449 256.293 249.592 256.408C248.754 256.521 248.271 256.732 247.918 257.085C247.566 257.437 247.354 257.921 247.242 258.758C247.127 259.616 247.125 260.744 247.125 262.333V267.333C247.125 267.724 247.247 268.106 247.474 268.424C247.701 268.742 248.022 268.982 248.392 269.108C248.375 268.6 248.375 268.025 248.375 267.379V263.121C248.375 261.982 248.375 261.062 248.473 260.34C248.572 259.59 248.789 258.958 249.29 258.457C249.792 257.955 250.423 257.74 251.173 257.639C251.896 257.542 252.815 257.542 253.954 257.542H256.546C257.192 257.542 257.767 257.542 258.275 257.559ZM250.173 259.342C250.404 259.111 250.727 258.961 251.34 258.878C251.968 258.794 252.803 258.792 253.999 258.792H256.499C257.695 258.792 258.529 258.794 259.159 258.878C259.771 258.961 260.094 259.112 260.325 259.342C260.556 259.572 260.706 259.896 260.788 260.508C260.872 261.137 260.874 261.972 260.874 263.167V267.334C260.874 268.53 260.872 269.364 260.788 269.994C260.706 270.606 260.555 270.929 260.325 271.16C260.094 271.391 259.771 271.541 259.158 271.623C258.529 271.707 257.695 271.709 256.499 271.709H253.999C252.803 271.709 251.968 271.707 251.339 271.623C250.727 271.541 250.404 271.39 250.173 271.16C249.943 270.929 249.793 270.606 249.71 269.993C249.626 269.364 249.624 268.53 249.624 267.334V263.167C249.624 261.972 249.626 261.137 249.71 260.507C249.793 259.896 249.943 259.572 250.173 259.342Z" fill="#545454"/>
</svg>
