<svg width="343" height="296" viewBox="0 0 343 296" fill="none" xmlns="http://www.w3.org/2000/svg">
<rect x="0.5" y="0.5" width="342" height="295" rx="15.5" fill="white"/>
<rect x="0.5" y="0.5" width="342" height="295" rx="15.5" stroke="#E9EBF1"/>
<path d="M31.6916 42V26.3182H34.0577V39.9632H41.1635V42H31.6916ZM43.2089 42V30.2386H45.4983V42H43.2089ZM44.3651 28.4239C43.9669 28.4239 43.6249 28.2912 43.339 28.0257C43.0583 27.7552 42.9179 27.4336 42.9179 27.0609C42.9179 26.6832 43.0583 26.3616 43.339 26.0961C43.6249 25.8256 43.9669 25.6903 44.3651 25.6903C44.7633 25.6903 45.1027 25.8256 45.3835 26.0961C45.6693 26.3616 45.8123 26.6832 45.8123 27.0609C45.8123 27.4336 45.6693 27.7552 45.3835 28.0257C45.1027 28.2912 44.7633 28.4239 44.3651 28.4239ZM50.3979 35.0167V42H48.1084V30.2386H50.306V32.1529H50.4515C50.7221 31.5301 51.1458 31.0299 51.7226 30.6521C52.3045 30.2744 53.0371 30.0855 53.9202 30.0855C54.7216 30.0855 55.4235 30.254 56.0259 30.5909C56.6283 30.9227 57.0953 31.4178 57.4272 32.0763C57.759 32.7349 57.9249 33.5491 57.9249 34.519V42H55.6354V34.7946C55.6354 33.9421 55.4133 33.276 54.9692 32.7961C54.5251 32.3112 53.9151 32.0687 53.1392 32.0687C52.6083 32.0687 52.1361 32.1835 51.7226 32.4133C51.3142 32.643 50.9901 32.9799 50.7501 33.424C50.5153 33.863 50.3979 34.3939 50.3979 35.0167ZM62.6311 38.0106L62.6158 35.2158H63.014L67.7001 30.2386H70.4414L65.0967 35.9049H64.7368L62.6311 38.0106ZM60.5254 42V26.3182H62.8149V42H60.5254ZM67.9528 42L63.7414 36.4103L65.3188 34.8099L70.763 42H67.9528ZM88.091 31.2723C87.943 30.8078 87.7439 30.3918 87.4937 30.0242C87.2487 29.6516 86.9552 29.3351 86.6132 29.0748C86.2712 28.8093 85.8806 28.6077 85.4416 28.4698C85.0077 28.332 84.5304 28.2631 84.0097 28.2631C83.1266 28.2631 82.3303 28.4903 81.6207 28.9446C80.9112 29.3989 80.3496 30.0651 79.9361 30.9431C79.5278 31.816 79.3236 32.8855 79.3236 34.1514C79.3236 35.4225 79.5303 36.4971 79.9438 37.3751C80.3573 38.2531 80.9239 38.9193 81.6437 39.3736C82.3635 39.8279 83.1828 40.0551 84.1016 40.0551C84.9541 40.0551 85.6969 39.8815 86.3299 39.5344C86.968 39.1873 87.4606 38.6972 87.8077 38.0642C88.1599 37.4261 88.336 36.6757 88.336 35.813L88.9486 35.9279H84.4615V33.9753H90.6255V35.7594C90.6255 37.0765 90.3447 38.2199 89.7832 39.1898C89.2268 40.1546 88.456 40.8999 87.4708 41.4257C86.4907 41.9515 85.3676 42.2144 84.1016 42.2144C82.6825 42.2144 81.4369 41.8877 80.3649 41.2343C79.2981 40.5809 78.466 39.6544 77.8687 38.4547C77.2715 37.25 76.9728 35.8207 76.9728 34.1667C76.9728 32.9161 77.1464 31.793 77.4935 30.7976C77.8406 29.8022 78.3281 28.9573 78.956 28.2631C79.589 27.5637 80.3318 27.0303 81.1843 26.6628C82.0419 26.2901 82.9786 26.1038 83.9944 26.1038C84.8418 26.1038 85.6305 26.2288 86.3605 26.479C87.0956 26.7291 87.749 27.0839 88.3207 27.5433C88.8975 28.0028 89.3748 28.549 89.7526 29.182C90.1303 29.8098 90.3856 30.5066 90.5183 31.2723H88.091ZM98.0443 42.2374C96.8855 42.2374 95.8875 41.9898 95.0503 41.4946C94.2183 40.9944 93.5751 40.2925 93.1207 39.3889C92.6715 38.4803 92.4469 37.4159 92.4469 36.1959C92.4469 34.9912 92.6715 33.9294 93.1207 33.0105C93.5751 32.0917 94.208 31.3744 95.0197 30.8589C95.8365 30.3433 96.7911 30.0855 97.8835 30.0855C98.5471 30.0855 99.1903 30.1952 99.8131 30.4148C100.436 30.6343 100.995 30.9788 101.49 31.4485C101.985 31.9181 102.376 32.5281 102.662 33.2785C102.947 34.0238 103.09 34.9299 103.09 35.9968V36.8085H93.741V35.0933H100.847C100.847 34.4909 100.724 33.9575 100.479 33.4929C100.234 33.0233 99.8896 32.6532 99.4455 32.3826C99.0065 32.1121 98.4909 31.9768 97.8988 31.9768C97.2556 31.9768 96.6941 32.1351 96.2142 32.4515C95.7395 32.7629 95.3719 33.1713 95.1116 33.6767C94.8564 34.177 94.7287 34.7206 94.7287 35.3077V36.6477C94.7287 37.4338 94.8666 38.1025 95.1422 38.6538C95.423 39.2051 95.8135 39.6263 96.3138 39.9173C96.814 40.2031 97.3985 40.3461 98.0672 40.3461C98.5012 40.3461 98.8968 40.2848 99.2541 40.1623C99.6114 40.0347 99.9203 39.8458 100.181 39.5957C100.441 39.3455 100.64 39.0367 100.778 38.6691L102.945 39.0597C102.771 39.6978 102.46 40.2567 102.011 40.7366C101.567 41.2113 101.008 41.5814 100.334 41.8469C99.665 42.1072 98.9019 42.2374 98.0443 42.2374ZM107.45 35.0167V42H105.161V30.2386H107.358V32.1529H107.504C107.774 31.5301 108.198 31.0299 108.775 30.6521C109.357 30.2744 110.089 30.0855 110.972 30.0855C111.774 30.0855 112.476 30.254 113.078 30.5909C113.68 30.9227 114.148 31.4178 114.479 32.0763C114.811 32.7349 114.977 33.5491 114.977 34.519V42H112.688V34.7946C112.688 33.9421 112.465 33.276 112.021 32.7961C111.577 32.3112 110.967 32.0687 110.191 32.0687C109.66 32.0687 109.188 32.1835 108.775 32.4133C108.366 32.643 108.042 32.9799 107.802 33.424C107.567 33.863 107.45 34.3939 107.45 35.0167ZM122.647 42.2374C121.488 42.2374 120.49 41.9898 119.653 41.4946C118.821 40.9944 118.177 40.2925 117.723 39.3889C117.274 38.4803 117.049 37.4159 117.049 36.1959C117.049 34.9912 117.274 33.9294 117.723 33.0105C118.177 32.0917 118.81 31.3744 119.622 30.8589C120.439 30.3433 121.393 30.0855 122.486 30.0855C123.149 30.0855 123.793 30.1952 124.415 30.4148C125.038 30.6343 125.597 30.9788 126.092 31.4485C126.587 31.9181 126.978 32.5281 127.264 33.2785C127.55 34.0238 127.693 34.9299 127.693 35.9968V36.8085H118.343V35.0933H125.449C125.449 34.4909 125.327 33.9575 125.082 33.4929C124.837 33.0233 124.492 32.6532 124.048 32.3826C123.609 32.1121 123.093 31.9768 122.501 31.9768C121.858 31.9768 121.296 32.1351 120.817 32.4515C120.342 32.7629 119.974 33.1713 119.714 33.6767C119.459 34.177 119.331 34.7206 119.331 35.3077V36.6477C119.331 37.4338 119.469 38.1025 119.745 38.6538C120.025 39.2051 120.416 39.6263 120.916 39.9173C121.416 40.2031 122.001 40.3461 122.67 40.3461C123.103 40.3461 123.499 40.2848 123.856 40.1623C124.214 40.0347 124.523 39.8458 124.783 39.5957C125.043 39.3455 125.242 39.0367 125.38 38.6691L127.547 39.0597C127.374 39.6978 127.062 40.2567 126.613 40.7366C126.169 41.2113 125.61 41.5814 124.936 41.8469C124.267 42.1072 123.504 42.2374 122.647 42.2374ZM129.763 42V30.2386H131.976V32.107H132.098C132.313 31.474 132.69 30.9763 133.232 30.6138C133.778 30.2463 134.395 30.0625 135.085 30.0625C135.228 30.0625 135.396 30.0676 135.59 30.0778C135.789 30.088 135.945 30.1008 136.057 30.1161V32.3061C135.965 32.2805 135.802 32.2525 135.567 32.2218C135.332 32.1861 135.097 32.1682 134.863 32.1682C134.321 32.1682 133.839 32.2831 133.415 32.5128C132.997 32.7374 132.665 33.0514 132.42 33.4546C132.175 33.8528 132.052 34.3071 132.052 34.8176V42H129.763ZM140.886 42.2603C140.14 42.2603 139.467 42.1225 138.864 41.8469C138.262 41.5661 137.785 41.1603 137.432 40.6294C137.085 40.0985 136.912 39.4476 136.912 38.6768C136.912 38.0132 137.039 37.467 137.295 37.0382C137.55 36.6094 137.894 36.2699 138.328 36.0198C138.762 35.7696 139.247 35.5808 139.783 35.4531C140.319 35.3255 140.865 35.2285 141.422 35.1622C142.126 35.0805 142.698 35.0141 143.137 34.9631C143.576 34.9069 143.895 34.8176 144.094 34.6951C144.293 34.5726 144.393 34.3735 144.393 34.0978V34.0442C144.393 33.3755 144.204 32.8574 143.826 32.4898C143.453 32.1223 142.897 31.9385 142.157 31.9385C141.386 31.9385 140.779 32.1095 140.334 32.4515C139.895 32.7885 139.592 33.1637 139.423 33.5771L137.272 33.0871C137.527 32.3724 137.9 31.7956 138.39 31.3566C138.885 30.9125 139.454 30.5909 140.097 30.3918C140.74 30.1876 141.417 30.0855 142.126 30.0855C142.596 30.0855 143.094 30.1416 143.619 30.254C144.15 30.3612 144.645 30.5602 145.105 30.8512C145.569 31.1422 145.95 31.5582 146.246 32.0993C146.542 32.6353 146.69 33.3321 146.69 34.1897V42H144.454V40.392H144.362C144.214 40.6881 143.992 40.979 143.696 41.2649C143.4 41.5508 143.02 41.7882 142.555 41.977C142.091 42.1659 141.534 42.2603 140.886 42.2603ZM141.384 40.4226C142.016 40.4226 142.558 40.2976 143.007 40.0474C143.461 39.7973 143.806 39.4706 144.041 39.0673C144.28 38.6589 144.4 38.2225 144.4 37.7579V36.2418C144.319 36.3235 144.16 36.4001 143.926 36.4715C143.696 36.5379 143.433 36.5966 143.137 36.6477C142.841 36.6936 142.552 36.737 142.272 36.7778C141.991 36.8136 141.756 36.8442 141.567 36.8697C141.123 36.9259 140.717 37.0203 140.35 37.153C139.987 37.2858 139.696 37.4772 139.477 37.7273C139.262 37.9723 139.155 38.2991 139.155 38.7074C139.155 39.2741 139.365 39.7029 139.783 39.9938C140.202 40.2797 140.735 40.4226 141.384 40.4226ZM154.76 30.2386V32.0763H148.335V30.2386H154.76ZM150.058 27.4208H152.348V38.5466C152.348 38.9907 152.414 39.3251 152.547 39.5497C152.679 39.7692 152.85 39.9198 153.06 40.0015C153.274 40.0781 153.506 40.1163 153.756 40.1163C153.94 40.1163 154.101 40.1036 154.239 40.0781C154.377 40.0525 154.484 40.0321 154.56 40.0168L154.974 41.9081C154.841 41.9592 154.652 42.0102 154.407 42.0613C154.162 42.1174 153.856 42.148 153.488 42.1531C152.886 42.1634 152.325 42.0562 151.804 41.8315C151.283 41.6069 150.862 41.2598 150.54 40.7902C150.219 40.3205 150.058 39.7309 150.058 39.0214V27.4208ZM161.765 42.2374C160.606 42.2374 159.608 41.9898 158.771 41.4946C157.939 40.9944 157.296 40.2925 156.841 39.3889C156.392 38.4803 156.167 37.4159 156.167 36.1959C156.167 34.9912 156.392 33.9294 156.841 33.0105C157.296 32.0917 157.929 31.3744 158.74 30.8589C159.557 30.3433 160.512 30.0855 161.604 30.0855C162.268 30.0855 162.911 30.1952 163.534 30.4148C164.156 30.6343 164.715 30.9788 165.211 31.4485C165.706 31.9181 166.096 32.5281 166.382 33.2785C166.668 34.0238 166.811 34.9299 166.811 35.9968V36.8085H157.461V35.0933H164.567C164.567 34.4909 164.445 33.9575 164.2 33.4929C163.955 33.0233 163.61 32.6532 163.166 32.3826C162.727 32.1121 162.211 31.9768 161.619 31.9768C160.976 31.9768 160.415 32.1351 159.935 32.4515C159.46 32.7629 159.092 33.1713 158.832 33.6767C158.577 34.177 158.449 34.7206 158.449 35.3077V36.6477C158.449 37.4338 158.587 38.1025 158.863 38.6538C159.144 39.2051 159.534 39.6263 160.034 39.9173C160.535 40.2031 161.119 40.3461 161.788 40.3461C162.222 40.3461 162.617 40.2848 162.975 40.1623C163.332 40.0347 163.641 39.8458 163.901 39.5957C164.161 39.3455 164.361 39.0367 164.498 38.6691L166.665 39.0597C166.492 39.6978 166.18 40.2567 165.731 40.7366C165.287 41.2113 164.728 41.5814 164.054 41.8469C163.386 42.1072 162.622 42.2374 161.765 42.2374ZM173.284 42.2297C172.334 42.2297 171.487 41.9872 170.742 41.5023C170.002 41.0122 169.42 40.3154 168.996 39.4119C168.577 38.5032 168.368 37.4134 168.368 36.1423C168.368 34.8712 168.58 33.7839 169.004 32.8803C169.432 31.9768 170.019 31.2851 170.765 30.8053C171.51 30.3254 172.355 30.0855 173.299 30.0855C174.029 30.0855 174.616 30.208 175.06 30.453C175.51 30.693 175.857 30.9737 176.102 31.2953C176.352 31.6169 176.546 31.9002 176.684 32.1453H176.822V26.3182H179.111V42H176.875V40.1699H176.684C176.546 40.4201 176.347 40.7059 176.086 41.0275C175.831 41.3491 175.479 41.6299 175.03 41.8698C174.581 42.1098 173.999 42.2297 173.284 42.2297ZM173.789 40.2771C174.448 40.2771 175.004 40.1036 175.459 39.7565C175.918 39.4042 176.265 38.9167 176.5 38.2939C176.74 37.6712 176.86 36.9463 176.86 36.1193C176.86 35.3026 176.742 34.5879 176.508 33.9753C176.273 33.3627 175.928 32.8855 175.474 32.5434C175.02 32.2014 174.458 32.0304 173.789 32.0304C173.1 32.0304 172.526 32.2091 172.066 32.5664C171.607 32.9237 171.26 33.4112 171.025 34.0289C170.795 34.6466 170.681 35.3434 170.681 36.1193C170.681 36.9055 170.798 37.6125 171.033 38.2403C171.268 38.8682 171.615 39.3659 172.074 39.7335C172.539 40.0959 173.11 40.2771 173.789 40.2771Z" fill="#060B13"/>
<path d="M311.5 26.179C310.657 26.179 309.969 26.9616 309.969 27.917C309.969 28.8724 310.657 29.655 311.5 29.655C312.343 29.655 313.031 28.8724 313.031 27.917C313.031 26.9616 312.343 26.179 311.5 26.179ZM311.5 38.3451C310.657 38.3451 309.969 39.1277 309.969 40.0831C309.969 41.0385 310.657 41.8211 311.5 41.8211C312.343 41.8211 313.031 41.0385 313.031 40.0831C313.031 39.1277 312.343 38.3451 311.5 38.3451ZM311.5 32.262C310.657 32.262 309.969 33.0446 309.969 34C309.969 34.9554 310.657 35.738 311.5 35.738C312.343 35.738 313.031 34.9554 313.031 34C313.031 33.0446 312.343 32.262 311.5 32.262Z" fill="#979FB4"/>
<path d="M28 76H315" stroke="#E9EBF1" stroke-width="0.875"/>
<path d="M27.2472 90.4062V95H26.0739V84.8182H27.2472V88.5568H27.3466C27.5256 88.1624 27.794 87.8492 28.152 87.6172C28.5133 87.3819 28.9938 87.2642 29.5938 87.2642C30.1141 87.2642 30.5698 87.3686 30.9609 87.5774C31.352 87.7829 31.6553 88.0994 31.8707 88.527C32.0895 88.9512 32.1989 89.4915 32.1989 90.1477V95H31.0256V90.2273C31.0256 89.6207 30.8681 89.1518 30.5533 88.8203C30.2417 88.4856 29.8092 88.3182 29.2557 88.3182C28.8712 88.3182 28.5265 88.3994 28.2216 88.5618C27.92 88.7242 27.6813 88.9612 27.5057 89.2727C27.3333 89.5843 27.2472 89.9621 27.2472 90.4062ZM37.5764 87.3636V88.358H33.619V87.3636H37.5764ZM34.7724 85.5341H35.9457V92.8125C35.9457 93.1439 35.9937 93.3925 36.0899 93.5582C36.1893 93.7206 36.3152 93.83 36.4677 93.8864C36.6235 93.9394 36.7875 93.9659 36.9599 93.9659C37.0892 93.9659 37.1952 93.9593 37.2781 93.946C37.3609 93.9295 37.4272 93.9162 37.4769 93.9062L37.7156 94.9602C37.636 94.9901 37.525 95.0199 37.3825 95.0497C37.24 95.0829 37.0593 95.0994 36.8406 95.0994C36.5091 95.0994 36.1843 95.0282 35.8661 94.8857C35.5513 94.7431 35.2894 94.526 35.0806 94.2344C34.8751 93.9427 34.7724 93.5748 34.7724 93.1307V85.5341ZM42.5723 87.3636V88.358H38.6149V87.3636H42.5723ZM39.7683 85.5341H40.9416V92.8125C40.9416 93.1439 40.9897 93.3925 41.0858 93.5582C41.1852 93.7206 41.3112 93.83 41.4636 93.8864C41.6194 93.9394 41.7835 93.9659 41.9558 93.9659C42.0851 93.9659 42.1912 93.9593 42.274 93.946C42.3569 93.9295 42.4232 93.9162 42.4729 93.9062L42.7115 94.9602C42.632 94.9901 42.5209 95.0199 42.3784 95.0497C42.2359 95.0829 42.0553 95.0994 41.8365 95.0994C41.5051 95.0994 41.1803 95.0282 40.8621 94.8857C40.5472 94.7431 40.2854 94.526 40.0766 94.2344C39.8711 93.9427 39.7683 93.5748 39.7683 93.1307V85.5341ZM44.2472 97.8636V87.3636H45.3807V88.5767H45.5199C45.6061 88.4441 45.7254 88.2751 45.8779 88.0696C46.0337 87.8608 46.2557 87.6752 46.5441 87.5128C46.8358 87.3471 47.2302 87.2642 47.7273 87.2642C48.3703 87.2642 48.9371 87.425 49.4276 87.7464C49.9182 88.0679 50.301 88.5237 50.5761 89.1136C50.8512 89.7036 50.9887 90.3996 50.9887 91.2017C50.9887 92.0104 50.8512 92.7114 50.5761 93.3047C50.301 93.8946 49.9198 94.352 49.4326 94.6768C48.9454 94.9983 48.3836 95.1591 47.7472 95.1591C47.2567 95.1591 46.8639 95.0779 46.569 94.9155C46.274 94.7498 46.0469 94.5625 45.8878 94.3537C45.7288 94.1416 45.6061 93.9659 45.5199 93.8267H45.4205V97.8636H44.2472ZM45.4006 91.1818C45.4006 91.7585 45.4851 92.2673 45.6542 92.7081C45.8232 93.1456 46.0701 93.4886 46.3949 93.7372C46.7198 93.9825 47.1175 94.1051 47.5881 94.1051C48.0787 94.1051 48.488 93.9759 48.8161 93.7173C49.1476 93.4555 49.3961 93.1042 49.5619 92.6634C49.7309 92.2192 49.8154 91.7254 49.8154 91.1818C49.8154 90.6449 49.7325 90.161 49.5668 89.7301C49.4044 89.2959 49.1575 88.9529 48.8261 88.701C48.4979 88.4458 48.0853 88.3182 47.5881 88.3182C47.1109 88.3182 46.7098 88.4392 46.385 88.6811C46.0602 88.9197 45.8149 89.2545 45.6492 89.6854C45.4835 90.1129 45.4006 90.6117 45.4006 91.1818ZM58.0976 89.0739L57.0436 89.3722C56.9773 89.1965 56.8795 89.0258 56.7503 88.8601C56.6243 88.6911 56.452 88.5518 56.2332 88.4425C56.0145 88.3331 55.7344 88.2784 55.393 88.2784C54.9257 88.2784 54.5362 88.3861 54.2247 88.6016C53.9165 88.8137 53.7623 89.0838 53.7623 89.4119C53.7623 89.7036 53.8684 89.9339 54.0805 90.103C54.2926 90.272 54.6241 90.4129 55.0748 90.5256L56.2084 90.804C56.8911 90.9697 57.3999 91.2232 57.7346 91.5646C58.0694 91.9027 58.2368 92.3385 58.2368 92.8722C58.2368 93.3097 58.1108 93.7008 57.8589 94.0455C57.6103 94.3902 57.2623 94.6619 56.8149 94.8608C56.3674 95.0597 55.8471 95.1591 55.2538 95.1591C54.4749 95.1591 53.8303 94.9901 53.3199 94.652C52.8094 94.3139 52.4863 93.8201 52.3504 93.1705L53.464 92.892C53.5701 93.303 53.7706 93.6113 54.0656 93.8168C54.3639 94.0223 54.7533 94.125 55.2339 94.125C55.7808 94.125 56.215 94.009 56.5365 93.777C56.8613 93.5417 57.0237 93.2599 57.0237 92.9318C57.0237 92.6667 56.9309 92.4446 56.7453 92.2656C56.5597 92.0833 56.2746 91.9474 55.8902 91.858L54.6174 91.5597C53.9181 91.3939 53.4044 91.1371 53.0763 90.7891C52.7514 90.4377 52.589 89.9986 52.589 89.4716C52.589 89.0407 52.71 88.6596 52.952 88.3281C53.1972 87.9967 53.5303 87.7365 53.9513 87.5476C54.3755 87.3587 54.8561 87.2642 55.393 87.2642C56.1487 87.2642 56.742 87.4299 57.1728 87.7614C57.607 88.0928 57.9153 88.5303 58.0976 89.0739ZM60.768 95.0795C60.5228 95.0795 60.3123 94.9917 60.1366 94.8161C59.961 94.6404 59.8732 94.4299 59.8732 94.1847C59.8732 93.9394 59.961 93.7289 60.1366 93.5533C60.3123 93.3776 60.5228 93.2898 60.768 93.2898C61.0133 93.2898 61.2238 93.3776 61.3994 93.5533C61.5751 93.7289 61.6629 93.9394 61.6629 94.1847C61.6629 94.3471 61.6215 94.4962 61.5386 94.6321C61.4591 94.768 61.3514 94.8774 61.2155 94.9602C61.0829 95.0398 60.9338 95.0795 60.768 95.0795ZM60.768 89.4119C60.5228 89.4119 60.3123 89.3241 60.1366 89.1484C59.961 88.9728 59.8732 88.7623 59.8732 88.517C59.8732 88.2718 59.961 88.0613 60.1366 87.8857C60.3123 87.71 60.5228 87.6222 60.768 87.6222C61.0133 87.6222 61.2238 87.71 61.3994 87.8857C61.5751 88.0613 61.6629 88.2718 61.6629 88.517C61.6629 88.6795 61.6215 88.8286 61.5386 88.9645C61.4591 89.1004 61.3514 89.2098 61.2155 89.2926C61.0829 89.3722 60.9338 89.4119 60.768 89.4119ZM67.2778 84.3409L63.9966 96.5312H62.9227L66.204 84.3409H67.2778ZM72.1781 84.3409L68.8968 96.5312H67.8229L71.1042 84.3409H72.1781ZM76.8794 87.3636V88.358H72.763V87.3636H76.8794ZM73.9959 95V86.3097C73.9959 85.8722 74.0987 85.5076 74.3041 85.2159C74.5096 84.9242 74.7764 84.7055 75.1046 84.5597C75.4327 84.4138 75.7791 84.3409 76.1436 84.3409C76.432 84.3409 76.6673 84.3641 76.8496 84.4105C77.0319 84.4569 77.1678 84.5 77.2573 84.5398L76.9192 85.554C76.8595 85.5341 76.7767 85.5092 76.6706 85.4794C76.5679 85.4496 76.432 85.4347 76.263 85.4347C75.8752 85.4347 75.5951 85.5324 75.4228 85.728C75.2537 85.9235 75.1692 86.2102 75.1692 86.5881V95H73.9959ZM81.2216 95.1591C80.5322 95.1591 79.9273 94.995 79.407 94.6669C78.8899 94.3388 78.4856 93.8797 78.1939 93.2898C77.9056 92.6998 77.7614 92.0104 77.7614 91.2216C77.7614 90.4261 77.9056 89.7318 78.1939 89.1385C78.4856 88.5452 78.8899 88.0845 79.407 87.7564C79.9273 87.4283 80.5322 87.2642 81.2216 87.2642C81.911 87.2642 82.5142 87.4283 83.0313 87.7564C83.5516 88.0845 83.956 88.5452 84.2443 89.1385C84.536 89.7318 84.6818 90.4261 84.6818 91.2216C84.6818 92.0104 84.536 92.6998 84.2443 93.2898C83.956 93.8797 83.5516 94.3388 83.0313 94.6669C82.5142 94.995 81.911 95.1591 81.2216 95.1591ZM81.2216 94.1051C81.7453 94.1051 82.1761 93.9709 82.5142 93.7024C82.8523 93.4339 83.1025 93.081 83.2649 92.6435C83.4273 92.206 83.5085 91.732 83.5085 91.2216C83.5085 90.7112 83.4273 90.2356 83.2649 89.7947C83.1025 89.3539 82.8523 88.9976 82.5142 88.7259C82.1761 88.4541 81.7453 88.3182 81.2216 88.3182C80.6979 88.3182 80.2671 88.4541 79.929 88.7259C79.5909 88.9976 79.3407 89.3539 79.1783 89.7947C79.0159 90.2356 78.9347 90.7112 78.9347 91.2216C78.9347 91.732 79.0159 92.206 79.1783 92.6435C79.3407 93.081 79.5909 93.4339 79.929 93.7024C80.2671 93.9709 80.6979 94.1051 81.2216 94.1051ZM86.3828 95V87.3636H87.5164V88.517H87.5959C87.7351 88.1392 87.987 87.8326 88.3516 87.5973C88.7162 87.362 89.1272 87.2443 89.5846 87.2443C89.6707 87.2443 89.7784 87.246 89.9077 87.2493C90.037 87.2526 90.1347 87.2576 90.201 87.2642V88.4574C90.1613 88.4474 90.0701 88.4325 89.9276 88.4126C89.7884 88.3894 89.6409 88.3778 89.4851 88.3778C89.1139 88.3778 88.7825 88.4557 88.4908 88.6115C88.2024 88.764 87.9738 88.9761 87.8047 89.2479C87.639 89.5163 87.5561 89.8229 87.5561 90.1676V95H86.3828ZM91.5018 95V87.3636H92.6354V88.5568H92.7348C92.8939 88.1491 93.1507 87.8326 93.5054 87.6072C93.86 87.3786 94.2859 87.2642 94.7831 87.2642C95.2869 87.2642 95.7061 87.3786 96.0409 87.6072C96.379 87.8326 96.6425 88.1491 96.8314 88.5568H96.9109C97.1065 88.1624 97.3998 87.8492 97.7909 87.6172C98.182 87.3819 98.651 87.2642 99.1979 87.2642C99.8806 87.2642 100.439 87.478 100.873 87.9055C101.307 88.3298 101.525 88.991 101.525 89.8892V95H100.351V89.8892C100.351 89.3258 100.197 88.9231 99.8889 88.6811C99.5807 88.4392 99.2177 88.3182 98.8001 88.3182C98.2632 88.3182 97.8472 88.4806 97.5523 88.8054C97.2573 89.1269 97.1098 89.5346 97.1098 90.0284V95H95.9166V89.7699C95.9166 89.3357 95.7757 88.986 95.494 88.7209C95.2123 88.4524 94.8494 88.3182 94.4052 88.3182C94.1003 88.3182 93.8153 88.3994 93.5501 88.5618C93.2883 88.7242 93.0762 88.9496 92.9138 89.2379C92.7547 89.523 92.6751 89.8527 92.6751 90.2273V95H91.5018ZM109.551 87.3636L106.727 95H105.534L102.71 87.3636H103.982L106.09 93.4489H106.17L108.278 87.3636H109.551ZM111.009 95V87.3636H112.183V95H111.009ZM111.606 86.0909C111.377 86.0909 111.18 86.013 111.014 85.8572C110.852 85.7015 110.771 85.5142 110.771 85.2955C110.771 85.0767 110.852 84.8894 111.014 84.7337C111.18 84.5779 111.377 84.5 111.606 84.5C111.835 84.5 112.03 84.5779 112.193 84.7337C112.358 84.8894 112.441 85.0767 112.441 85.2955C112.441 85.5142 112.358 85.7015 112.193 85.8572C112.03 86.013 111.835 86.0909 111.606 86.0909ZM120.486 87.3636L117.662 95H116.469L113.645 87.3636H114.918L117.026 93.4489H117.105L119.213 87.3636H120.486ZM124.873 95.1591C124.137 95.1591 123.502 94.9967 122.969 94.6719C122.438 94.3438 122.029 93.8864 121.741 93.2997C121.456 92.7098 121.313 92.0237 121.313 91.2415C121.313 90.4593 121.456 89.7699 121.741 89.1733C122.029 88.5734 122.43 88.1061 122.944 87.7713C123.461 87.4332 124.064 87.2642 124.754 87.2642C125.151 87.2642 125.544 87.3305 125.932 87.4631C126.32 87.5956 126.673 87.8111 126.991 88.1094C127.309 88.4044 127.562 88.7955 127.751 89.2827C127.94 89.7699 128.035 90.3698 128.035 91.0824V91.5795H122.148V90.5653H126.842C126.842 90.1345 126.755 89.75 126.583 89.4119C126.414 89.0739 126.172 88.8071 125.857 88.6115C125.546 88.416 125.178 88.3182 124.754 88.3182C124.286 88.3182 123.882 88.4342 123.54 88.6662C123.202 88.8949 122.942 89.1932 122.76 89.5611C122.578 89.929 122.486 90.3234 122.486 90.7443V91.4205C122.486 91.9972 122.586 92.486 122.785 92.8871C122.987 93.2848 123.267 93.5881 123.625 93.7969C123.983 94.0024 124.399 94.1051 124.873 94.1051C125.181 94.1051 125.459 94.062 125.708 93.9759C125.96 93.8864 126.177 93.7538 126.359 93.5781C126.542 93.3991 126.682 93.1771 126.782 92.9119L127.915 93.2301C127.796 93.6146 127.596 93.9527 127.314 94.2443C127.032 94.5327 126.684 94.758 126.27 94.9205C125.856 95.0795 125.39 95.1591 124.873 95.1591ZM130.585 95.0795C130.339 95.0795 130.129 94.9917 129.953 94.8161C129.778 94.6404 129.69 94.4299 129.69 94.1847C129.69 93.9394 129.778 93.7289 129.953 93.5533C130.129 93.3776 130.339 93.2898 130.585 93.2898C130.83 93.2898 131.04 93.3776 131.216 93.5533C131.392 93.7289 131.48 93.9394 131.48 94.1847C131.48 94.3471 131.438 94.4962 131.355 94.6321C131.276 94.768 131.168 94.8774 131.032 94.9602C130.9 95.0398 130.75 95.0795 130.585 95.0795ZM136.597 95.1591C135.881 95.1591 135.265 94.9901 134.748 94.652C134.231 94.3139 133.833 93.8482 133.555 93.255C133.276 92.6617 133.137 91.9839 133.137 91.2216C133.137 90.446 133.28 89.7616 133.565 89.1683C133.853 88.5717 134.254 88.1061 134.768 87.7713C135.285 87.4332 135.888 87.2642 136.577 87.2642C137.114 87.2642 137.598 87.3636 138.029 87.5625C138.46 87.7614 138.813 88.0398 139.088 88.3977C139.363 88.7557 139.534 89.1733 139.6 89.6506H138.427C138.337 89.3026 138.139 88.9943 137.83 88.7259C137.525 88.4541 137.114 88.3182 136.597 88.3182C136.14 88.3182 135.739 88.4375 135.394 88.6761C135.053 88.9115 134.786 89.2446 134.594 89.6754C134.405 90.103 134.31 90.6051 134.31 91.1818C134.31 91.7718 134.403 92.2855 134.589 92.723C134.778 93.1605 135.043 93.5002 135.384 93.7422C135.729 93.9841 136.133 94.1051 136.597 94.1051C136.902 94.1051 137.179 94.0521 137.428 93.946C137.676 93.84 137.887 93.6875 138.059 93.4886C138.231 93.2898 138.354 93.0511 138.427 92.7727H139.6C139.534 93.2235 139.37 93.6295 139.108 93.9908C138.849 94.3487 138.506 94.6338 138.079 94.8459C137.655 95.0547 137.161 95.1591 136.597 95.1591ZM144.328 95.1591C143.638 95.1591 143.033 94.995 142.513 94.6669C141.996 94.3388 141.592 93.8797 141.3 93.2898C141.012 92.6998 140.867 92.0104 140.867 91.2216C140.867 90.4261 141.012 89.7318 141.3 89.1385C141.592 88.5452 141.996 88.0845 142.513 87.7564C143.033 87.4283 143.638 87.2642 144.328 87.2642C145.017 87.2642 145.62 87.4283 146.137 87.7564C146.658 88.0845 147.062 88.5452 147.35 89.1385C147.642 89.7318 147.788 90.4261 147.788 91.2216C147.788 92.0104 147.642 92.6998 147.35 93.2898C147.062 93.8797 146.658 94.3388 146.137 94.6669C145.62 94.995 145.017 95.1591 144.328 95.1591ZM144.328 94.1051C144.851 94.1051 145.282 93.9709 145.62 93.7024C145.958 93.4339 146.209 93.081 146.371 92.6435C146.533 92.206 146.615 91.732 146.615 91.2216C146.615 90.7112 146.533 90.2356 146.371 89.7947C146.209 89.3539 145.958 88.9976 145.62 88.7259C145.282 88.4541 144.851 88.3182 144.328 88.3182C143.804 88.3182 143.373 88.4541 143.035 88.7259C142.697 88.9976 142.447 89.3539 142.284 89.7947C142.122 90.2356 142.041 90.7112 142.041 91.2216C142.041 91.732 142.122 92.206 142.284 92.6435C142.447 93.081 142.697 93.4339 143.035 93.7024C143.373 93.9709 143.804 94.1051 144.328 94.1051ZM149.489 95V87.3636H150.622V88.5568H150.722C150.881 88.1491 151.138 87.8326 151.492 87.6072C151.847 87.3786 152.273 87.2642 152.77 87.2642C153.274 87.2642 153.693 87.3786 154.028 87.6072C154.366 87.8326 154.629 88.1491 154.818 88.5568H154.898C155.094 88.1624 155.387 87.8492 155.778 87.6172C156.169 87.3819 156.638 87.2642 157.185 87.2642C157.868 87.2642 158.426 87.478 158.86 87.9055C159.294 88.3298 159.512 88.991 159.512 89.8892V95H158.338V89.8892C158.338 89.3258 158.184 88.9231 157.876 88.6811C157.568 88.4392 157.205 88.3182 156.787 88.3182C156.25 88.3182 155.834 88.4806 155.539 88.8054C155.244 89.1269 155.097 89.5346 155.097 90.0284V95H153.904V89.7699C153.904 89.3357 153.763 88.986 153.481 88.7209C153.199 88.4524 152.836 88.3182 152.392 88.3182C152.087 88.3182 151.802 88.3994 151.537 88.5618C151.275 88.7242 151.063 88.9496 150.901 89.2379C150.742 89.523 150.662 89.8527 150.662 90.2273V95H149.489ZM165.166 84.3409L161.885 96.5312H160.811L164.092 84.3409H165.166ZM171.876 89.0739L170.822 89.3722C170.756 89.1965 170.658 89.0258 170.529 88.8601C170.403 88.6911 170.231 88.5518 170.012 88.4425C169.793 88.3331 169.513 88.2784 169.172 88.2784C168.704 88.2784 168.315 88.3861 168.003 88.6016C167.695 88.8137 167.541 89.0838 167.541 89.4119C167.541 89.7036 167.647 89.9339 167.859 90.103C168.071 90.272 168.403 90.4129 168.853 90.5256L169.987 90.804C170.67 90.9697 171.178 91.2232 171.513 91.5646C171.848 91.9027 172.015 92.3385 172.015 92.8722C172.015 93.3097 171.889 93.7008 171.638 94.0455C171.389 94.3902 171.041 94.6619 170.593 94.8608C170.146 95.0597 169.626 95.1591 169.032 95.1591C168.254 95.1591 167.609 94.9901 167.098 94.652C166.588 94.3139 166.265 93.8201 166.129 93.1705L167.243 92.892C167.349 93.303 167.549 93.6113 167.844 93.8168C168.142 94.0223 168.532 94.125 169.013 94.125C169.559 94.125 169.994 94.009 170.315 93.777C170.64 93.5417 170.802 93.2599 170.802 92.9318C170.802 92.6667 170.709 92.4446 170.524 92.2656C170.338 92.0833 170.053 91.9474 169.669 91.858L168.396 91.5597C167.697 91.3939 167.183 91.1371 166.855 90.7891C166.53 90.4377 166.368 89.9986 166.368 89.4716C166.368 89.0407 166.489 88.6596 166.731 88.3281C166.976 87.9967 167.309 87.7365 167.73 87.5476C168.154 87.3587 168.635 87.2642 169.172 87.2642C169.927 87.2642 170.521 87.4299 170.951 87.7614C171.386 88.0928 171.694 88.5303 171.876 89.0739ZM177.291 84.3409L174.01 96.5312H172.936L176.217 84.3409H177.291ZM179.765 84.8182V95H178.592V84.8182H179.765ZM184.071 95.179C183.587 95.179 183.148 95.0878 182.754 94.9055C182.359 94.7199 182.046 94.4531 181.814 94.1051C181.582 93.7538 181.466 93.3295 181.466 92.8324C181.466 92.3949 181.552 92.0402 181.725 91.7685C181.897 91.4934 182.127 91.2779 182.416 91.1222C182.704 90.9664 183.022 90.8504 183.37 90.7741C183.722 90.6946 184.074 90.6316 184.429 90.5852C184.893 90.5256 185.269 90.4808 185.558 90.451C185.849 90.4179 186.061 90.3632 186.194 90.2869C186.33 90.2107 186.398 90.0781 186.398 89.8892V89.8494C186.398 89.3589 186.264 88.9777 185.995 88.706C185.73 88.4342 185.327 88.2983 184.787 88.2983C184.227 88.2983 183.788 88.4209 183.47 88.6662C183.151 88.9115 182.928 89.1733 182.798 89.4517L181.685 89.054C181.884 88.59 182.149 88.2287 182.48 87.9702C182.815 87.7083 183.18 87.526 183.574 87.4233C183.972 87.3172 184.363 87.2642 184.747 87.2642C184.993 87.2642 185.274 87.294 185.592 87.3537C185.914 87.41 186.224 87.5277 186.522 87.7067C186.824 87.8857 187.074 88.1558 187.273 88.517C187.472 88.8783 187.571 89.3622 187.571 89.9688V95H186.398V93.9659H186.338C186.259 94.1316 186.126 94.3089 185.94 94.4979C185.755 94.6868 185.508 94.8475 185.2 94.9801C184.891 95.1127 184.515 95.179 184.071 95.179ZM184.25 94.125C184.714 94.125 185.105 94.0339 185.423 93.8516C185.745 93.6693 185.987 93.4339 186.149 93.1456C186.315 92.8572 186.398 92.554 186.398 92.2358V91.1619C186.348 91.2216 186.239 91.2763 186.07 91.326C185.904 91.3724 185.712 91.4138 185.493 91.4503C185.278 91.4834 185.067 91.5133 184.862 91.5398C184.659 91.563 184.495 91.5829 184.369 91.5994C184.065 91.6392 183.78 91.7038 183.514 91.7933C183.253 91.8795 183.04 92.0104 182.878 92.1861C182.719 92.3584 182.639 92.5937 182.639 92.892C182.639 93.2997 182.79 93.608 183.092 93.8168C183.397 94.0223 183.783 94.125 184.25 94.125ZM194.435 91.8778V87.3636H195.608V95H194.435V93.7074H194.356C194.177 94.0952 193.898 94.425 193.52 94.6967C193.143 94.9652 192.665 95.0994 192.089 95.0994C191.611 95.0994 191.187 94.995 190.816 94.7862C190.445 94.5741 190.153 94.2559 189.941 93.8317C189.729 93.4041 189.623 92.8655 189.623 92.2159V87.3636H190.796V92.1364C190.796 92.6932 190.952 93.1373 191.263 93.4688C191.578 93.8002 191.979 93.9659 192.466 93.9659C192.758 93.9659 193.055 93.8913 193.356 93.7422C193.661 93.593 193.916 93.3643 194.122 93.0561C194.331 92.7479 194.435 92.3551 194.435 91.8778ZM198.841 90.4062V95H197.667V87.3636H198.801V88.5568H198.9C199.079 88.169 199.351 87.8575 199.716 87.6222C200.08 87.3835 200.551 87.2642 201.128 87.2642C201.645 87.2642 202.097 87.3703 202.485 87.5824C202.873 87.7912 203.174 88.1094 203.39 88.5369C203.605 88.9612 203.713 89.4981 203.713 90.1477V95H202.54V90.2273C202.54 89.6274 202.384 89.16 202.072 88.8253C201.761 88.4872 201.333 88.3182 200.79 88.3182C200.415 88.3182 200.08 88.3994 199.785 88.5618C199.494 88.7242 199.263 88.9612 199.094 89.2727C198.925 89.5843 198.841 89.9621 198.841 90.4062ZM208.869 95.1591C208.153 95.1591 207.537 94.9901 207.02 94.652C206.503 94.3139 206.105 93.8482 205.827 93.255C205.548 92.6617 205.409 91.9839 205.409 91.2216C205.409 90.446 205.551 89.7616 205.837 89.1683C206.125 88.5717 206.526 88.1061 207.04 87.7713C207.557 87.4332 208.16 87.2642 208.849 87.2642C209.386 87.2642 209.87 87.3636 210.301 87.5625C210.732 87.7614 211.085 88.0398 211.36 88.3977C211.635 88.7557 211.806 89.1733 211.872 89.6506H210.699C210.609 89.3026 210.41 88.9943 210.102 88.7259C209.797 88.4541 209.386 88.3182 208.869 88.3182C208.412 88.3182 208.011 88.4375 207.666 88.6761C207.325 88.9115 207.058 89.2446 206.866 89.6754C206.677 90.103 206.582 90.6051 206.582 91.1818C206.582 91.7718 206.675 92.2855 206.861 92.723C207.05 93.1605 207.315 93.5002 207.656 93.7422C208.001 93.9841 208.405 94.1051 208.869 94.1051C209.174 94.1051 209.451 94.0521 209.699 93.946C209.948 93.84 210.158 93.6875 210.331 93.4886C210.503 93.2898 210.626 93.0511 210.699 92.7727H211.872C211.806 93.2235 211.642 93.6295 211.38 93.9908C211.121 94.3487 210.778 94.6338 210.351 94.8459C209.926 95.0547 209.433 95.1591 208.869 95.1591ZM214.671 90.4062V95H213.497V84.8182H214.671V88.5568H214.77C214.949 88.1624 215.217 87.8492 215.575 87.6172C215.937 87.3819 216.417 87.2642 217.017 87.2642C217.537 87.2642 217.993 87.3686 218.384 87.5774C218.775 87.7829 219.079 88.0994 219.294 88.527C219.513 88.9512 219.622 89.4915 219.622 90.1477V95H218.449V90.2273C218.449 89.6207 218.291 89.1518 217.977 88.8203C217.665 88.4856 217.233 88.3182 216.679 88.3182C216.295 88.3182 215.95 88.3994 215.645 88.5618C215.343 88.7242 215.105 88.9612 214.929 89.2727C214.757 89.5843 214.671 89.9621 214.671 90.4062ZM226.054 90.0881V91.1818H221.599V90.0881H226.054ZM231.429 87.3636V88.358H227.312V87.3636H231.429ZM228.545 95V86.3097C228.545 85.8722 228.648 85.5076 228.853 85.2159C229.059 84.9242 229.326 84.7055 229.654 84.5597C229.982 84.4138 230.328 84.3409 230.693 84.3409C230.981 84.3409 231.217 84.3641 231.399 84.4105C231.581 84.4569 231.717 84.5 231.807 84.5398L231.469 85.554C231.409 85.5341 231.326 85.5092 231.22 85.4794C231.117 85.4496 230.981 85.4347 230.812 85.4347C230.424 85.4347 230.144 85.5324 229.972 85.728C229.803 85.9235 229.719 86.2102 229.719 86.5881V95H228.545ZM235.87 95.1591C235.135 95.1591 234.5 94.9967 233.966 94.6719C233.436 94.3438 233.027 93.8864 232.738 93.2997C232.453 92.7098 232.311 92.0237 232.311 91.2415C232.311 90.4593 232.453 89.7699 232.738 89.1733C233.027 88.5734 233.428 88.1061 233.941 87.7713C234.458 87.4332 235.062 87.2642 235.751 87.2642C236.149 87.2642 236.542 87.3305 236.929 87.4631C237.317 87.5956 237.67 87.8111 237.988 88.1094C238.306 88.4044 238.56 88.7955 238.749 89.2827C238.938 89.7699 239.032 90.3698 239.032 91.0824V91.5795H233.146V90.5653H237.839C237.839 90.1345 237.753 89.75 237.581 89.4119C237.412 89.0739 237.17 88.8071 236.855 88.6115C236.543 88.416 236.175 88.3182 235.751 88.3182C235.284 88.3182 234.879 88.4342 234.538 88.6662C234.2 88.8949 233.94 89.1932 233.757 89.5611C233.575 89.929 233.484 90.3234 233.484 90.7443V91.4205C233.484 91.9972 233.583 92.486 233.782 92.8871C233.984 93.2848 234.265 93.5881 234.622 93.7969C234.98 94.0024 235.396 94.1051 235.87 94.1051C236.179 94.1051 236.457 94.062 236.706 93.9759C236.957 93.8864 237.175 93.7538 237.357 93.5781C237.539 93.3991 237.68 93.1771 237.779 92.9119L238.913 93.2301C238.794 93.6146 238.593 93.9527 238.311 94.2443C238.03 94.5327 237.682 94.758 237.267 94.9205C236.853 95.0795 236.387 95.1591 235.87 95.1591ZM243.929 95.1591C243.193 95.1591 242.558 94.9967 242.025 94.6719C241.494 94.3438 241.085 93.8864 240.797 93.2997C240.512 92.7098 240.369 92.0237 240.369 91.2415C240.369 90.4593 240.512 89.7699 240.797 89.1733C241.085 88.5734 241.486 88.1061 242 87.7713C242.517 87.4332 243.12 87.2642 243.809 87.2642C244.207 87.2642 244.6 87.3305 244.988 87.4631C245.375 87.5956 245.728 87.8111 246.047 88.1094C246.365 88.4044 246.618 88.7955 246.807 89.2827C246.996 89.7699 247.091 90.3698 247.091 91.0824V91.5795H241.204V90.5653H245.898C245.898 90.1345 245.811 89.75 245.639 89.4119C245.47 89.0739 245.228 88.8071 244.913 88.6115C244.602 88.416 244.234 88.3182 243.809 88.3182C243.342 88.3182 242.938 88.4342 242.596 88.6662C242.258 88.8949 241.998 89.1932 241.816 89.5611C241.634 89.929 241.542 90.3234 241.542 90.7443V91.4205C241.542 91.9972 241.642 92.486 241.841 92.8871C242.043 93.2848 242.323 93.5881 242.681 93.7969C243.039 94.0024 243.455 94.1051 243.929 94.1051C244.237 94.1051 244.515 94.062 244.764 93.9759C245.016 93.8864 245.233 93.7538 245.415 93.5781C245.598 93.3991 245.738 93.1771 245.838 92.9119L246.971 93.2301C246.852 93.6146 246.652 93.9527 246.37 94.2443C246.088 94.5327 245.74 94.758 245.326 94.9205C244.911 95.0795 244.446 95.1591 243.929 95.1591ZM251.669 95.1591C251.033 95.1591 250.471 94.9983 249.984 94.6768C249.496 94.352 249.115 93.8946 248.84 93.3047C248.565 92.7114 248.428 92.0104 248.428 91.2017C248.428 90.3996 248.565 89.7036 248.84 89.1136C249.115 88.5237 249.498 88.0679 249.989 87.7464C250.479 87.425 251.046 87.2642 251.689 87.2642C252.186 87.2642 252.579 87.3471 252.867 87.5128C253.159 87.6752 253.381 87.8608 253.533 88.0696C253.689 88.2751 253.81 88.4441 253.896 88.5767H253.996V84.8182H255.169V95H254.036V93.8267H253.896C253.81 93.9659 253.687 94.1416 253.528 94.3537C253.369 94.5625 253.142 94.7498 252.847 94.9155C252.552 95.0779 252.16 95.1591 251.669 95.1591ZM251.828 94.1051C252.299 94.1051 252.696 93.9825 253.021 93.7372C253.346 93.4886 253.593 93.1456 253.762 92.7081C253.931 92.2673 254.016 91.7585 254.016 91.1818C254.016 90.6117 253.933 90.1129 253.767 89.6854C253.601 89.2545 253.356 88.9197 253.031 88.6811C252.706 88.4392 252.305 88.3182 251.828 88.3182C251.331 88.3182 250.917 88.4458 250.585 88.701C250.257 88.9529 250.01 89.2959 249.844 89.7301C249.682 90.161 249.601 90.6449 249.601 91.1818C249.601 91.7254 249.684 92.2192 249.849 92.6634C250.018 93.1042 250.267 93.4555 250.595 93.7173C250.927 93.9759 251.338 94.1051 251.828 94.1051ZM257.55 95V84.8182H258.723V88.5767H258.823C258.909 88.4441 259.028 88.2751 259.181 88.0696C259.336 87.8608 259.558 87.6752 259.847 87.5128C260.138 87.3471 260.533 87.2642 261.03 87.2642C261.673 87.2642 262.24 87.425 262.73 87.7464C263.221 88.0679 263.604 88.5237 263.879 89.1136C264.154 89.7036 264.291 90.3996 264.291 91.2017C264.291 92.0104 264.154 92.7114 263.879 93.3047C263.604 93.8946 263.222 94.352 262.735 94.6768C262.248 94.9983 261.686 95.1591 261.05 95.1591C260.559 95.1591 260.167 95.0779 259.872 94.9155C259.577 94.7498 259.35 94.5625 259.191 94.3537C259.031 94.1416 258.909 93.9659 258.823 93.8267H258.683V95H257.55ZM258.703 91.1818C258.703 91.7585 258.788 92.2673 258.957 92.7081C259.126 93.1456 259.373 93.4886 259.698 93.7372C260.022 93.9825 260.42 94.1051 260.891 94.1051C261.381 94.1051 261.791 93.9759 262.119 93.7173C262.45 93.4555 262.699 93.1042 262.865 92.6634C263.034 92.2192 263.118 91.7254 263.118 91.1818C263.118 90.6449 263.035 90.161 262.87 89.7301C262.707 89.2959 262.46 88.9529 262.129 88.701C261.801 88.4458 261.388 88.3182 260.891 88.3182C260.414 88.3182 260.013 88.4392 259.688 88.6811C259.363 88.9197 259.118 89.2545 258.952 89.6854C258.786 90.1129 258.703 90.6117 258.703 91.1818ZM268.243 95.179C267.759 95.179 267.32 95.0878 266.926 94.9055C266.531 94.7199 266.218 94.4531 265.986 94.1051C265.754 93.7538 265.638 93.3295 265.638 92.8324C265.638 92.3949 265.724 92.0402 265.897 91.7685C266.069 91.4934 266.299 91.2779 266.588 91.1222C266.876 90.9664 267.194 90.8504 267.542 90.7741C267.894 90.6946 268.247 90.6316 268.601 90.5852C269.065 90.5256 269.441 90.4808 269.73 90.451C270.021 90.4179 270.234 90.3632 270.366 90.2869C270.502 90.2107 270.57 90.0781 270.57 89.8892V89.8494C270.57 89.3589 270.436 88.9777 270.167 88.706C269.902 88.4342 269.499 88.2983 268.959 88.2983C268.399 88.2983 267.96 88.4209 267.642 88.6662C267.324 88.9115 267.1 89.1733 266.971 89.4517L265.857 89.054C266.056 88.59 266.321 88.2287 266.652 87.9702C266.987 87.7083 267.352 87.526 267.746 87.4233C268.144 87.3172 268.535 87.2642 268.919 87.2642C269.165 87.2642 269.446 87.294 269.765 87.3537C270.086 87.41 270.396 87.5277 270.694 87.7067C270.996 87.8857 271.246 88.1558 271.445 88.517C271.644 88.8783 271.743 89.3622 271.743 89.9688V95H270.57V93.9659H270.51C270.431 94.1316 270.298 94.3089 270.113 94.4979C269.927 94.6868 269.68 94.8475 269.372 94.9801C269.064 95.1127 268.687 95.179 268.243 95.179ZM268.422 94.125C268.886 94.125 269.277 94.0339 269.596 93.8516C269.917 93.6693 270.159 93.4339 270.321 93.1456C270.487 92.8572 270.57 92.554 270.57 92.2358V91.1619C270.52 91.2216 270.411 91.2763 270.242 91.326C270.076 91.3724 269.884 91.4138 269.665 91.4503C269.45 91.4834 269.239 91.5133 269.034 91.5398C268.832 91.563 268.668 91.5829 268.542 91.5994C268.237 91.6392 267.952 91.7038 267.686 91.7933C267.425 91.8795 267.213 92.0104 267.05 92.1861C266.891 92.3584 266.811 92.5937 266.811 92.892C266.811 93.2997 266.962 93.608 267.264 93.8168C267.569 94.0223 267.955 94.125 268.422 94.125ZM276.897 95.1591C276.181 95.1591 275.565 94.9901 275.048 94.652C274.531 94.3139 274.133 93.8482 273.854 93.255C273.576 92.6617 273.437 91.9839 273.437 91.2216C273.437 90.446 273.579 89.7616 273.864 89.1683C274.153 88.5717 274.554 88.1061 275.068 87.7713C275.585 87.4332 276.188 87.2642 276.877 87.2642C277.414 87.2642 277.898 87.3636 278.329 87.5625C278.76 87.7614 279.113 88.0398 279.388 88.3977C279.663 88.7557 279.834 89.1733 279.9 89.6506H278.727C278.637 89.3026 278.438 88.9943 278.13 88.7259C277.825 88.4541 277.414 88.3182 276.897 88.3182C276.44 88.3182 276.039 88.4375 275.694 88.6761C275.353 88.9115 275.086 89.2446 274.894 89.6754C274.705 90.103 274.61 90.6051 274.61 91.1818C274.61 91.7718 274.703 92.2855 274.889 92.723C275.077 93.1605 275.343 93.5002 275.684 93.7422C276.029 93.9841 276.433 94.1051 276.897 94.1051C277.202 94.1051 277.479 94.0521 277.727 93.946C277.976 93.84 278.186 93.6875 278.359 93.4886C278.531 93.2898 278.654 93.0511 278.727 92.7727H279.9C279.834 93.2235 279.67 93.6295 279.408 93.9908C279.149 94.3487 278.806 94.6338 278.379 94.8459C277.954 95.0547 277.461 95.1591 276.897 95.1591ZM282.619 92.2159L282.599 90.7642H282.838L286.179 87.3636H287.63L284.071 90.9631H283.971L282.619 92.2159ZM281.525 95V84.8182H282.698V95H281.525ZM286.377 95L283.394 91.2216L284.23 90.4062L287.869 95H286.377Z" fill="#363D4F"/>
<path fill-rule="evenodd" clip-rule="evenodd" d="M310.5 80.5416H307.12C305.588 80.5416 304.375 80.5416 303.426 80.6691C302.449 80.8008 301.658 81.0775 301.034 81.7008C300.411 82.325 300.134 83.1158 300.003 84.0925C299.875 85.0425 299.875 86.255 299.875 87.7866V92.8333C299.875 93.5779 300.141 94.298 300.624 94.864C301.108 95.4301 301.778 95.8048 302.513 95.9208C302.627 96.5575 302.848 97.1008 303.29 97.5433C303.792 98.045 304.423 98.26 305.173 98.3616C305.896 98.4583 306.815 98.4583 307.954 98.4583H310.546C311.685 98.4583 312.604 98.4583 313.327 98.3616C314.077 98.26 314.708 98.045 315.21 97.5433C315.712 97.0416 315.927 96.41 316.028 95.66C316.125 94.9375 316.125 94.0183 316.125 92.8791V88.6208C316.125 87.4816 316.125 86.5625 316.028 85.84C315.927 85.09 315.712 84.4583 315.21 83.9566C314.767 83.515 314.224 83.2941 313.587 83.18C313.472 82.4445 313.097 81.7746 312.531 81.2909C311.965 80.8072 311.245 80.5415 310.5 80.5416ZM312.275 83.0591C312.148 82.6891 311.909 82.368 311.591 82.1407C311.272 81.9135 310.891 81.7914 310.5 81.7916H307.167C305.577 81.7916 304.449 81.7933 303.592 81.9083C302.754 82.0208 302.271 82.2325 301.918 82.585C301.566 82.9375 301.354 83.4208 301.242 84.2583C301.127 85.1158 301.125 86.2441 301.125 87.8333V92.8333C301.125 93.2244 301.247 93.6058 301.474 93.9241C301.701 94.2423 302.022 94.4816 302.392 94.6083C302.375 94.1 302.375 93.525 302.375 92.8791V88.6208C302.375 87.4816 302.375 86.5625 302.473 85.84C302.572 85.09 302.789 84.4583 303.29 83.9566C303.792 83.455 304.423 83.24 305.173 83.1391C305.896 83.0416 306.815 83.0416 307.954 83.0416H310.546C311.192 83.0416 311.767 83.0416 312.275 83.0591ZM304.173 84.8416C304.404 84.6108 304.727 84.4608 305.34 84.3783C305.968 84.2941 306.803 84.2925 307.999 84.2925H310.499C311.695 84.2925 312.529 84.2941 313.159 84.3783C313.771 84.4608 314.094 84.6116 314.325 84.8416C314.556 85.0725 314.706 85.3958 314.788 86.0083C314.872 86.6366 314.874 87.4716 314.874 88.6675V92.8341C314.874 94.03 314.872 94.8641 314.788 95.4941C314.706 96.1058 314.555 96.4291 314.325 96.66C314.094 96.8908 313.771 97.0408 313.158 97.1233C312.529 97.2075 311.695 97.2091 310.499 97.2091H307.999C306.803 97.2091 305.968 97.2075 305.339 97.1233C304.727 97.0408 304.404 96.89 304.173 96.66C303.943 96.4291 303.793 96.1058 303.71 95.4933C303.626 94.8641 303.624 94.03 303.624 92.8341V88.6675C303.624 87.4716 303.626 86.6366 303.71 86.0075C303.793 85.3958 303.943 85.0725 304.173 84.8416Z" fill="#545454"/>
<path d="M3.5 175.678H66.5" stroke="black" stroke-width="0.875"/>
<path d="M3.5 175.678H66.5" stroke="black" stroke-opacity="0.24" stroke-width="0.875"/>
<path d="M339.5 176.671H262.5" stroke="black" stroke-width="0.875"/>
<path d="M339.5 176.671H262.5" stroke="url(#paint0_linear_8_7237)" stroke-opacity="0.24" stroke-width="0.875"/>
<path d="M178.5 176.671H150.5" stroke="#E9EBF1" stroke-width="0.875"/>
<path d="M150.062 176.175C150.062 150.121 131.454 129 108.5 129C85.5457 129 66.9375 150.121 66.9375 176.175C66.9375 202.229 85.5457 223.349 108.5 223.349C131.454 223.349 150.062 202.229 150.062 176.175Z" fill="url(#paint1_linear_8_7237)" fill-opacity="0.48"/>
<path d="M150.062 176.175C150.062 150.121 131.454 129 108.5 129C85.5457 129 66.9375 150.121 66.9375 176.175C66.9375 202.229 85.5457 223.349 108.5 223.349C131.454 223.349 150.062 202.229 150.062 176.175Z" stroke="#E9EBF1" stroke-width="0.875"/>
<path d="M150.062 176.175C150.062 150.121 131.454 129 108.5 129C85.5457 129 66.9375 150.121 66.9375 176.175C66.9375 202.229 85.5457 223.349 108.5 223.349C131.454 223.349 150.062 202.229 150.062 176.175Z" stroke="url(#paint2_linear_8_7237)" stroke-width="0.875"/>
<path d="M178.938 176.175C178.938 150.121 197.546 129 220.5 129C243.454 129 262.062 150.121 262.062 176.175C262.062 202.229 243.454 223.349 220.5 223.349C197.546 223.349 178.938 202.229 178.938 176.175Z" fill="url(#paint3_linear_8_7237)" fill-opacity="0.48"/>
<path d="M178.938 176.175C178.938 150.121 197.546 129 220.5 129C243.454 129 262.062 150.121 262.062 176.175C262.062 202.229 243.454 223.349 220.5 223.349C197.546 223.349 178.938 202.229 178.938 176.175Z" stroke="#E9EBF1" stroke-width="0.875"/>
<path d="M178.938 176.175C178.938 150.121 197.546 129 220.5 129C243.454 129 262.062 150.121 262.062 176.175C262.062 202.229 243.454 223.349 220.5 223.349C197.546 223.349 178.938 202.229 178.938 176.175Z" stroke="url(#paint4_linear_8_7237)" stroke-width="0.875"/>
<path d="M212.4 177C212.4 175.29 213.79 173.9 215.5 173.9H219.5V172H215.5C212.74 172 210.5 174.24 210.5 177C210.5 179.76 212.74 182 215.5 182H219.5V180.1H215.5C213.79 180.1 212.4 178.71 212.4 177ZM216.5 178H224.5V176H216.5V178ZM225.5 172H221.5V173.9H225.5C227.21 173.9 228.6 175.29 228.6 177C228.6 178.71 227.21 180.1 225.5 180.1H221.5V182H225.5C228.26 182 230.5 179.76 230.5 177C230.5 174.24 228.26 172 225.5 172Z" fill="black"/>
<path d="M105.2 175.7L111.8 172.3M105.2 178.3L111.8 181.7M99.5 177C99.5 177.796 99.8161 178.559 100.379 179.121C100.941 179.684 101.704 180 102.5 180C103.296 180 104.059 179.684 104.621 179.121C105.184 178.559 105.5 177.796 105.5 177C105.5 176.204 105.184 175.441 104.621 174.879C104.059 174.316 103.296 174 102.5 174C101.704 174 100.941 174.316 100.379 174.879C99.8161 175.441 99.5 176.204 99.5 177ZM111.5 171C111.5 171.796 111.816 172.559 112.379 173.121C112.941 173.684 113.704 174 114.5 174C115.296 174 116.059 173.684 116.621 173.121C117.184 172.559 117.5 171.796 117.5 171C117.5 170.204 117.184 169.441 116.621 168.879C116.059 168.316 115.296 168 114.5 168C113.704 168 112.941 168.316 112.379 168.879C111.816 169.441 111.5 170.204 111.5 171ZM111.5 183C111.5 183.796 111.816 184.559 112.379 185.121C112.941 185.684 113.704 186 114.5 186C115.296 186 116.059 185.684 116.621 185.121C117.184 184.559 117.5 183.796 117.5 183C117.5 182.204 117.184 181.441 116.621 180.879C116.059 180.316 115.296 180 114.5 180C113.704 180 112.941 180.316 112.379 180.879C111.816 181.441 111.5 182.204 111.5 183Z" stroke="black" stroke-width="2" stroke-linecap="round" stroke-linejoin="round"/>
<defs>
<linearGradient id="paint0_linear_8_7237" x1="-nan" y1="-nan" x2="-nan" y2="-nan" gradientUnits="userSpaceOnUse">
<stop stop-color="white"/>
<stop offset="1" stop-color="white" stop-opacity="0"/>
</linearGradient>
<linearGradient id="paint1_linear_8_7237" x1="108.5" y1="176.175" x2="70.4375" y2="176.175" gradientUnits="userSpaceOnUse">
<stop stop-color="#F7F8FA" stop-opacity="0"/>
<stop offset="1" stop-color="#F7F8FA"/>
</linearGradient>
<linearGradient id="paint2_linear_8_7237" x1="66.5" y1="176.175" x2="150.5" y2="176.175" gradientUnits="userSpaceOnUse">
<stop/>
<stop offset="0.349"/>
<stop offset="1" stop-color="white" stop-opacity="0"/>
</linearGradient>
<linearGradient id="paint3_linear_8_7237" x1="219.625" y1="176.175" x2="257.687" y2="176.175" gradientUnits="userSpaceOnUse">
<stop stop-color="#F7F8FA" stop-opacity="0"/>
<stop offset="1" stop-color="#F7F8FA"/>
</linearGradient>
<linearGradient id="paint4_linear_8_7237" x1="261.625" y1="176.175" x2="177.625" y2="176.175" gradientUnits="userSpaceOnUse">
<stop/>
<stop offset="0.349"/>
<stop offset="1" stop-color="white" stop-opacity="0"/>
</linearGradient>
</defs>
</svg>
