<svg width="20" height="20" viewBox="0 0 20 20" fill="none" xmlns="http://www.w3.org/2000/svg">
<path fill-rule="evenodd" clip-rule="evenodd" d="M17.5459 4.95795C17.7762 5.17907 17.7837 5.54504 17.5626 5.77537L13.6776 9.82225C13.5685 9.93581 13.4179 10 13.2605 10C13.1031 10 12.9525 9.93581 12.8435 9.82225L10.4855 7.36605L7.69126 10.2767L9.68206 12.1879L3.27051 14.0469L4.86636 7.56482L6.85716 9.47599L10.0685 6.13088C10.1775 6.01732 10.3281 5.95313 10.4855 5.95313C10.6429 5.95313 10.7935 6.01732 10.9026 6.13088L13.2605 8.58708L16.7285 4.97463C16.9496 4.7443 17.3155 4.73683 17.5459 4.95795Z" fill="black"/>
</svg>
