<svg width="48" height="49" viewBox="0 0 48 49" fill="none" xmlns="http://www.w3.org/2000/svg">
<g clip-path="url(#clip0_8_6773)">
<rect y="0.780029" width="48" height="48" rx="24" fill="white"/>
<g clip-path="url(#clip1_8_6773)">
<g clip-path="url(#clip2_8_6773)">
<mask id="mask0_8_6773" style="mask-type:luminance" maskUnits="userSpaceOnUse" x="15" y="15" width="18" height="19">
<path d="M15 15.78H33V33.78H15V15.78Z" fill="white"/>
</mask>
<g mask="url(#mask0_8_6773)">
<path d="M33 24.78C32.9997 23.0601 32.5066 21.3763 31.5791 19.9279C30.6516 18.4796 29.3285 17.3273 27.7665 16.6075C26.2044 15.8878 24.4689 15.6306 22.7652 15.8666C21.0616 16.1026 19.4613 16.8217 18.1537 17.939C16.8461 19.0562 15.886 20.5247 15.387 22.1706C14.8881 23.8166 14.8712 25.571 15.3384 27.2262C15.8056 28.8814 16.7373 30.3681 18.0231 31.5103C19.309 32.6525 20.8952 33.4023 22.594 33.671V27.382H20.308V24.78H22.594V22.797C22.594 20.541 23.938 19.295 25.994 19.295C26.978 19.295 28.008 19.471 28.008 19.471V21.686H26.873C25.755 21.686 25.406 22.379 25.406 23.092V24.78H27.902L27.503 27.382H25.406V33.672C27.5233 33.3369 29.4515 32.2572 30.8436 30.6271C32.2357 28.997 33.0004 26.9236 33 24.78Z" fill="#1977F3"/>
<path d="M27.503 27.3829L27.903 24.7799H25.406V23.0919C25.406 22.3809 25.754 21.6859 26.873 21.6859H28.008V19.4699C28.008 19.4699 26.978 19.2939 25.994 19.2939C23.938 19.2939 22.594 20.5399 22.594 22.7959V24.7799H20.308V27.3829H22.594V33.6719C23.5256 33.8186 24.4744 33.8186 25.406 33.6719V27.3819L27.503 27.3829Z" fill="#FEFEFE"/>
</g>
</g>
</g>
<rect x="0.5" y="1.28003" width="47" height="47" rx="23.5" stroke="#E9EBF1"/>
</g>
<defs>
<clipPath id="clip0_8_6773">
<rect y="0.780029" width="48" height="48" rx="24" fill="white"/>
</clipPath>
<clipPath id="clip1_8_6773">
<rect width="24" height="24" fill="white" transform="translate(12 12.78)"/>
</clipPath>
<clipPath id="clip2_8_6773">
<rect width="24" height="24" fill="white" transform="translate(12 12.78)"/>
</clipPath>
</defs>
</svg>
