<svg width="24" height="25" viewBox="0 0 24 25" fill="none" xmlns="http://www.w3.org/2000/svg">
<path d="M2.5 12.1499C2.5 7.67156 2.5 5.43239 3.89124 4.04114C5.28249 2.6499 7.52166 2.6499 12 2.6499C16.4783 2.6499 18.7175 2.6499 20.1088 4.04114C21.5 5.43239 21.5 7.67156 21.5 12.1499C21.5 16.6282 21.5 18.8674 20.1088 20.2587C18.7175 21.6499 16.4783 21.6499 12 21.6499C7.52166 21.6499 5.28249 21.6499 3.89124 20.2587C2.5 18.8674 2.5 16.6282 2.5 12.1499Z" stroke="white" stroke-width="1.5" stroke-linejoin="round"/>
<path d="M16.9265 8.17725H13.9816C12.9378 8.17725 12.0894 9.01935 12.0817 10.0632L11.9964 21.5777M10.082 14.1526H14.8847" stroke="white" stroke-width="1.5" stroke-linecap="round" stroke-linejoin="round"/>
</svg>
