<svg width="17" height="17" viewBox="0 0 17 17" fill="none" xmlns="http://www.w3.org/2000/svg">
<path d="M13.5328 7.83124C13.2295 7.14852 12.7885 6.53574 12.2375 6.03124L11.7828 5.61406C11.7674 5.60028 11.7488 5.5905 11.7287 5.58558C11.7086 5.58067 11.6876 5.58076 11.6675 5.58585C11.6475 5.59094 11.629 5.60087 11.6137 5.61478C11.5984 5.62869 11.5867 5.64615 11.5797 5.66562L11.3766 6.24843C11.25 6.61406 11.0172 6.98749 10.6875 7.35468C10.6656 7.37812 10.6406 7.38437 10.6234 7.38593C10.6063 7.38749 10.5797 7.38437 10.5562 7.36249C10.5344 7.34374 10.5234 7.31562 10.525 7.28749C10.5828 6.34687 10.3016 5.28593 9.68594 4.13124C9.17656 3.17187 8.46875 2.42343 7.58437 1.90156L6.93906 1.52187C6.85469 1.47187 6.74688 1.53749 6.75156 1.63593L6.78594 2.38593C6.80937 2.89843 6.75 3.35156 6.60938 3.72812C6.4375 4.18906 6.19062 4.61718 5.875 5.00156C5.65535 5.26869 5.4064 5.51031 5.13281 5.72187C4.47391 6.22838 3.93815 6.87739 3.56562 7.62031C3.19402 8.3697 3.00045 9.19477 3 10.0312C3 10.7687 3.14531 11.4828 3.43281 12.1562C3.71042 12.8046 4.11103 13.3931 4.6125 13.8891C5.11875 14.3891 5.70625 14.7828 6.36094 15.0562C7.03906 15.3406 7.75781 15.4844 8.5 15.4844C9.24219 15.4844 9.96094 15.3406 10.6391 15.0578C11.2921 14.786 11.886 14.3895 12.3875 13.8906C12.8938 13.3906 13.2906 12.8062 13.5672 12.1578C13.8543 11.4862 14.0015 10.7632 14 10.0328C14 9.27031 13.8438 8.52968 13.5328 7.83124ZM11.6406 13.1328C10.8016 13.9641 9.6875 14.4203 8.5 14.4203C7.3125 14.4203 6.19844 13.9641 5.35938 13.1328C4.52344 12.3031 4.0625 11.2031 4.0625 10.0328C4.0625 9.35312 4.21563 8.70156 4.51719 8.09531C4.81094 7.50312 5.24844 6.97343 5.77969 6.56562C6.1185 6.30655 6.4258 6.00868 6.69531 5.67812C7.08594 5.20156 7.39219 4.67031 7.60469 4.09999C7.69185 3.86474 7.75519 3.62133 7.79375 3.37343C8.17031 3.72031 8.48594 4.13906 8.75 4.62968C9.27187 5.60781 9.5125 6.47812 9.46562 7.21874C9.45443 7.39318 9.48291 7.56788 9.54895 7.72971C9.61498 7.89155 9.71684 8.03631 9.84688 8.15312C9.95956 8.25491 10.0913 8.3333 10.2346 8.38372C10.3778 8.43415 10.5296 8.45561 10.6812 8.44687C10.9891 8.43124 11.2719 8.29531 11.4781 8.06562C11.6859 7.83281 11.8656 7.59531 12.0156 7.35312C12.2344 7.63281 12.4172 7.93749 12.5625 8.26562C12.8109 8.82499 12.9375 9.42031 12.9375 10.0328C12.9375 11.2031 12.4766 12.3047 11.6406 13.1328Z" fill="black"/>
</svg>
