<svg width="48" height="49" viewBox="0 0 48 49" fill="none" xmlns="http://www.w3.org/2000/svg">
<g clip-path="url(#clip0_8_6750)">
<rect y="0.580078" width="48" height="48" rx="24" fill="white"/>
<g clip-path="url(#clip1_8_6750)">
<g clip-path="url(#clip2_8_6750)">
<mask id="mask0_8_6750" style="mask-type:luminance" maskUnits="userSpaceOnUse" x="15" y="15" width="18" height="19">
<path d="M30 15.5801H18C16.3431 15.5801 15 16.9232 15 18.5801V30.5801C15 32.2369 16.3431 33.5801 18 33.5801H30C31.6569 33.5801 33 32.2369 33 30.5801V18.5801C33 16.9232 31.6569 15.5801 30 15.5801Z" fill="white"/>
</mask>
<g mask="url(#mask0_8_6750)">
<path d="M15.672 23.45C15.672 20.93 15.672 19.67 16.162 18.707C16.5937 17.8599 17.2827 17.1713 18.13 16.74C19.093 16.25 20.353 16.25 22.873 16.25H25.143C27.663 16.25 28.923 16.25 29.886 16.74C30.7326 17.1716 31.4208 17.8602 31.852 18.707C32.342 19.67 32.342 20.93 32.342 23.45V25.72C32.342 28.24 32.342 29.5 31.852 30.463C31.4206 31.3094 30.7324 31.9976 29.886 32.429C28.923 32.919 27.663 32.919 25.143 32.919H22.873C20.353 32.919 19.093 32.919 18.13 32.429C17.2832 31.9978 16.5946 31.3096 16.163 30.463C15.673 29.5 15.673 28.24 15.673 25.72V23.45H15.672Z" fill="url(#paint0_radial_8_6750)"/>
<path d="M15.672 23.45C15.672 20.93 15.672 19.67 16.162 18.707C16.5937 17.8599 17.2827 17.1713 18.13 16.74C19.093 16.25 20.353 16.25 22.873 16.25H25.143C27.663 16.25 28.923 16.25 29.886 16.74C30.7326 17.1716 31.4208 17.8602 31.852 18.707C32.342 19.67 32.342 20.93 32.342 23.45V25.72C32.342 28.24 32.342 29.5 31.852 30.463C31.4206 31.3094 30.7324 31.9976 29.886 32.429C28.923 32.919 27.663 32.919 25.143 32.919H22.873C20.353 32.919 19.093 32.919 18.13 32.429C17.2832 31.9978 16.5946 31.3096 16.163 30.463C15.673 29.5 15.673 28.24 15.673 25.72V23.45H15.672Z" fill="url(#paint1_radial_8_6750)"/>
<path d="M24 18.7471C22.416 18.7471 22.217 18.7531 21.595 18.7821C20.975 18.8101 20.55 18.9091 20.179 19.0521C19.796 19.2021 19.47 19.4011 19.146 19.7251C18.822 20.0501 18.622 20.3751 18.473 20.7591C18.328 21.1291 18.23 21.5541 18.202 22.1741C18.174 22.7971 18.167 22.9961 18.167 24.5801C18.167 26.1641 18.174 26.3621 18.202 26.9851C18.23 27.6051 18.329 28.0291 18.472 28.4001C18.622 28.7841 18.822 29.1101 19.146 29.4341C19.47 29.7581 19.796 29.9581 20.179 30.1071C20.549 30.2511 20.974 30.3491 21.595 30.3771C22.217 30.4071 22.415 30.4131 24 30.4131C25.584 30.4131 25.782 30.4061 26.405 30.3781C27.025 30.3501 27.45 30.2511 27.821 30.1071C28.2102 29.9607 28.5628 29.731 28.854 29.4341C29.178 29.1091 29.378 28.7841 29.527 28.4001C29.67 28.0301 29.769 27.6051 29.798 26.9851C29.826 26.3621 29.833 26.1651 29.833 24.5801C29.833 22.9961 29.826 22.7971 29.798 22.1751C29.768 21.5541 29.67 21.1301 29.527 20.7591C29.3805 20.3696 29.1508 20.0167 28.854 19.7251C28.5628 19.4284 28.2102 19.1991 27.821 19.0531C27.449 18.9091 27.025 18.8101 26.404 18.7821C25.781 18.7531 25.584 18.7471 23.999 18.7471H24ZM23.477 19.7971H24.001C25.558 19.7971 25.743 19.8031 26.358 19.8311C26.926 19.8571 27.235 19.9521 27.441 20.0321C27.713 20.1381 27.907 20.2641 28.111 20.4681C28.315 20.6731 28.441 20.8671 28.548 21.1391C28.628 21.3451 28.723 21.6531 28.748 22.2221C28.776 22.8371 28.783 23.0221 28.783 24.5791C28.783 26.1351 28.776 26.3201 28.748 26.9351C28.722 27.5041 28.628 27.8121 28.548 28.0181C28.4544 28.2713 28.305 28.5003 28.111 28.6881C27.907 28.8921 27.713 29.0181 27.441 29.1241C27.235 29.2041 26.926 29.2991 26.358 29.3251C25.743 29.3531 25.558 29.3591 24.001 29.3591C22.443 29.3591 22.258 29.3531 21.643 29.3251C21.075 29.2991 20.766 29.2041 20.56 29.1241C20.3069 29.0306 20.078 28.8816 19.89 28.6881C19.6961 28.5002 19.5468 28.2712 19.453 28.0181C19.373 27.8121 19.278 27.5031 19.252 26.9341C19.224 26.3201 19.218 26.1341 19.218 24.5771C19.218 23.0191 19.224 22.8351 19.252 22.2211C19.278 21.6511 19.372 21.3431 19.452 21.1381C19.546 20.8847 19.6953 20.6555 19.889 20.4671C20.0772 20.2731 20.3065 20.1238 20.56 20.0301C20.766 19.9501 21.075 19.8551 21.643 19.8301C22.2539 19.8014 22.8655 19.7911 23.477 19.7971ZM27.114 20.7671C26.9283 20.7671 26.7503 20.8408 26.619 20.9721C26.4877 21.1034 26.414 21.2814 26.414 21.4671C26.414 21.6527 26.4877 21.8308 26.619 21.962C26.7503 22.0933 26.9283 22.1671 27.114 22.1671C27.2998 22.1671 27.478 22.0933 27.6093 21.9619C27.7407 21.8305 27.8145 21.6524 27.8145 21.4666C27.8145 21.2808 27.7407 21.1026 27.6093 20.9712C27.478 20.8399 27.2998 20.7661 27.114 20.7661V20.7671ZM24 21.5831C23.2054 21.5831 22.4434 21.8987 21.8815 22.4606C21.3196 23.0224 21.004 23.7845 21.004 24.5791C21.004 25.3737 21.3196 26.1357 21.8815 26.6976C22.4434 27.2594 23.2054 27.5751 24 27.5751C24.7946 27.5751 25.5566 27.2594 26.1185 26.6976C26.6803 26.1357 26.996 25.3737 26.996 24.5791C26.996 23.7845 26.6803 23.0224 26.1185 22.4606C25.5566 21.8987 24.7946 21.5831 24 21.5831ZM24 22.6341C24.5158 22.6341 25.0106 22.839 25.3753 23.2037C25.7401 23.5685 25.945 24.0632 25.945 24.5791C25.945 25.0949 25.7401 25.5896 25.3753 25.9544C25.0106 26.3192 24.5158 26.5241 24 26.5241C23.4841 26.5241 22.9894 26.3192 22.6247 25.9544C22.2599 25.5896 22.055 25.0949 22.055 24.5791C22.055 24.0632 22.2599 23.5685 22.6247 23.2037C22.9894 22.839 23.4841 22.6341 24 22.6341Z" fill="white"/>
</g>
</g>
</g>
<rect x="0.5" y="1.08008" width="47" height="47" rx="23.5" stroke="#E9EBF1"/>
</g>
<defs>
<radialGradient id="paint0_radial_8_6750" cx="0" cy="0" r="1" gradientUnits="userSpaceOnUse" gradientTransform="translate(20.1 34.204) rotate(-90) scale(16.5212 15.366)">
<stop stop-color="#FFDD55"/>
<stop offset="0.1" stop-color="#FFDD55"/>
<stop offset="0.5" stop-color="#FF543E"/>
<stop offset="1" stop-color="#C837AB"/>
</radialGradient>
<radialGradient id="paint1_radial_8_6750" cx="0" cy="0" r="1" gradientUnits="userSpaceOnUse" gradientTransform="translate(12.88 17.45) rotate(78.6806) scale(7.38504 30.4415)">
<stop stop-color="#3771C8"/>
<stop offset="0.128" stop-color="#3771C8"/>
<stop offset="1" stop-color="#6600FF" stop-opacity="0"/>
</radialGradient>
<clipPath id="clip0_8_6750">
<rect y="0.580078" width="48" height="48" rx="24" fill="white"/>
</clipPath>
<clipPath id="clip1_8_6750">
<rect width="24" height="24" fill="white" transform="translate(12 12.5801)"/>
</clipPath>
<clipPath id="clip2_8_6750">
<rect width="24" height="24" fill="white" transform="translate(12 12.5801)"/>
</clipPath>
</defs>
</svg>
