<svg width="24" height="24" viewBox="0 0 24 24" fill="none" xmlns="http://www.w3.org/2000/svg">
<path fill-rule="evenodd" clip-rule="evenodd" d="M9.94 2.512C11.499 2.33503 13.073 2.33503 14.632 2.512L16.228 2.694C16.3408 2.70676 16.4493 2.74498 16.5452 2.80576C16.6411 2.86654 16.7219 2.94831 16.7816 3.04489C16.8413 3.14147 16.8783 3.25035 16.8898 3.36331C16.9013 3.47627 16.887 3.59037 16.848 3.697L14.645 9.713H17C17.1212 9.713 17.2407 9.74239 17.3481 9.79866C17.4555 9.85493 17.5476 9.9364 17.6166 10.0361C17.6857 10.1358 17.7295 10.2507 17.7443 10.371C17.7592 10.4914 17.7447 10.6135 17.702 10.727L17.512 11.234C16.19 14.7528 14.3222 18.0414 11.977 20.979L11.586 21.469C11.4889 21.5905 11.3565 21.6789 11.207 21.7218C11.0575 21.7647 10.8983 21.7601 10.7516 21.7086C10.6048 21.6571 10.4777 21.5612 10.3878 21.4342C10.298 21.3073 10.2498 21.1555 10.25 21V13.848H8.429C8.24135 13.8482 8.06044 13.7781 7.92196 13.6515C7.78349 13.5248 7.69751 13.3509 7.681 13.164L7.559 11.782C7.35285 9.4442 7.35285 7.09279 7.559 4.755L7.681 3.373C7.69606 3.20055 7.77031 3.03863 7.89115 2.91469C8.01199 2.79074 8.17199 2.71242 8.344 2.693L9.94 2.512ZM14.463 4.002C13.0163 3.83777 11.5557 3.83777 10.109 4.002L9.122 4.115L9.053 4.887C8.853 7.137 8.853 9.4 9.053 11.65L9.115 12.348H11C11.1989 12.348 11.3897 12.427 11.5303 12.5677C11.671 12.7083 11.75 12.8991 11.75 13.098V18.802C13.4526 16.4583 14.8514 13.9083 15.913 11.213H13.57C13.4494 11.2129 13.3307 11.1837 13.2238 11.128C13.1169 11.0722 13.025 10.9915 12.9559 10.8927C12.8868 10.7939 12.8426 10.6799 12.8269 10.5604C12.8113 10.4408 12.8247 10.3193 12.866 10.206L15.11 4.076L14.463 4.002Z" fill="black"/>
</svg>
