<svg width="24" height="25" viewBox="0 0 24 25" fill="none" xmlns="http://www.w3.org/2000/svg">
<path d="M4 20.1499C3.45 20.1499 2.97933 19.9542 2.588 19.5629C2.19667 19.1716 2.00067 18.7006 2 18.1499V6.1499C2 5.5999 2.196 5.12924 2.588 4.7379C2.98 4.34657 3.45067 4.15057 4 4.1499H20C20.55 4.1499 21.021 4.3459 21.413 4.7379C21.805 5.1299 22.0007 5.60057 22 6.1499V18.1499C22 18.6999 21.8043 19.1709 21.413 19.5629C21.0217 19.9549 20.5507 20.1506 20 20.1499H4ZM12 13.1499L4 8.1499V18.1499H20V8.1499L12 13.1499ZM12 11.1499L20 6.1499H4L12 11.1499ZM4 8.1499V6.1499V18.1499V8.1499Z" fill="black"/>
</svg>
