<svg width="48" height="48" viewBox="0 0 48 48" fill="none" xmlns="http://www.w3.org/2000/svg">
<rect width="48" height="48" rx="24" fill="white"/>
<g clip-path="url(#clip0_8_6900)">
<g clip-path="url(#clip1_8_6900)">
<path d="M20.498 31.55H27.502C26.8404 33.1323 25.5823 34.3904 24 35.052C22.4177 34.3904 21.1596 33.1323 20.498 31.55ZM30 26.355L32 28.623V30.55H16V28.623L18 26.355V20.55C18 17.067 20.504 14.103 24 13.005C27.496 14.103 30 17.067 30 20.55V26.355ZM24 22.55C24.5304 22.55 25.0391 22.3393 25.4142 21.9642C25.7893 21.5891 26 21.0804 26 20.55C26 20.0196 25.7893 19.5109 25.4142 19.1358C25.0391 18.7607 24.5304 18.55 24 18.55C23.4696 18.55 22.9609 18.7607 22.5858 19.1358C22.2107 19.5109 22 20.0196 22 20.55C22 21.0804 22.2107 21.5891 22.5858 21.9642C22.9609 22.3393 23.4696 22.55 24 22.55Z" fill="black"/>
<path d="M20.498 31.55H27.502C26.8404 33.1323 25.5823 34.3904 24 35.052C22.4177 34.3904 21.1596 33.1323 20.498 31.55ZM30 26.355L32 28.623V30.55H16V28.623L18 26.355V20.55C18 17.067 20.504 14.103 24 13.005C27.496 14.103 30 17.067 30 20.55V26.355ZM24 22.55C24.5304 22.55 25.0391 22.3393 25.4142 21.9642C25.7893 21.5891 26 21.0804 26 20.55C26 20.0196 25.7893 19.5109 25.4142 19.1358C25.0391 18.7607 24.5304 18.55 24 18.55C23.4696 18.55 22.9609 18.7607 22.5858 19.1358C22.2107 19.5109 22 20.0196 22 20.55C22 21.0804 22.2107 21.5891 22.5858 21.9642C22.9609 22.3393 23.4696 22.55 24 22.55Z" fill="url(#paint0_linear_8_6900)" fill-opacity="0.24"/>
</g>
</g>
<rect x="0.5" y="0.5" width="47" height="47" rx="23.5" stroke="#E9EBF1"/>
<defs>
<linearGradient id="paint0_linear_8_6900" x1="24" y1="13.005" x2="24" y2="35.052" gradientUnits="userSpaceOnUse">
<stop stop-color="white"/>
<stop offset="1" stop-color="white" stop-opacity="0"/>
</linearGradient>
<clipPath id="clip0_8_6900">
<rect width="32" height="32" fill="white" transform="translate(8 7.55005)"/>
</clipPath>
<clipPath id="clip1_8_6900">
<rect width="32" height="32" fill="white" transform="translate(8 7.55005)"/>
</clipPath>
</defs>
</svg>
