<svg width="32" height="33" viewBox="0 0 32 33" fill="none" xmlns="http://www.w3.org/2000/svg">
<path d="M12.498 24.55H19.502C18.8404 26.1323 17.5823 27.3904 16 28.052C14.4177 27.3904 13.1596 26.1323 12.498 24.55ZM22 19.355L24 21.623V23.55H8V21.623L10 19.355V13.55C10 10.067 12.504 7.103 16 6.005C19.496 7.103 22 10.067 22 13.55V19.355ZM16 15.55C16.5304 15.55 17.0391 15.3393 17.4142 14.9642C17.7893 14.5891 18 14.0804 18 13.55C18 13.0196 17.7893 12.5109 17.4142 12.1358C17.0391 11.7607 16.5304 11.55 16 11.55C15.4696 11.55 14.9609 11.7607 14.5858 12.1358C14.2107 12.5109 14 13.0196 14 13.55C14 14.0804 14.2107 14.5891 14.5858 14.9642C14.9609 15.3393 15.4696 15.55 16 15.55Z" fill="black"/>
<path d="M12.498 24.55H19.502C18.8404 26.1323 17.5823 27.3904 16 28.052C14.4177 27.3904 13.1596 26.1323 12.498 24.55ZM22 19.355L24 21.623V23.55H8V21.623L10 19.355V13.55C10 10.067 12.504 7.103 16 6.005C19.496 7.103 22 10.067 22 13.55V19.355ZM16 15.55C16.5304 15.55 17.0391 15.3393 17.4142 14.9642C17.7893 14.5891 18 14.0804 18 13.55C18 13.0196 17.7893 12.5109 17.4142 12.1358C17.0391 11.7607 16.5304 11.55 16 11.55C15.4696 11.55 14.9609 11.7607 14.5858 12.1358C14.2107 12.5109 14 13.0196 14 13.55C14 14.0804 14.2107 14.5891 14.5858 14.9642C14.9609 15.3393 15.4696 15.55 16 15.55Z" fill="url(#paint0_linear_189_1712)" fill-opacity="0.24"/>
<defs>
<linearGradient id="paint0_linear_189_1712" x1="16" y1="6.005" x2="16" y2="28.052" gradientUnits="userSpaceOnUse">
<stop stop-color="white"/>
<stop offset="1" stop-color="white" stop-opacity="0"/>
</linearGradient>
</defs>
</svg>
