<svg width="48" height="48" viewBox="0 0 48 48" fill="none" xmlns="http://www.w3.org/2000/svg">
<rect width="48" height="48" rx="24" fill="white"/>
<g clip-path="url(#clip0_8_6871)">
<path d="M12.75 35.25H35.25M16.18 21.24L32.25 13.94M32.25 13.94L31.06 17.13M32.25 13.94L29.07 12.75M18 28.25H15C14.8019 28.2526 14.6126 28.3324 14.4725 28.4725C14.3324 28.6126 14.2526 28.8019 14.25 29V35.25H18.75V29C18.7474 28.8019 18.6676 28.6126 18.5275 28.4725C18.3874 28.3324 18.1981 28.2526 18 28.25ZM25.5 24.25H22.5C22.3019 24.2526 22.1126 24.3324 21.9725 24.4725C21.8324 24.6126 21.7526 24.8019 21.75 25V35.25H26.25V25C26.2474 24.8019 26.1676 24.6126 26.0275 24.4725C25.8874 24.3324 25.6981 24.2526 25.5 24.25ZM33 20.25H30C29.8019 20.2526 29.6126 20.3324 29.4725 20.4725C29.3324 20.6126 29.2526 20.8019 29.25 21V35.25H33.75V21C33.7474 20.8019 33.6676 20.6126 33.5275 20.4725C33.3874 20.3324 33.1981 20.2526 33 20.25Z" stroke="black" stroke-width="1.5" stroke-linecap="round" stroke-linejoin="round"/>
</g>
<rect x="0.5" y="0.5" width="47" height="47" rx="23.5" stroke="#E9EBF1"/>
<defs>
<clipPath id="clip0_8_6871">
<rect width="32" height="32" fill="white" transform="translate(8 8)"/>
</clipPath>
</defs>
</svg>
