<svg width="48" height="48" viewBox="0 0 48 48" fill="none" xmlns="http://www.w3.org/2000/svg">
<rect width="48" height="48" rx="24" fill="white"/>
<path d="M24 29C24.2833 29 24.521 28.904 24.713 28.712C24.905 28.52 25.0007 28.2827 25 28V24C25 23.7167 24.904 23.4794 24.712 23.288C24.52 23.0967 24.2827 23.0007 24 23C23.7173 22.9994 23.48 23.0954 23.288 23.288C23.096 23.4807 23 23.718 23 24V28C23 28.2834 23.096 28.521 23.288 28.713C23.48 28.905 23.7173 29.0007 24 29ZM24 21C24.2833 21 24.521 20.904 24.713 20.712C24.905 20.52 25.0007 20.2827 25 20C24.9993 19.7174 24.9033 19.48 24.712 19.288C24.5207 19.096 24.2833 19 24 19C23.7167 19 23.4793 19.096 23.288 19.288C23.0967 19.48 23.0007 19.7174 23 20C22.9993 20.2827 23.0953 20.5204 23.288 20.713C23.4807 20.9057 23.718 21.0014 24 21ZM24 33.9C23.8833 33.9 23.775 33.8917 23.675 33.875C23.575 33.8584 23.475 33.8334 23.375 33.8C21.125 33.05 19.3333 31.6624 18 29.637C16.6667 27.6117 16 25.4327 16 23.1V18.375C16 17.9584 16.121 17.5834 16.363 17.25C16.605 16.9167 16.9173 16.675 17.3 16.525L23.3 14.275C23.5333 14.1917 23.7667 14.15 24 14.15C24.2333 14.15 24.4667 14.1917 24.7 14.275L30.7 16.525C31.0833 16.675 31.396 16.9167 31.638 17.25C31.88 17.5834 32.0007 17.9584 32 18.375V23.1C32 25.4334 31.3333 27.6127 30 29.638C28.6667 31.6634 26.875 33.0507 24.625 33.8C24.525 33.8334 24.425 33.8584 24.325 33.875C24.225 33.8917 24.1167 33.9 24 33.9Z" fill="black"/>
<rect x="0.5" y="0.5" width="47" height="47" rx="23.5" stroke="#E9EBF1"/>
</svg>
