<svg width="48" height="48" viewBox="0 0 48 48" fill="none" xmlns="http://www.w3.org/2000/svg">
<rect width="48" height="48" rx="24" fill="white"/>
<path d="M31 20C31.5304 20 32.0391 20.2107 32.4142 20.5858C32.7893 20.9609 33 21.4696 33 22V31C33 31.5304 32.7893 32.0391 32.4142 32.4142C32.0391 32.7893 31.5304 33 31 33H22C21.4696 33 20.9609 32.7893 20.5858 32.4142C20.2107 32.0391 20 31.5304 20 31V28H26C26.5304 28 27.0391 27.7893 27.4142 27.4142C27.7893 27.0391 28 26.5304 28 26V20H31ZM26 15C26.5304 15 27.0391 15.2107 27.4142 15.5858C27.7893 15.9609 28 16.4696 28 17V20H22C21.4696 20 20.9609 20.2107 20.5858 20.5858C20.2107 20.9609 20 21.4696 20 22V28H17C16.4696 28 15.9609 27.7893 15.5858 27.4142C15.2107 27.0391 15 26.5304 15 26V17C15 16.4696 15.2107 15.9609 15.5858 15.5858C15.9609 15.2107 16.4696 15 17 15H26ZM26 22V26H22V22H26Z" fill="black"/>
<rect x="0.5" y="0.5" width="47" height="47" rx="23.5" stroke="#E9EBF1"/>
</svg>
