<svg width="28" height="28" viewBox="0 0 28 28" fill="none" xmlns="http://www.w3.org/2000/svg">
<path d="M14 22.1667L9.36834 24.9433C9.00543 25.1614 8.59004 25.2766 8.16667 25.2766C7.7433 25.2766 7.32791 25.1614 6.965 24.9433L3.465 22.8433C3.12055 22.6364 2.83539 22.344 2.63712 21.9945C2.43886 21.645 2.33422 21.2502 2.33334 20.8483V17.0683C2.33422 16.6665 2.43886 16.2717 2.63712 15.9222C2.83539 15.5727 3.12055 15.2803 3.465 15.0733L8.16667 12.25L14 15.75M14 22.1667V15.75M14 22.1667L18.6317 24.9433C18.9946 25.1614 19.41 25.2766 19.8333 25.2766C20.2567 25.2766 20.6721 25.1614 21.035 24.9433L24.535 22.8433C24.8795 22.6364 25.1646 22.344 25.3629 21.9945C25.5611 21.645 25.6658 21.2502 25.6667 20.8483V17.0683C25.6658 16.6665 25.5611 16.2717 25.3629 15.9222C25.1646 15.5727 24.8795 15.2803 24.535 15.0733L19.8333 12.25L14 15.75M14 15.75L8.16667 19.25M14 15.75L19.8333 19.25M8.16667 19.25L2.63667 15.925M8.16667 19.25V25.2817M19.8333 19.25L25.3633 15.925M19.8333 19.25V25.2817" stroke="black" stroke-width="1.5" stroke-linecap="round" stroke-linejoin="round"/>
<path d="M14 15.75L8.16667 12.25V7.15167C8.16755 6.74984 8.27219 6.35504 8.47046 6.00553C8.66872 5.65601 8.95389 5.36362 9.29834 5.15667L12.7983 3.05667C13.1612 2.83864 13.5766 2.72345 14 2.72345C14.4234 2.72345 14.8388 2.83864 15.2017 3.05667L18.7017 5.15667C19.0461 5.36362 19.3313 5.65601 19.5296 6.00553C19.7278 6.35504 19.8325 6.74984 19.8333 7.15167V12.25L14 15.75ZM14 15.75V9.33334M14 9.33334L8.47001 6.00834M14 9.33334L19.53 6.00834" stroke="black" stroke-width="1.5" stroke-linecap="round" stroke-linejoin="round"/>
</svg>
