<svg width="24" height="24" viewBox="0 0 24 24" fill="none" xmlns="http://www.w3.org/2000/svg">
<path d="M18.5 0.75C17.7994 0.749851 17.1075 0.904672 16.4738 1.20337C15.8401 1.50207 15.2803 1.93724 14.8345 2.47771C14.3888 3.01818 14.0681 3.65056 13.8955 4.32953C13.7228 5.0085 13.7025 5.71726 13.836 6.405L9.021 8.812C8.37702 8.10061 7.53268 7.60094 6.59917 7.37879C5.66567 7.15664 4.68677 7.22244 3.79138 7.56751C2.896 7.91258 2.12612 8.52075 1.58314 9.31192C1.04016 10.1031 0.749527 11.0402 0.749527 11.9998C0.749527 12.9593 1.04016 13.8964 1.58314 14.6876C2.12612 15.4787 2.896 16.0869 3.79138 16.432C4.68677 16.7771 5.66567 16.8429 6.59917 16.6207C7.53268 16.3986 8.37702 15.8989 9.021 15.1875L13.836 17.595C13.6496 18.5553 13.7643 19.5497 14.1643 20.4424C14.5643 21.3351 15.2302 22.0826 16.071 22.5826C16.9118 23.0826 17.8864 23.3108 18.8618 23.2361C19.8372 23.1614 20.7657 22.7874 21.5205 22.1651C22.2753 21.5428 22.8196 20.7027 23.079 19.7595C23.3383 18.8163 23.3002 17.816 22.9697 16.8953C22.6392 15.9746 22.0325 15.1783 21.2325 14.6154C20.4325 14.0524 19.4782 13.7502 18.5 13.75C17.273 13.75 16.155 14.215 15.312 14.979L10.23 12.438C10.2567 12.1466 10.2567 11.8534 10.23 11.562L15.312 9.021C16.1847 9.81315 17.3214 10.2514 18.5 10.25C19.7598 10.25 20.968 9.74955 21.8588 8.85876C22.7496 7.96796 23.25 6.75978 23.25 5.5C23.25 4.24022 22.7496 3.03204 21.8588 2.14124C20.968 1.25045 19.7598 0.75 18.5 0.75Z" fill="black"/>
</svg>
