<svg width="48" height="49" viewBox="0 0 48 49" fill="none" xmlns="http://www.w3.org/2000/svg">
<g clip-path="url(#clip0_8_6733)">
<rect y="0.780029" width="48" height="48" rx="24" fill="white"/>
<g clip-path="url(#clip1_8_6733)">
<g clip-path="url(#clip2_8_6733)">
<path d="M20.66 32.4139C27.454 32.4139 31.168 26.7839 31.168 21.9029C31.168 21.7429 31.165 21.5829 31.158 21.4249C31.8808 20.9018 32.5045 20.254 33 19.5119C32.3265 19.811 31.6118 20.0072 30.88 20.0939C31.6509 19.6319 32.2277 18.9055 32.503 18.0499C31.7781 18.4802 30.985 18.7836 30.158 18.9469C29.6019 18.3528 28.8651 17.959 28.0622 17.8266C27.2593 17.6942 26.4351 17.8306 25.7177 18.2147C25.0002 18.5988 24.4297 19.209 24.0947 19.9506C23.7597 20.6922 23.6789 21.5237 23.865 22.3159C22.3965 22.2422 20.9599 21.8605 19.6485 21.1955C18.3371 20.5305 17.1802 19.5971 16.253 18.4559C15.9249 19.0198 15.7524 19.6606 15.753 20.3129C15.753 21.5949 16.405 22.7259 17.396 23.3879C16.8094 23.3701 16.2356 23.2116 15.723 22.9259V22.9729C15.7229 23.8259 16.018 24.6526 16.5581 25.3128C17.0981 25.973 17.85 26.426 18.686 26.5949C18.1421 26.7429 17.5715 26.7644 17.018 26.6579C17.2537 27.392 17.713 28.034 18.3316 28.4941C18.9502 28.9542 19.6972 29.2093 20.468 29.2239C19.16 30.2513 17.5443 30.8086 15.881 30.8059C15.587 30.8059 15.292 30.7889 15 30.7539C16.6881 31.8393 18.6531 32.4156 20.66 32.4139Z" fill="#1DA1F2"/>
</g>
</g>
<rect x="0.5" y="1.28003" width="47" height="47" rx="23.5" stroke="#E9EBF1"/>
</g>
<defs>
<clipPath id="clip0_8_6733">
<rect y="0.780029" width="48" height="48" rx="24" fill="white"/>
</clipPath>
<clipPath id="clip1_8_6733">
<rect width="24" height="24" fill="white" transform="translate(12 12.78)"/>
</clipPath>
<clipPath id="clip2_8_6733">
<rect width="24" height="24" fill="white" transform="translate(12 12.78)"/>
</clipPath>
</defs>
</svg>
