<svg width="19" height="20" viewBox="0 0 19 20" fill="none" xmlns="http://www.w3.org/2000/svg">
<path fill-rule="evenodd" clip-rule="evenodd" d="M9.94245 7.35898L16.354 5.5L14.7582 11.9821L12.7674 10.0709L9.55606 13.416C9.44704 13.5296 9.29643 13.5938 9.139 13.5938C8.98158 13.5938 8.83097 13.5296 8.72195 13.416L6.36401 10.9598L2.89606 14.5722C2.67494 14.8026 2.30897 14.81 2.07863 14.5889C1.8483 14.3678 1.84083 14.0018 2.06195 13.7715L5.94695 9.72463C6.05597 9.61107 6.20658 9.54688 6.36401 9.54688C6.52143 9.54688 6.67204 9.61107 6.78106 9.72463L9.139 12.1808L11.9333 9.27015L9.94245 7.35898Z" fill="black"/>
</svg>
